/* XPM */
static char *f15cde85508f4a6f9f33925a53c69672e7L8agyjh1Z0zria[] = {
/* columns rows colors chars-per-pixel */
"64 55 130 2 ",
"   c None",
".  c #242D03",
"X  c #292E04",
"o  c #2A2E0B",
"O  c #273003",
"+  c #2C3302",
"@  c #2F3903",
"#  c #27310B",
"$  c #2B330B",
"%  c #2F3809",
"&  c #333902",
"*  c #3B3E04",
"=  c #31340E",
"-  c #333B0B",
";  c #2C3514",
":  c #2E3B12",
">  c #2B351A",
",  c #323613",
"<  c #323B14",
"1  c #32371A",
"2  c #343D1C",
"3  c #3A3E1E",
"4  c #333D22",
"5  c #3A3E22",
"6  c #313E28",
"7  c #3C430D",
"8  c #354012",
"9  c #3D4416",
"0  c #33411B",
"q  c #3B431E",
"w  c #37481B",
"e  c #334123",
"r  c #3B4523",
"t  c #3C4925",
"y  c #34452A",
"u  c #3B452B",
"i  c #35482B",
"p  c #3E492C",
"a  c #364730",
"s  c #3D4C31",
"d  c #404509",
"f  c #454B0C",
"g  c #404415",
"h  c #444C16",
"j  c #494D13",
"k  c #4C531D",
"l  c #5A5D1E",
"z  c #414F27",
"x  c #424C2C",
"c  c #44512C",
"v  c #4C552B",
"b  c #454E34",
"n  c #494F35",
"m  c #455334",
"M  c #495535",
"N  c #465B37",
"B  c #4E5B36",
"V  c #4B523B",
"C  c #45583B",
"Z  c #4D5B3C",
"A  c #515F3C",
"S  c #4C6131",
"D  c #4C633C",
"F  c #53623D",
"G  c #4D5C45",
"H  c #505640",
"J  c #525E42",
"K  c #585E44",
"L  c #4D6342",
"P  c #546344",
"I  c #586546",
"U  c #566C44",
"Y  c #596D45",
"T  c #556349",
"R  c #596649",
"E  c #566A4A",
"W  c #5A6D4A",
"Q  c #577044",
"!  c #5A7046",
"~  c #5D724B",
"^  c #5C6B51",
"/  c #5D7252",
"(  c #61734D",
")  c #616E53",
"_  c #637453",
"`  c #677D54",
"'  c #667D54",
"]  c #657B53",
"[  c #697950",
"{  c #687E55",
"}  c #697F55",
"|  c #697C56",
" . c #6F7F54",
".. c #657759",
"X. c #65755A",
"o. c #687659",
"O. c #637958",
"+. c #657958",
"@. c #66785A",
"#. c #687C59",
"$. c #687F5B",
"%. c #6A7D5F",
"&. c #6C7E5E",
"*. c #6A7E58",
"=. c #6C7F61",
"-. c #6D7D62",
";. c #6D8152",
":. c #6A8056",
">. c #6C8456",
",. c #6D8058",
"<. c #6C8258",
"1. c #6C8259",
"2. c #6C805A",
"3. c #6F825A",
"4. c #6F8559",
"5. c #6F855B",
"6. c #6C805F",
"7. c #6F855C",
"8. c #6C825B",
"9. c #708457",
"0. c #70845E",
"q. c #71855F",
"w. c #718858",
"e. c #6D8160",
"r. c #6F8161",
"t. c #6F8360",
"y. c #6F8264",
"u. c #718361",
"i. c #738761",
"p. c #728663",
/* pixels */
"                                                                                                                                ",
"                                                                                                                                ",
"                                                                                                                                ",
"                                                                                                                                ",
"                                                                                                                                ",
"                                                                                                                                ",
"                                                                                                                                ",
"                                                                                                                                ",
"                                                                                                                                ",
"                                l f * & * j                                                                                     ",
"                              d X , 3 3 5 , = h                                                                                 ",
"                            7 . q n H V V n 5 # h                                                                               ",
"                          9 = r I Z s 6 u J K q . k                                                                             ",
"                          # 3 R E m i y y Z ) Z < %                                                                             ",
"                        h . b ^ E L Z D N L ..o.Z > o g                                                                         ",
"                        7 $ J R E E U ~ ~ ~ 6.-.) M 5 o +                                                                       ",
"                        @ < Z ^ ^ U Y ! ~ { i.t.@.) J M $ -                                                                     ",
"                          $ V ^ W U Y ! ! ( 2.p.u.&._ P < . v                                                                   ",
"                          . x R Y U U Y Y W _ t.0.2.[ ( z . $ -                                                                 ",
"                            $ B U Q U U W ~ ~ _ 2.4.;. .Y z e < O                                                               ",
"                              8 S U ! U E ~ Y Y ] 4.w.9.[ Y P A - +                                                             ",
"                                w D ~ Y E U Y U ! ] { :.2.{ / E c O + k                                                         ",
"                                  s E ~ U U ! Q ! ~ _ #.i.i.` ~ W x ; # <                                                       ",
"                                  y P W U U ! U U E / O.#.2.2.7._ _ J x 3 $ $ $ < 9                                             ",
"                                  > J E Y Y Y U Y W E E / ` >.4.-.-...R Z M t 0 < < < < < 1 ; #                                 ",
"                                    3 c M F Y Y Y Y Y E ~ ~ ~ ] t.u.y.%.@._ W I Z Z M M m s e > 4 5                             ",
"                                          M R W Y Y U Y ~ U U ~ ( ` 1.2.6.6.#.[ Y E E E E P m y 6 n x                           ",
"                                            b I Y ~ U U ! Y U ~ ! ~ ( ] ] ` ` [ Y Y E Y Y Y L C a G R c                         ",
"                                              z F Y ~ U U Y E Y Y U Y ! ~ ~ ~ ~ Y Y Y Y E Y U P G T R B -                       ",
"                                                r M Y W Y Y I Z U U U U Y Y Y Y Y Y Y Y E Y E E E R W A 8                       ",
"                                                  4 m T R W F t Z A F Y W W Y Y Y Y Y Y Y Y Y Y R R ( F -                       ",
"                                                    ; p Z E A 0 e t m F Y E Y Y Y Y Y U U Y Y Y / E W B &                       ",
"                                                        < x V m u e c U W U U Y Q U Q Q U U U Y W ^ E c                         ",
"                                                            1 u p M P Y E Y ! Y U Y Y U U U Y Y R ^ A :                         ",
"                                                              X ; r m Z I E U U Y W W W ^ W E E I m :                           ",
"                                                                  , . # 2 r c P W R P Z J R ^ R t #                             ",
"                                                                      9 < # ; t I P p ; > p n t .                               ",
"                                                                            - . q < $ ; , # . .                                 ",
"                                                                                & +                                             ",
"                                                                                                                                ",
"                                                                                                                                ",
"                                                                                                                                ",
"                                                                                                                                ",
"                                                                                                                                ",
"                                                                                                                                ",
"                                                                                                                                ",
"                                                                                                                                ",
"                                                                                                                                ",
"                                                                                                                                ",
"                                                                                                                                ",
"                                                                                                                                ",
"                                                                                                                                ",
"                                                                                                                                ",
"                                                                                                                                ",
"                                                                                                                                "
};
