/* XPM */
static char *_ea7ba39cdb44c9ff8531800490df1ffdovxBcH1kBwdGcfl[] = {
/* columns rows colors chars-per-pixel */
"50 64 214 2 ",
"   c None",
".  c #050904",
"X  c #1F1409",
"o  c #12161F",
"O  c #131B1A",
"+  c #1B1B14",
"@  c #28140F",
"#  c #281608",
"$  c #331E05",
"%  c #2A1611",
"&  c #241E15",
"*  c #2B1D14",
"=  c #271D1A",
"-  c #321C17",
";  c #321C1D",
":  c #39240B",
">  c #3C2905",
",  c #262117",
"<  c #2B2114",
"1  c #24231B",
"2  c #2C231C",
"3  c #282B1D",
"4  c #342415",
"5  c #33251C",
"6  c #352B1D",
"7  c #3C2B19",
"8  c #26321F",
"9  c #303014",
"0  c #1C142C",
"q  c #171B20",
"w  c #261F23",
"e  c #1F2521",
"r  c #252D23",
"t  c #2C2C23",
"y  c #28282A",
"u  c #352624",
"i  c #342B24",
"p  c #382D23",
"a  c #322C29",
"s  c #3B2C2D",
"d  c #392624",
"f  c #2A3224",
"g  c #2C332A",
"h  c #263326",
"j  c #3B3224",
"k  c #34332C",
"l  c #3C352A",
"z  c #3C3E2E",
"x  c #353825",
"c  c #2D2637",
"v  c #332D34",
"b  c #3E2E31",
"n  c #2C3434",
"m  c #3B3B35",
"M  c #3A333C",
"N  c #3C3A3A",
"B  c #373837",
"V  c #4D2C1D",
"C  c #492717",
"Z  c #532B15",
"A  c #5A2B14",
"S  c #532B1C",
"D  c #5A2E1C",
"F  c #4D341D",
"G  c #4A3F1D",
"H  c #5C321D",
"J  c #503216",
"K  c #62331A",
"L  c #4C2D23",
"P  c #4A2722",
"I  c #532E21",
"U  c #5C2E21",
"Y  c #532F2D",
"T  c #453525",
"R  c #4D3525",
"E  c #453A24",
"W  c #44322C",
"Q  c #4D332C",
"!  c #433B2C",
"~  c #4D3F28",
"^  c #543325",
"/  c #5C3324",
"(  c #543B24",
")  c #52342B",
"_  c #5A342A",
"`  c #5C3A2E",
"'  c #523A2C",
"]  c #452F31",
"[  c #433B33",
"{  c #4B3933",
"}  c #44363A",
"|  c #443C3D",
" . c #4B3C3C",
".. c #493435",
"X. c #553932",
"o. c #543D3A",
"O. c #523337",
"+. c #623626",
"@. c #633926",
"#. c #603D39",
"$. c #3E443D",
"%. c #534215",
"&. c #46422D",
"*. c #54452A",
"=. c #434335",
"-. c #43433B",
";. c #4D4B3D",
":. c #4E4238",
">. c #534A3C",
",. c #574638",
"<. c #55523E",
"1. c #614130",
"2. c #615237",
"3. c #735B37",
"4. c #72663E",
"5. c #2C2542",
"6. c #383D43",
"7. c #363947",
"8. c #433E45",
"9. c #443C4B",
"0. c #4C3D47",
"q. c #4A3F57",
"w. c #3B454A",
"e. c #394040",
"r. c #3C4853",
"t. c #464544",
"y. c #4D4544",
"u. c #4B4D46",
"i. c #444349",
"p. c #4D4D4B",
"a. c #484748",
"s. c #534545",
"d. c #594442",
"f. c #544B42",
"g. c #544D49",
"h. c #5C4C4C",
"j. c #57434C",
"k. c #53524B",
"l. c #5A514D",
"z. c #5E5A4C",
"x. c #545140",
"c. c #444C54",
"v. c #4F4D55",
"b. c #424E59",
"n. c #484658",
"m. c #544F55",
"M. c #574A56",
"N. c #4B535C",
"B. c #555454",
"V. c #5B5450",
"C. c #5B5C54",
"Z. c #5D565D",
"A. c #5B5B5B",
"S. c #50545A",
"D. c #61494C",
"F. c #604A43",
"G. c #65584D",
"H. c #625C53",
"J. c #69585A",
"K. c #715E57",
"L. c #5E6155",
"P. c #686245",
"I. c #7E744A",
"U. c #616155",
"Y. c #63635B",
"T. c #6F6A5C",
"R. c #676659",
"E. c #726B5C",
"W. c #786A56",
"Q. c #7B735A",
"!. c #495460",
"~. c #575A68",
"^. c #574C66",
"/. c #665A63",
"(. c #5D6771",
"). c #5C666D",
"_. c #666267",
"`. c #786B66",
"'. c #6F7067",
"]. c #757364",
"[. c #7B7562",
"{. c #7F7D66",
"}. c #696B76",
"|. c #746A74",
" X c #6A757B",
".X c #806C4E",
"XX c #8B774E",
"oX c #8A7B5C",
"OX c #8B7852",
"+X c #90795F",
"@X c #867A64",
"#X c #84806D",
"$X c #978C6A",
"%X c #A08B6B",
"&X c #6E7A80",
"*X c #757F85",
"=X c #768086",
"-X c #7A858D",
";X c #8C969D",
":X c #8E999F",
">X c #949A9E",
",X c #B7AB8F",
"<X c #ACAB94",
"1X c #BABA9F",
"2X c #8E97A0",
"3X c #959EA5",
"4X c #9BA5AC",
"5X c #98A5AB",
"6X c #9EABB1",
"7X c #A2ADB2",
"8X c #A9B4BA",
"9X c #A7B2B8",
"0X c #B0BABD",
"qX c #B9C4CA",
/* pixels */
"                                                                                                    ",
"                                                                                                    ",
"                                                                                                    ",
"                                                                                                    ",
"                                                                                                    ",
"                                                                                                    ",
"                                                                                                    ",
"                                                                                                    ",
"                                                                                                    ",
"                                                                                                    ",
"                                                                                                    ",
"                                                                                                    ",
"                                                                                                    ",
"                                                                                                    ",
"                >X        6.      2 p p 6 t [ m                                                     ",
"              0X7X            y 1 < p j 6 p [ k                                                     ",
"              9X7X              g t z ! E ! ;.                                                      ",
"              6X6X              f R.[.@X*.E #X                                                      ",
"              qX5X              9 $X$X$X*.G <X                                                      ",
"              4X              =.P.I.%.XXOXoX1X                                                      ",
"              9X              -.Q.4.> 3.%X,X<X                                                      ",
"            =X9X                &.P..X+XoX@X                                                        ",
"          w.=X6X                -.=.>.<.T 4                                                         ",
"          w.=X4X                  k , < 4 T !           u 2                                         ",
"          6.*X:X                  h t >.*.F G E 6 5 u 5 5 *                                         ",
"          c.;X3X                  n 1 ! 7 $ > 2.~ # 5 - @ 5 U.z.t.                                  ",
"          N.4X;X                  e.1 * $ : ( $XW.6 % @ ; i l.k.l.y.| m.                            ",
"          N.8X;Xb.                  m @ # $ : ,.j p = u  .h.s. .d.K.h.y._.}.6.                      ",
"          N.7X-Xr.                    d 7 7 6 < & & } J.D...] W L ^ Q o.h.t.y N.                    ",
"          N.3X Xr.                    [ p 6 l 3 + a s.d.O.Y #._ S S ^ Q W y.B.                      ",
"          (.5X&X!.                  a.V.[ f z x f =.:.Q _ D A K K A S ` { f.A.                      ",
"          ).2X}.~.                  t.Y.m 3 f 8 8 x.,.V Z @.A A D @.S I ) o.y.B.                    ",
"          c.~.N.c.                  p.C.-.f r r =.G.^ @.D S _ L :.,.^ _ _ L { t.                    ",
"          o o q B                     C.u.g r 3 ;.K.L Z H +.P o.V.h.` _ +.^ { t.c.                  ",
"          O . + m p.                      $.t t  .h.L ^ S / C ` G.F.^ U U _ W N c.                  ",
"          O . m '.Y.k.                      1 , b j.] X.F Z Z S ' ) U U D I d.t.b.                  ",
"          O . -.C.L.U.            ].        <.j s /.M.W R J A Z C V / @.U L K.A.b.                  ",
"          n e t.                            P.j u M.|.| 7 F H K ^ V S / _ Q J.S.~.                  ",
"            6.                              <.;.a B _.p.l R _ / 1.^ S V Y o.a.S.                    ",
"                                                  g n a.g.{ L L R ' X.) ..j.9.                      ",
"                                                    y B m.`.d.Q T W D.J.j.9.~.                      ",
"                                                        M /.l.:.>.[ s.0.9.n.                        ",
"                                                          v 2 l [ a N M 7.                          ",
"                                                            m ;.k a i.                              ",
"                                                              t & + v                               ",
"                                  *                           1 2 = y                               ",
"                                ; -                             X * w                               ",
"                                @ %                             6 [ 8.                              ",
"                                s {                             <.T.m.                              ",
"                                g.H.8.                          z.[.~.                              ",
"                                B.R.p.                            {./.                              ",
"                                A.C.U.m                           [./.                              ",
"                                  B.R.-.                          Q.                                ",
"                                  Z.U.U.-.                        [.                                ",
"                                  |.G.].V.                      `.E.                                ",
"                                    f.E.H.                      T.T.                                ",
"                              }.^.j.>.>.f.Z.                  8.z.f.B.                              ",
"                            n.c 0 c H.].k.v.                  8.-.! 8.                              ",
"                            5.0 0 c -.u.p.                    i.k a v                               ",
"                            ^.q.9.v.                            [ [ }                               ",
"                                                                                                    ",
"                                                                                                    ",
"                                                                                                    ",
"                                                                                                    "
};
