/* XPM */
static char *ad7b4a62dfd24155ba1326aae149bee8jI74f6pZDYU0OiJB[] = {
/* columns rows colors chars-per-pixel */
"64 56 238 2 ",
"   c None",
".  c #020104",
"X  c #05040C",
"o  c #040A0C",
"O  c #0C0A0C",
"+  c #140E0B",
"@  c #1C090E",
"#  c #0E110E",
"$  c #0B0C12",
"%  c #090710",
"&  c #150D13",
"*  c #1A0C14",
"=  c #1B0B1B",
"-  c #150D1C",
";  c #081912",
":  c #131414",
">  c #14111C",
",  c #141B19",
"<  c #191618",
"1  c #1A120D",
"2  c #280809",
"3  c #230E14",
"4  c #270D18",
"5  c #330B13",
"6  c #3E0A18",
"7  c #281313",
"8  c #25141E",
"9  c #2C1319",
"0  c #251A17",
"q  c #35141B",
"w  c #3C141D",
"e  c #38181C",
"r  c #31210E",
"t  c #3E3F00",
"y  c #24231E",
"u  c #313019",
"i  c #191724",
"p  c #061528",
"a  c #241622",
"s  c #3D1B23",
"d  c #3B1725",
"f  c #1F2232",
"g  c #04232A",
"h  c #28282C",
"j  c #342325",
"k  c #3A2429",
"l  c #393330",
"z  c #333239",
"x  c #2E3131",
"c  c #500C0F",
"v  c #4A1807",
"b  c #440C19",
"n  c #470B13",
"m  c #570919",
"M  c #44131D",
"N  c #4A131D",
"B  c #4D1A1D",
"V  c #451719",
"C  c #521C1C",
"Z  c #5D1B1C",
"A  c #571718",
"S  c #47080A",
"D  c #690F00",
"F  c #680C1A",
"G  c #6E161B",
"H  c #651B1B",
"J  c #63181C",
"K  c #73151B",
"L  c #7C1415",
"P  c #770E10",
"I  c #48260A",
"U  c #5B2809",
"Y  c #5D3600",
"T  c #562813",
"R  c #652001",
"E  c #6E2C00",
"W  c #742A07",
"Q  c #643700",
"!  c #64221B",
"~  c #662919",
"^  c #762918",
"/  c #67351C",
"(  c #520E22",
")  c #580B28",
"_  c #441623",
"`  c #4B1423",
"'  c #431B23",
"]  c #4D1C24",
"[  c #451D2B",
"{  c #4E1D29",
"}  c #48102E",
"|  c #531523",
" . c #5D1524",
".. c #551D24",
"X. c #5A1B25",
"o. c #541B2A",
"O. c #5B1C2B",
"+. c #59172A",
"@. c #510830",
"#. c #471734",
"$. c #5B1935",
"%. c #4B0930",
"&. c #680F20",
"*. c #750D2A",
"=. c #621524",
"-. c #6B1523",
";. c #651A24",
":. c #6C1A26",
">. c #64152A",
",. c #631A2B",
"<. c #6C1B2B",
"1. c #6C142B",
"2. c #741B23",
"3. c #731C2C",
"4. c #7D1C2A",
"5. c #771727",
"6. c #661B32",
"7. c #781A30",
"8. c #7A0E37",
"9. c #492329",
"0. c #552226",
"q. c #54222C",
"w. c #5B232B",
"e. c #592324",
"r. c #5A2835",
"t. c #6D2225",
"y. c #65252B",
"u. c #6C232D",
"i. c #692B2C",
"p. c #64282B",
"a. c #742324",
"s. c #73222D",
"d. c #792929",
"f. c #783822",
"g. c #642133",
"h. c #6B2333",
"j. c #652A33",
"k. c #6B2B39",
"l. c #732433",
"z. c #7D2534",
"x. c #742B36",
"c. c #743238",
"v. c #7C411F",
"b. c #7F551D",
"n. c #73641D",
"m. c #5D4922",
"M. c #714526",
"N. c #68672F",
"B. c #880A1B",
"V. c #871A19",
"C. c #8B1C11",
"Z. c #862108",
"A. c #832617",
"S. c #902311",
"D. c #813E1D",
"F. c #98371A",
"G. c #890B22",
"H. c #871B28",
"J. c #961826",
"K. c #831D33",
"L. c #881C33",
"P. c #931E34",
"I. c #A11B28",
"U. c #A41B30",
"Y. c #822324",
"T. c #83242B",
"R. c #8C2129",
"E. c #882A27",
"W. c #9E232D",
"Q. c #9D2B2A",
"!. c #932628",
"~. c #8A3A23",
"^. c #832232",
"/. c #8A2534",
"(. c #84243A",
"). c #892636",
"_. c #912334",
"`. c #9A2635",
"'. c #9B2837",
"]. c #9F3133",
"[. c #A6242C",
"{. c #BC2C2E",
"}. c #A72B36",
"|. c #B32C36",
" X c #BA2E34",
".X c #AA3536",
"XX c #B43332",
"oX c #BB343E",
"OX c #B9302D",
"+X c #C02F33",
"@X c #B0580C",
"#X c #9C6915",
"$X c #AB6D1E",
"%X c #8F4833",
"&X c #A85830",
"*X c #B75A37",
"=X c #8E6E23",
"-X c #972B42",
";X c #AB2E43",
":X c #B12B40",
">X c #AA3042",
",X c #A83245",
"<X c #B53645",
"1X c #A34244",
"2X c #BA7F46",
"3X c #B56141",
"4X c #C37750",
"5X c #B7962C",
"6X c #C0893F",
"7X c #9F8954",
"8X c #C0804C",
"9X c #DE9E51",
"0X c #C8954A",
"qX c #E9945F",
"wX c #CAA35D",
"eX c #F4A450",
"rX c #DF9163",
"tX c #D08663",
"yX c #E59B6F",
"uX c #CEB266",
"iX c #FFAD69",
"pX c #FFBF63",
"aX c #F6AF76",
"sX c #E9A471",
"dX c #FCCC59",
"fX c #FEE45C",
"gX c #FFE95C",
"hX c #FFE155",
"jX c #FDD469",
"kX c #FFDC6E",
"lX c #FFD57D",
"zX c #F7D576",
"xX c #E0D77B",
"cX c #FFE769",
"vX c #FEE674",
"bX c #D8D482",
"nX c #FFC186",
"mX c #FBEA83",
/* pixels */
"                                                                                                                                ",
"                                                                                                                                ",
"                                                                                                                                ",
"                                                                                                                                ",
"                                                                                                                                ",
"                                                                                                                                ",
"                                                                                                                                ",
"                                                                      .                                                         ",
"                                                                                                                                ",
"                                                                                                                                ",
"                                                                            .                                                   ",
"                                                                            X                                                   ",
"                                                                            X X                                                 ",
"                              .                                             % X                                                 ",
"                              X                                           i $ > >                                               ",
"                              O o                                         > & = 8 k k                                           ",
"                                : o                                       & 9 ' r.r.r.' _ _ w _ M _ _ _ w                       ",
"                              2 + $ p     g                             < + j 9.` w.q.{ ] w...O.O.O.o.o.o.] ` _ [               ",
"                            o.q.3 * > f     y 7 d } @.@.(               $ # : 0 3 q ' _ M o.N X.X.X.o.O.,.,.O.o.M M _           ",
"                        q.j.k.O.q 3 = i z     k b >.8.*.*.=.o.        * O , ; , y 9 s _ ] N N | ........ . .|     6 6           ",
"                        k.h.,...w 3 = - h z   ' 6.K.'.}.P.*.( [     a & < ; ; z l s _ M q.] ] N B ..0.0.0.                      ",
"                      | g. .m O.M q a - > a s ` z.`.|. X}._.<.| s 8 * < O , h   j s { b _ 9.0.B V C e.w.                        ",
"                          ,.,.m | { q 3 = 4 6 t.Q.XX+X{.XX.XT.J 5 3 @ * 8 j   k ' ] w.B w 0.y.u.=.;.<.                          ",
"                            +. .,.k.' q 9 5 S E..XOX{. XXXQ.A.^ B 5 7 q 9.s s 9.r.w.| ..V j.l.z.7.7.<.                          ",
"                              X.x.i.M B T U ~.A.[.[.|.oXW.V.F.~.! B ] 0...| N w.c.y.;.Z n ;.).L._.(.                            ",
"                                Z y.| ..~ %XyX*XS.J.W.Q.S.*XqXrXf.c.y.X.>.<.h.k.;.;.s.s.c J K.K.7.                              ",
"                                  w.+.O.H D.nXaX&XZ.Z.F.@XeXzX9XW d.a.2.3.1.>.;.-.^.^.T.J ;.u.                                  ",
"                                  B $.$.u.^ 8XsXtXW D &XiXlXpX$XW d.Y.4.3.<.l.l.(.K.L.^.;.p.                                    ",
"                                    #.%.6.y.~ f.a.d.d.A.3X4X&XE W E.E.4.-.l.c.x.^.).5.:.j.                                      ",
"                                      #.[ w.e.C i.A ~ ^ R R E E ^ P Y.T.:.,.O. .l.3.                                            ",
"                                      l 0 7 2 2 I M.M.Y b.Q Q 2X4XA.V.).s. .( g.y.                                              ",
"                                          x 0 r m.7XwX=XuX5X5XlXsX~.L T.:.X.|                                                   ",
"                                              u N.bXmXcXfXfXgXkXaX^ ^ a.X.`                                                     ",
"                                                t xXvXcXfXgXhXjX2X^ ^ H ..M                                                     ",
"                                                n.zXjXdXvXjXzXwXv.! H Z 0.V '                                                   ",
"                                              I Y wX0X#X6X#X=XY ~ t.J t.j.0.M                                                   ",
"                                          ..C v v / / U U U / ~ H H F ^.z.,.|                                                   ",
"                                        -.a.d.t.i.C B B y.;.m 2.2.K H.-XK.1.>.                                                  ",
"                                      !..X.X].T.s...q.n m H.W.J..XW.;X,X(.<.,.`                                                 ",
"                                  Y.}.|.|.}.}.'.s.,.b  .-.>X[.oX|.I.:X>X^.3.h.O.N                                               ",
"                                %X!.[.J.>X_.H.-Xz.=. .Z ).}.J.<XW.B..X_.2.G z.s.:.m                                             ",
"                                1XI.[.G.-XK.*.7.(.&.    /.`.G.}.'.B.`.R.G F 2.T.^.3. .6 2                                       ",
"                                  [.U.J.5.s.F 5.).G     H.H.P R.R.L !.H.K   F 5.4.3.g.o.d 8                                     ",
"                                      4.  J   d.).G             L V.!.K          . .O.r.[ 3 :                                   ",
"                                              T.H.:.              J.R.              [ s d 7 + o                                 ",
"                                              2.                  H.4.                  4 @ 1 O X                               ",
"                                                                                                                                ",
"                                                                                                                                ",
"                                                                                                                                ",
"                                                                                                                                ",
"                                                                                                                                ",
"                                                                                                                                ",
"                                                                                                                                ",
"                                                                                                                                ",
"                                                                                                                                ",
"                                                                                                                                "
};