/* XPM */
static char *_b9d4cc70ae74239ca9346f47e765963dum2gnjBRjU09kfP[] = {
/* columns rows colors chars-per-pixel */
"61 64 226 2 ",
"   c None",
".  c #0B1015",
"X  c #332D16",
"o  c #191F23",
"O  c #363536",
"+  c #333331",
"@  c #321E0C",
"#  c #411E14",
"$  c #44261B",
"%  c #4D362F",
"&  c #3D453A",
"*  c #3D412A",
"=  c #454B3C",
"-  c #584137",
";  c #536B3E",
":  c #60493C",
">  c #2E3740",
",  c #374143",
"<  c #4B4B4B",
"1  c #464B48",
"2  c #534D4B",
"3  c #594B47",
"4  c #4B544A",
"5  c #495345",
"6  c #53544B",
"7  c #505A4E",
"8  c #4D5753",
"9  c #555C53",
"0  c #5C5A5B",
"q  c #585756",
"w  c #474B51",
"e  c #655D59",
"r  c #635247",
"t  c #566C44",
"y  c #586E46",
"u  c #576B49",
"i  c #596D4A",
"p  c #5F604E",
"a  c #5A7146",
"s  c #5C724C",
"d  c #577149",
"f  c #5B6C52",
"g  c #5A6758",
"h  c #5D7352",
"j  c #5D715B",
"k  c #62744E",
"l  c #64675A",
"z  c #647455",
"x  c #657A54",
"c  c #65745A",
"v  c #657B5C",
"b  c #687B5E",
"n  c #6A775A",
"m  c #606F4D",
"M  c #595D63",
"N  c #5C6364",
"B  c #5A6467",
"V  c #636464",
"C  c #6D6C66",
"Z  c #6D6D6B",
"A  c #646868",
"S  c #726C69",
"D  c #6A7D65",
"F  c #6B7D6A",
"G  c #687766",
"H  c #71736B",
"J  c #747969",
"K  c #6B7774",
"L  c #7D757E",
"P  c #7C7B7B",
"I  c #767974",
"U  c #877D77",
"Y  c #6C825C",
"T  c #66805E",
"R  c #71855E",
"E  c #6C8368",
"W  c #718562",
"Q  c #758A63",
"!  c #788A68",
"~  c #7D916A",
"^  c #6E8271",
"/  c #7B8B74",
"(  c #7D897A",
")  c #778775",
"_  c #7D9373",
"`  c #7F9679",
"'  c #82956D",
"]  c #85986F",
"[  c #828B7C",
"{  c #848679",
"}  c #83947B",
"|  c #839A7B",
" . c #879677",
".. c #A28477",
"X. c #7A7A84",
"o. c #847A85",
"O. c #7B8588",
"+. c #7F8E89",
"@. c #858385",
"#. c #898A88",
"$. c #839484",
"%. c #8C9D8C",
"&. c #899987",
"*. c #97958B",
"=. c #928C94",
"-. c #968E9B",
";. c #8C9997",
":. c #939493",
">. c #9A959C",
",. c #989A99",
"<. c #888790",
"1. c #A39A96",
"2. c #A99389",
"3. c #93A68C",
"4. c #93A394",
"5. c #9CAC9C",
"6. c #9AA597",
"7. c #9FB19E",
"8. c #9AB294",
"9. c #8FA688",
"0. c #A3A39B",
"q. c #A5A59B",
"w. c #A1B29E",
"e. c #A4BC9E",
"r. c #9A96A2",
"t. c #A49DA6",
"y. c #9AAEA4",
"u. c #9AAEAA",
"i. c #95A9A6",
"p. c #9BB2A7",
"a. c #9FB7B2",
"s. c #A4A3A4",
"d. c #ADAEA4",
"f. c #A2AEAB",
"g. c #ABACAC",
"h. c #A5A6A6",
"j. c #BCABAD",
"k. c #B6AEA8",
"l. c #A1B2A3",
"z. c #A4B3AB",
"x. c #ABB7AA",
"c. c #B2B3AC",
"v. c #B8B4A9",
"b. c #ABAAB1",
"n. c #BAAAB4",
"m. c #BCACBB",
"M. c #B4A9B8",
"N. c #A3B3B4",
"B. c #AAB8B7",
"V. c #BCBCB5",
"C. c #BDBCBB",
"Z. c #B9B4B7",
"A. c #CABF9F",
"S. c #C4B7A7",
"D. c #C2BABB",
"F. c #C4B4B8",
"G. c #ACC3AA",
"H. c #B4C2BC",
"J. c #B6CCBA",
"K. c #BBCDBB",
"L. c #B8C9B6",
"P. c #BCD2BD",
"I. c #B9D0B6",
"U. c #A6C5B3",
"Y. c #D5CBAA",
"T. c #D9D0A7",
"R. c #C6C3BD",
"E. c #C5C0B4",
"W. c #D5CBBA",
"Q. c #C0D3BE",
"!. c #D4CBAB",
"~. c #BDBAC2",
"^. c #BEB3C3",
"/. c #BDACC3",
"(. c #C4B5C5",
"). c #C3BCC5",
"_. c #C6BBCA",
"`. c #CABCC7",
"'. c #C7B5C9",
"]. c #BCCCC4",
"[. c #BDCCCA",
"{. c #B7C6C4",
"}. c #BCD2C3",
"|. c #BCD5C9",
" X c #B6D1C2",
".X c #BDD6D1",
"XX c #C4C2C3",
"oX c #CAC3C5",
"OX c #CCC4CC",
"+X c #CCCBCB",
"@X c #C6C8CA",
"#X c #D5CACC",
"$X c #C1D2C5",
"%X c #C4D3CB",
"&X c #C4D9CD",
"*X c #D4D2CC",
"=X c #DCD3CC",
"-X c #CDC4D2",
";X c #CDCBD2",
":X c #D2C5D4",
">X c #D2CDD4",
",X c #D9CDD5",
"<X c #D3C5DA",
"1X c #D5CBDB",
"2X c #DACEDC",
"3X c #D8C7DB",
"4X c #CADDDA",
"5X c #C7D7D4",
"6X c #D3D3D2",
"7X c #DAD2DD",
"8X c #DAD8D8",
"9X c #E2DAD4",
"0X c #E3D5CE",
"qX c #DEE1D5",
"wX c #E6E6DC",
"eX c #D8CCE2",
"rX c #DDD4E4",
"tX c #E6ECE4",
"yX c #EDEEE4",
"uX c #EAEEEA",
"iX c #F2EFE8",
"pX c #ECF2EB",
"aX c #EBF1E7",
"sX c #F1F1E5",
"dX c #F0F2EB",
"fX c #E9F3F1",
/* pixels */
"                                                                                                                          ",
"                                                                                                                          ",
"                                                                                                                          ",
"                                                                                                                          ",
"                                                                                                                          ",
"                                                                                                                          ",
"                                                            0 q     -                                                     ",
"                                            = 6 l l C H H H Z H C e e r : % $ $ # #                                       ",
"                                l U *.d.v.E.R.oX+X+X6X6X6X6X*X6X5X;X@XXXR.R.v.k.1.U l % $                                 ",
"                          9 *.D.*X9XwXsXyXyXyXsXyXyXiXdXdXdXdXpXuXfXfXfXfXpXpXuXtX8X+XR.1.r                               ",
"                          *.8XtXsXsXsXsXsXsXsXyXsXsXyXyXyXyXyXyXsXpXpXaXtXaXsXsXyXdXtXtX8X*.X                             ",
"                          6 #.c.*X8XwXwXwXyXyXyXyXyXyXyXsXsXsXsXsXsXyXtXtXtXwXwX8XqX*Xc.{ 3 @                             ",
"                          6 q 8 q Z @.:.s.b.D.+X6X6X8X8X8X8X8X9X0X0X*XoXC.c.0.*.{ S q 2 q 3 $                             ",
"                          [ 6.@.A A M q < < < < 6 6 q q q q q q 3 3 6 < < < 2 3 e C H @.1.U %                             ",
"                          l 6.V.c.d.,.:.:.=.@.( H H H C C C Z C S S H I O.#.*.*.0.s.g.C.h.V +                             ",
"                        X = 5 9 I @.6.c.V.V.V.Z.c.c.c.d.d.d.c.c.c.c.x.B.H.H.c.d.6.#.H 0 w 1 + $                           ",
"                        ) 4.) g 4 1 & = 4 q V C H P P P { { P P I J H A g 9 5 & & 1 5 g O.,.O.O                           ",
"                      K J.$XJ.l.%.$.) F C g g 9 9 8 < < 6 6 6 6 4 4 7 9 g g l G ( &.4.x.{.4X{.Z                           ",
"                      f.5X$X%X].$X}.J.L.x.l.5.5.5.4.4.4.%.} } } %.4.4.5.l.l.x.L.K.K.$X$X].5X4Xs.%                         ",
"                    I [.|.}.K.%X].}.P.}.P.P.P.P.K.K.P.L.8. ./  .x.K.P.K.$XQ.K.Q.Q.P.J.}. X X5X[.S                         ",
"                    6.5X&X&X%X%X%X|.|.].}.P.K.J.P.$XP.e.) h s h ` G.Q.I.K.P.I.I.L.P.K.}.&X|..X5X:.                        ",
"                  O z.4X&X].5X@X;X%X%X%X%X%X%X$X$X%X].w.( E W c D 8.I.I.I.I.G.8.8.G.P.J.P. X|.4Xh.%                       ",
"                * 5 N.4X|.].6X;X-X;X;X;X;X;X;X+X;X6X6XH.c.c.d.%.b ` 8.e.e.3._ b b ` e.I.P. X|.4XB.<                       ",
"                = 7 N.5X|.%X6X-X-X<X<X-X-X-X-X-XOXOX;XOXoX>XoXq.v W | 9.| W h i h s | G.J.P.|.&XB.2                       ",
"                V 8 B.&XJ.K.>X_.<XeX3X3X:X:X:X:X:X:X1X:X:X-X-Xs.c x Q _ ! v i y u u T 9.7.G.}.5XB.2                       ",
"                O.8 N. Xl.x.OX<X2X3X(.m.F.`.:X:X1X1X1X2X1X-X-Xs.c d x Y Q W x k x x W | &.3.x.|.B.<                       ",
"                ;.N a.U.9.5._.<X-X(.=.L o.@.<.=.>.r.M.-X1X;X-Xh.c u y z R ~ ! Q Q ! ~ ] _  .3.H.N.2                       ",
"                :.N a.p.` 6.oX-X1XC.@.0 0 0 0 0 0 V <.~.1X;X@Xs.c y y i x ! ' ] ' ] '  .| ` } x.y.q                       ",
"                :.B N.y.) 3.XX`.-XXX>.P P I Z A V V @.Z.>X;X@Xs.c i i u s W ~ ] ] ] ~ ] _ ! ) 7.z.2                       ",
"                #.B a.i.^ } D.OX:X>X~.g.g.h.s.,.>.:.s.).>X;X;Xg.D x h h x Q ~ ' ' ~ Q Y v c F 7.z.< e                     ",
"                H N N.i.^ ( V.OX1X1X^.t.>.>.t.t.b.M.).2X7X:X:Xg.) T b b T W R R Y x x s u i D l.f.q @.                    ",
"                6 N B.i.F ( R.OX<XeX^.r.o.X.o.L L =.m.1X7X-X-Xg.! b b v x z s d a ; t d u f D 7.f.N ;.                    ",
"                  9 N.u.G [ C.-X<XeX1X).b.h.h.h.t.b.(.2XrXOXOXs.c i u i i i i y y y y i i i b 7.f.B ;.                    ",
"                  4 z.p.F [ C._.1XrXeX_.t.=.=.>.b.OX1X1X>XOX+Xh.c i u i i i i y y y y i i i b 7.f.B ;.                    ",
"                  5 z.p.F [ C.OX:X2X1X).r.o.L X.-.).7X7X7X;XOX0.c i u i i i i y y y y i i i b 7.z.N :.                    ",
"                    z.y.G / C.OX>X2X7X2X_.M.b.b.M.-X1X2X7XOXOXs.c y u i i i i y y y y i i i b 7.z.N *.                    ",
"                    l.y.F [ C.oX:X:X,X,X2X2X2X1XeXrX2X2X2XOXOXh.c i u i i i i y y y y i i i b 7.f.l 2.                    ",
"                  p l.y.F [ C.`.OX#X,X,X,X2X2X2X1X2X2X2X1XOXOX0.c i u i i i i y y y y i i f b 7.f.e ..                    ",
"                  g z.y.D ( ~._.F.).oX=X=X#X#X=X7X,X:X:X(.).OX0.c i u i i i i y y y y i i i b l.N.e                       ",
"                  N z.y.F ( ~._.m.m.F.W.W.W.W.=X=X`.(.(.m.m.oXq.c i u i i i i y y y y i i i b l.f.V                       ",
"                  B N.y.F [ ~._.M.m.j.S.!.Y.!.W.W.D.n.m.m.m.oX0.c i u i i i i y y y t i i i b l.N.                        ",
"                  B N.y.F ( C._./.m.j.S.!.T.T.Y.S.S.n.m.m.m.oX0.c i u i i i i y y t t i i i b 7.z.                        ",
"                  M N.p.F / C.oX/.m.j.k.S.T.T.Y.S.k.n.n.n.m.oX0.c i u i i i i y y t t i i i b 7.f.                        ",
"                :.B N.a.F / V.).m.M.j.k.S.!.!.S.k.j.j.m.n.m.oX0.c i u i i i i y y t t i i i b w.z.                        ",
"                :.N N.u.F } V.D.m.m.n.j.S.S.E.S.k.j.n.m.n.m.oXs.c i u i i i i y y t t i i i b w.z.                        ",
"                *.N N.i.F [ V.oXm.m.n.n.j.F.F.j.j.j.j.n.n.m.OXs.c i u i i i i y y t t i i f b w.s.                        ",
"                *.N N.u.^ ) c.oXF.(.F.m.F.(.m.m.n.F.n.n.n.m.-Xs.c y u i i i i y y t y i i f b w.g.                        ",
"                :.A N.u.F G ,.c.R.oX`.`.'.(.m.m.m.m.n.m.n.^.-Xs.c y u y y y y y y t y i i f D l.g.                        ",
"                ,.0 N.H.) j j ^ %.q.c.C.XXoXoXoX`.`.)._.(.-X-Xs.c y u a a ; t a t t s s u f ) L.g.                        ",
"                    ;.$Xy.) j f g c J [ *.q.d.c.Z.C.C.XX~.).).,.c s y t t a t ; t u t u j ) p.].#.                        ",
"                      f.%Xx.$.F c g f c c c n J J { [ }  . .} D i d i t t a t t i h j ^ &.B.[.f.                          ",
"                      w ;.$X$Xx.$.( D j f f f z i m i i z k k i u u i i i u h v F ) %.B.[.[.r.w                           ",
"                      . O K s.{.%X].z.4.$.) F G F D z f h s s h v G G F E ^ +.%.x.H.5X{.i.K > .                           ",
"                            O A ;.u.H.].[.].B.z.4.4.%.&.&.&.| &.%.4.y.l.H.$X%X%XH.N.;.B O o                               ",
"                                  , B +.i.N.B.B.C.{.].[.[.[.].].{.{.{.B.B.f.;.O.M , o                                     ",
"                                        o + 1 M A K O.O.+.+.+.O.X.K A M w O o .                                           ",
"                                                                                                                          ",
"                                                                                                                          ",
"                                                                                                                          ",
"                                                                                                                          ",
"                                                                                                                          ",
"                                                                                                                          ",
"                                                                                                                          ",
"                                                                                                                          "
};
