/* XPM */
static char *d1f9e813b64e47f6a29ad0849b8af6b6TNj38wGhH6EYUHvX[] = {
/* columns rows colors chars-per-pixel */
"43 64 240 2 ",
"   c None",
".  c #030301",
"X  c #060507",
"o  c #141214",
"O  c #10201C",
"+  c #292616",
"@  c #132D28",
"#  c #07352C",
"$  c #173529",
"%  c #1C283A",
"&  c #163C38",
"*  c #063137",
"=  c #31302E",
"-  c #251E10",
";  c #412E1E",
":  c #4F3323",
">  c #07433D",
",  c #274537",
"<  c #304A36",
"1  c #5A4B35",
"2  c #5D583A",
"3  c #4B4B2B",
"4  c #68543A",
"5  c #4C653D",
"6  c #57613D",
"7  c #7F6B3E",
"8  c #013545",
"9  c #023755",
"0  c #17345E",
"q  c #152F4B",
"w  c #2D364E",
"e  c #043663",
"r  c #133E70",
"t  c #303C65",
"y  c #064646",
"u  c #1D4B4E",
"i  c #25474A",
"p  c #375345",
"a  c #245557",
"s  c #364E50",
"d  c #356256",
"f  c #034767",
"g  c #1A4969",
"h  c #02546C",
"j  c #0F516F",
"k  c #165A69",
"l  c #004274",
"z  c #01487A",
"x  c #17487E",
"c  c #0F5C75",
"v  c #255467",
"b  c #2C5272",
"n  c #166475",
"m  c #22626E",
"M  c #2A657C",
"N  c #3A6370",
"B  c #5A5745",
"V  c #455B47",
"C  c #6C5A44",
"Z  c #6E544C",
"A  c #446B4A",
"S  c #536952",
"D  c #79685A",
"F  c #6C7A5E",
"G  c #777455",
"H  c #6D6A4D",
"J  c #535869",
"K  c #476D68",
"L  c #4B716F",
"P  c #5D6471",
"I  c #417179",
"U  c #7D6A66",
"Y  c #7E736E",
"T  c #766E78",
"R  c #6A5D67",
"E  c #837646",
"W  c #876954",
"Q  c #867654",
"!  c #8B6F52",
"~  c #837568",
"^  c #977C65",
"/  c #827470",
"(  c #897778",
")  c #947D7B",
"_  c #8D6B65",
"`  c #5C8164",
"'  c #4C8675",
"]  c #688163",
"[  c #758872",
"{  c #89847E",
"}  c #99877B",
"|  c #A6897A",
" . c #043D83",
".. c #014584",
"X. c #024989",
"o. c #03588A",
"O. c #16528B",
"+. c #035998",
"@. c #19599B",
"#. c #164D88",
"$. c #3B4885",
"%. c #265488",
"&. c #255999",
"*. c #345994",
"=. c #315185",
"-. c #096B8D",
";. c #006C91",
":. c #006599",
">. c #1C7297",
",. c #27688A",
"<. c #36678A",
"1. c #286D94",
"2. c #28749A",
"3. c #3C768D",
"4. c #0059A0",
"5. c #225BA1",
"6. c #1977A1",
"7. c #007AB2",
"8. c #287BA6",
"9. c #387EA8",
"0. c #2D63A6",
"q. c #587589",
"w. c #5B7E93",
"e. c #4A7086",
"r. c #7D6C80",
"t. c #485697",
"y. c #9B7F91",
"u. c #1387B4",
"i. c #3884AC",
"p. c #2989B7",
"a. c #378AB8",
"s. c #2984AF",
"d. c #608395",
"f. c #73A587",
"g. c #7490A4",
"h. c #028ECE",
"j. c #0D8CCC",
"k. c #078BC5",
"l. c #138DCD",
"z. c #1A8DCC",
"x. c #188BC4",
"c. c #0291CC",
"v. c #0090C5",
"b. c #1991C9",
"n. c #018FD2",
"m. c #088ED0",
"M. c #008FD8",
"N. c #178DD3",
"B. c #0091D4",
"V. c #0692D4",
"C. c #1192D3",
"Z. c #2C8DC5",
"A. c #238DC9",
"S. c #278AC8",
"D. c #2790CA",
"F. c #348BCB",
"G. c #8A8582",
"H. c #988788",
"J. c #9D9F9B",
"K. c #8B928D",
"L. c #B28C87",
"P. c #AA948C",
"I. c #B8968D",
"U. c #A79997",
"Y. c #B89896",
"T. c #A88F8E",
"R. c #9AA398",
"E. c #8EAF93",
"W. c #BAA79F",
"Q. c #AAA893",
"!. c #9299AE",
"~. c #A89BB3",
"^. c #A496A6",
"/. c #92A7AF",
"(. c #AAA7A6",
"). c #B4A6A8",
"_. c #A9BAA5",
"`. c #BCBAB9",
"'. c #B3AFB2",
"]. c #C49B93",
"[. c #C29A8C",
"{. c #CCA69C",
"}. c #C6A9A9",
"|. c #D5ADA4",
" X c #DAB4AB",
".X c #C9B8B4",
"XX c #D6B7B5",
"oX c #E5BBB3",
"OX c #E7BCB9",
"+X c #E2B8AE",
"@X c #B6C5B7",
"#X c #A7C0A9",
"$X c #DCC4B9",
"%X c #D1C4B7",
"&X c #EDCABE",
"*X c #EAC4B9",
"=X c #F1CDBC",
"-X c #F2C6B8",
";X c #F4D2BD",
":X c #9DB2C3",
">X c #CEBCCD",
",X c #B8CACB",
"<X c #B7C7D2",
"1X c #CBC4C4",
"2X c #D7CAC6",
"3X c #C8CBD7",
"4X c #DAC6D5",
"5X c #D8D7DA",
"6X c #D0DACD",
"7X c #EACAC7",
"8X c #F4CCC3",
"9X c #FBCBC4",
"0X c #F4CCCB",
"qX c #FDCDCB",
"wX c #F3C7C6",
"eX c #EFD1CB",
"rX c #F4D2CA",
"tX c #FDD2CD",
"yX c #FAD2C7",
"uX c #E9CBD4",
"iX c #E9C8D8",
"pX c #F6CFD2",
"aX c #EBD3DA",
"sX c #F7D3D1",
"dX c #D8E9DB",
"fX c #CEE1D0",
"gX c #E4E2DE",
"hX c #D6DBE6",
"jX c #CCD9E3",
"kX c #E9D3E6",
"lX c #E9D3F0",
"zX c #F5D7E2",
"xX c #DCE7E6",
"cX c #D4E3ED",
"vX c #E7E8E4",
"bX c #EFF8FA",
"nX c #F3FDFD",
"mX c #FEFEFB",
"MX c #F7F8F5",
"NX c #EAF0EE",
/* pixels */
"                                                                                      ",
"                                                                                      ",
"                                                                                      ",
"                            vXK.+                         xXdX                        ",
"                          5XmXvXR.R._.@X#X          E.R.,XnXnX_.                      ",
"                          gXmXmXMXmXMXvXdXdXfXfXxXNXnXnXnXnXnX@X                      ",
"                          vXmXmXMX1X(.U.H.{ / ( H.U.(.1XMXmXnXfX                      ",
"                          vXMXNX(.( H.}..XXXXXXXXX}.T.) U.vXmX6X                      ",
"                          vXmXU.D }.0XsXrXtXqXqXqX0XpX}./ ).MX2X                      ",
"                          gX%XY Y.0X0XqXwXqX9XqXqXqXwX0X}./ 2X2X                      ",
"                          vXJ.H.7X|.| OXyXyX9X9X9XoXL.|.7XT.T.%X                      ",
"                          vXG.U.rXoX].-X{.[.|.{.|.*X]. XrXW.} 2X                      ",
"                          NXJ./ 7XtX8X&XL.W _ W | 8X8XeX7X} W.).                      ",
"                          bX5XY W.&XrX8X&X X X+X*XrXrXsX}./ 2X`.                      ",
"                          NXnX(.~ P.$X7XtXtX9X9XqXtXOXU.Y (.NX@XS                     ",
"                        (.bXnXbX).D ~ Y.XX*XoXOX+XY._ U (.MXnX`.<                     ",
"                      ` [ ,XcXnXnX5X(.G.G./ D U ) H.).5XnXnXcX/.V #X                  ",
"                    f.f., d q.g.:X<X<XjXxXxX5XhX5X3X<X<X/.g.q.i < E.                  ",
"                    E.E.a M ,.j g b N e.w.w.w.d.w.e.b v g n <.v p _.K.                ",
"                  y ` ] m i.a.a.8.2.1.1.1.1.,.,.,.,.1.2.9.a.a.,.i [ V                 ",
"                h 8 , , f s.k.z.D.Z.Z.Z.Z.Z.Z.Z.Z.Z.D.D.A.x.A.-.# < # #               ",
"                ;.h d d h p.c.h.h.h.c.h.h.h.m.C.h.h.m.m.h.h.m.;.> A y k a             ",
"              :.u.h a K h u.c.M.B.B.B.B.M.B.n.h.M.M.n.h.h.h.c.;.> ' h -.n             ",
"              7.u.c u d h s.c.h.B.m.n.h.n.B.M.B.M.n.B.B.h.j.z.;.y a f 6.2.k           ",
"              7.a.3.# & f s.k.c.l.z.l.h.h.n.M.M.M.n.h.k.z.z.x.-.# # j i.9.a           ",
"              o.,.v p p k s.x.v.l.l.l.l.h.h.n.n.n.h.l.l.z.A.S.>.# , u <.b i           ",
"              !.q.s H S m p.b.c.z.z.l.l.h.n.n.n.n.h.N.l.z.A.S.1.p B = P K.{           ",
"            1XkX`.H   S M p.l.B.l.l.l.h.n.n.n.n.n.n.m.j.z.A.A.2., H 1 T.aX$XG         ",
"          ~ XXeX.XG   S m p.j.n.m.h.h.m.n.n.n.n.n.n.m.j.z.z.z.2., G 1 ^ yX*XQ         ",
"          Q  XtX| C   5 k p.m.M.n.h.m.m.m.n.m.h.m.h.m.l.z.l.z.>.$ G 1 W -X=X^         ",
"        Q Q -XtX} 2   5 k p.l.M.n.h.h.h.h.h.l.h.N.j.l.l.z.l.z.6.* ] B D $X=XP.        ",
"        E ! yX8X} 3   A k p.k.M.N.l.n.m.l.l.h.h.m.j.l.l.z.l.z.6.> F B D *XrXI.        ",
"        E ! =X8X| 2   A k a.h.M.N.D.C.M.l.l.c.c.B.n.l.A.l.v.l.8.& F G W oXtXL.        ",
"        E W ;XyX| 4   A k i.D.k.D.S.m.n.z.x.v.h.B.N.S.F.x.x.Z.2.& F H ^ &XqXY.        ",
"        7 ^ oXyXI.4   5 u M 8.p.p.p.x.b.p.p.p.k.z.F.F.F.s.8.>.k @ [ 2 ^ =XwX}.        ",
"          ! *X9X].4   6 @ 9 e z l z o.o.o.o.:.+.4.+.O...r l f 8 &   2 | 8X8XL.        ",
"          C  XqX XZ C B % g #.......X...l r .. .X. . . ...X.z 9 $   3 I.&X&X|         ",
"          : {.pX7XB - = * r *.&.&.O.O.O.%.%.%.&.%.%.%.%.&.0.#.8 # $ = }.rX*X          ",
"            T.aX4XR     0 x @.+.e l l f f 9 9 9 y 8 y 8 f *.x 9 q   w ).zXXX          ",
"            ; / Y       e O.@.X.9 M   I L L K K A A A i g *.=.0         (             ",
"                        9 x 5.x *                     i t t.$.0                       ",
"                        q b *.r O                     < w $.$.q                       ",
"                        % w b q @                     , % t J q                       ",
"                        R ^.~.P                         s !.!.J                       ",
"                        ( 4XkX^.                        P 3XhXK.                      ",
"                        H.uXiXy.                        J 3XhX!.                      ",
"                        U.uXuXH.                          4XlX~.                      ",
"                        U.uXuXH.                          >XlX~.                      ",
"                        ).iXuX)                           >XkX).                      ",
"                          uXuX)                           4XaX).                      ",
"                          $X$X}                           >X4X                        ",
"                          U D C B                         r.T B                       ",
"                          )..X2X).                      5X>X'.U.                      ",
"                        1X>X'.(.{                       ^.~.`.).                      ",
"                        = = o o -                       X o = =                       ",
"                        X X X .                         . X . .                       ",
"                      . X X X .                         . . . . .                     ",
"                    .                                     . . . . .                   ",
"                                                                                      ",
"                                                                                      ",
"                                                                                      ",
"                                                                                      ",
"                                                                                      ",
"                                                                                      "
};
