/* XPM */
static char *_d74e2fa369c4beef5fe7e232bdd7976MEC3rlAJCaIr8Axr[] = {
/* columns rows colors chars-per-pixel */
"64 64 211 2 ",
"   c #020202",
".  c #0B0B0B",
"X  c gray8",
"o  c gray12",
"O  c gray15",
"+  c #373737",
"@  c #137171",
"#  c #484848",
"$  c gray36",
"%  c #507B76",
"&  c #70736D",
"*  c #937F73",
"=  c #56932D",
"-  c #559A2D",
";  c #599D2C",
":  c #47843A",
">  c #4E9131",
",  c #5A9A33",
"<  c #67953D",
"1  c #5AA02C",
"2  c #60A134",
"3  c #35854A",
"4  c #3E9751",
"5  c #278865",
"6  c #3A8078",
"7  c #479E4B",
"8  c #4B9452",
"9  c #579759",
"0  c #699847",
"q  c #748E53",
"w  c #45A151",
"e  c #70A145",
"r  c #7CBB55",
"t  c #52956B",
"y  c #799376",
"u  c #4FA06A",
"i  c #65BA6E",
"p  c #72A276",
"a  c #7CC15B",
"s  c #8F8B74",
"d  c #81B460",
"f  c #A9AA7D",
"g  c #82C45B",
"h  c #83C85C",
"j  c #89CE5C",
"k  c #8DD35F",
"l  c #8EC968",
"z  c #005E9F",
"x  c #1F509D",
"c  c #397485",
"v  c #0E4CAA",
"b  c #044DBA",
"n  c #0058B5",
"m  c #1556B8",
"M  c #2557A3",
"N  c #007BA8",
"B  c #3662A4",
"V  c #546C94",
"C  c #4F75AE",
"Z  c #5678AB",
"A  c #0257C6",
"S  c #0053CE",
"D  c #0956CA",
"F  c #0155D3",
"G  c #0061CF",
"H  c #0061D1",
"J  c #1E68D6",
"K  c #2463C2",
"L  c #3E74C5",
"P  c #2B70D7",
"I  c #2D72D9",
"U  c #148692",
"Y  c #11949D",
"T  c #378090",
"R  c #34A691",
"E  c #1888A2",
"W  c #0995AC",
"Q  c #1496A6",
"!  c #0298BA",
"~  c #1AA1AA",
"^  c #4C9196",
"/  c #7F8995",
"(  c #41AE8A",
")  c #5A9AAA",
"_  c #69A7B6",
"`  c #029CC4",
"'  c #0B9DC1",
"]  c #03A5CB",
"[  c #01A4CC",
"{  c #00A4D1",
"}  c #00AAD4",
"|  c #35ACCA",
" . c #6B92CE",
".. c #53B1C8",
"X. c #56BDD6",
"o. c #64BFD5",
"O. c #52C1DD",
"+. c #8B8B8B",
"@. c #958D88",
"#. c #959392",
"$. c #959492",
"%. c #9B9B9B",
"&. c #A08F84",
"*. c #A59185",
"=. c #A49C96",
"-. c #95AD86",
";. c #9FAE96",
":. c #ADA098",
">. c #BBA495",
",. c #B6A799",
"<. c #B3A59D",
"1. c #8693AF",
"2. c #A79EA5",
"3. c #9BAEA9",
"4. c #A5A4A3",
"5. c #ADA9A9",
"6. c #B6AAA2",
"7. c #B5AEAB",
"8. c #B0BCA6",
"9. c #BCB4AE",
"0. c #B6B5B5",
"q. c #BDB7B4",
"w. c #BCBCBC",
"e. c #C4AB9B",
"r. c #C5AB9B",
"t. c #C6B3A7",
"y. c #CCB3A3",
"u. c #C3B3AC",
"i. c #CDB7A9",
"p. c #CDBBAC",
"a. c #D3B7A6",
"s. c #D5BBAA",
"d. c #DABDAB",
"f. c #C4BCB7",
"g. c #AFCF9B",
"h. c #B2C9A4",
"j. c #B5D1A2",
"k. c #CDC29B",
"l. c #D1C39E",
"z. c #D7C4A8",
"x. c #DDC3AA",
"c. c #C3C3BD",
"v. c #CCC2BC",
"b. c #CCCCBB",
"n. c #D9C2B3",
"m. c #D8C5B9",
"M. c #C5DCB6",
"N. c #E1C3AF",
"B. c #E6C7B4",
"V. c #E7C9B6",
"C. c #E9CAB6",
"Z. c #E4CBBB",
"A. c #ECCDBA",
"S. c #EBD0BF",
"D. c #F3D2BD",
"F. c #C9E7B5",
"G. c #8CAFCB",
"H. c #ABB4C1",
"J. c #A2B9DD",
"K. c #9DBAE5",
"L. c #BED2D7",
"P. c #B4DEE9",
"I. c #BFE5EE",
"U. c #C4C3C3",
"Y. c #CAC6C3",
"T. c #C8C5C9",
"R. c #CBCBCB",
"E. c #D2CAC5",
"W. c #DACCC3",
"Q. c #DBD2CC",
"!. c #D3DECA",
"~. c #C4CDDB",
"^. c #C7D1D5",
"/. c #D4D4D4",
"(. c #D9D6D3",
"). c #D5D7DB",
"_. c #DCDCDB",
"`. c #E4CEC0",
"'. c #E3D4C7",
"]. c #EBD1C1",
"[. c #E2D6CE",
"{. c #F9D6C1",
"}. c #F6D8C5",
"|. c #FEDBC5",
" X c #EDDCD2",
".X c #E3DEDC",
"XX c #D3E1CA",
"oX c #D5E4D4",
"OX c #E6E0DD",
"+X c #EBE1DA",
"@X c #F1E3DA",
"#X c #FCEADE",
"$X c #C2CFE3",
"%X c #C7D4E7",
"&X c #D8DDE5",
"*X c #DEE6E2",
"=X c #E3E3E3",
"-X c #EBE6E4",
";X c #EAE9E7",
":X c #E3E7EB",
">X c #E4E9ED",
",X c #ECECEC",
"<X c #FDEDE3",
"1X c #F1EDEB",
"2X c #F3F0EE",
"3X c #E7EBF0",
"4X c #EBEEF3",
"5X c #ECF0F5",
"6X c #F3F4F3",
"7X c #F7F6F5",
"8X c #FFFFFF",
/* pixels */
"8X8X8X8X8X8X8X8X8X8X8X8X8X8X8X8X8X8X8X8X8X8X8X8X8X8X8X8X8X8X8X8X8X8X8X8X8X8X8X8X8X8X8X8X8X8X8X8X8X8X8X8X8X8X8X8X8X8X8X8X8X8X8X8X",
"8X8X8X8X8X8X8X8X8X8X8X8X8X8X8X8X8X8X8X8X8X8X8X8X8X8X8X8X8X8X8X8X8X8X8X8X8X8X8X8X8X8X8X8X8X8X8X8X8X8X8X8X8X8X8X8X8X8X8X8X8X8X8X8X",
"8X8X8X8X8X8X8X8X8X8X8X8X8X8X8X8X8X8X8X8X8X8X8X8X8X,X_.6X8X8X8X8X8X8X8X8X8X8X8X8X8X8X8X8X8X8X8X8X8X8X8X8X8X8X8X8X8X8X8X8X8X8X8X8X",
"8X8X8X8X8X8X8X8X8X8X8X8X8X8X8X8X8X8X8X8X8X8X8X8X_.U.w.;X8X8X8X8X8X8X8X8X8X8X8X8X8X8X8X8X8X8X8X8X8X8X8X8X8X8X8X8X8X8X8X8X8X8X8X8X",
"8X8X8X8X8X8X8X8X8X8X8X8X8X8X8X8X8X8X8X8X8X8X8X8XU.U.8X,X6X;X_._.;X8X8X8X8X8X8X(.R.8X8X8X8X8X8X8X8X8X8X8X8X8X8X8X8X8X8X8X8X8X8X8X",
"8X8X8X8X8X8X8X8X8X8X8X8X8X8X8X8X8X8X8X8X8X8X8X8X)._.8X,X6X6X;X;X6X6X(.5.R.6XR.(.U.6X8X8X8X8X8X8X8X8X8X8X8X8X8X8X8X8X8X8X8X8X8X8X",
"8X8X8X8X8X8X8X8X8X8X8X8X8X8X8X8X8X8X8X8X8X8X8X8X6X6X8X8X8X8X8X8X8X8X,X_.;X_.U.;XU.6X8X8X8X8X8X8X8X8X8X8X8X8X8X8X8X8X8X8X8X8X8X8X",
"8X8X8X8X8X8X8X8X8X8X8X8X8X8X8X8X8X8X8X8X8X8X8X6X,X8X8X8X8X8X6X0.#.:.=.=.(.,X6X6X5.6X8X8X8X8X8X8X8X8X8X8X8X8X8X8X8X8X8X8X8X8X8X8X",
"8X8X8X8X8X8X8X8X8X8X8X8X8X8X8X8X8X8X8X8X8X8X8X_./.8X8X8X6XY.m.A.B.C.C.V.S.6._.6X%.6X8X8X8X8X8X8X8X8X8X8X8X8X8X8X8X8X8X8X8X8X8X8X",
"8X8X8X8X8X8X8X8X8X8X8X8X8X8X8X8X8X8X8X8X8X8X8XR.0.8X8X8Xc.Z.D.C.|.|.|.|.|.A.:._.$.,X8X8X8X8X8X8X8X8X8X8X8X8X8X8X8X8X8X8X8X8X8X8X",
"8X8X8X8X8X8X8X8X8X8X8X8X8X8X8X8X8X8X8X8X8X8X8XR.0.8X8X8Xm.{.C.* {.|.|.|.|.D.A.(.$.,X8X8X8X8X8X8X8X8X8X8X8X8X8X8X8X8X8X8X8X8X8X8X",
"8X8X8X8X8X8X8X8X8X8X8X8X8X8X8X8X8X8X8X8X8X8X8X(.U.8X8X6X}.|.|.D.|.|.|.|.|.|.|.9.%.6X8X8X8X8X8X8X8X8X8X8X8X8X8X8X8X8X8X8X8X8X8X8X",
"8X8X8X8X8X8X8X8X8X8X8X8X8X8X8X8X8X8X8X8X8X,X6X;X=X8X8X8XZ.{.|.|.|.D.B.D.|.|.D.E.w.6X8X8X8X8X8X8X8X8X8X8X8X8X8X8X8X8X8X8X8X8X8X8X",
"8X8X8X8X8X8X8X8X8X8X8X8X8X8X8X8X8X8X6X!.M.g.h.oX6X8X8X8X9.d.{.|.{.d.>.N.|.D.p.,X=X8X8X8X8X8X8X8X8X8X8X8X8X8X8X8X8X8X8X8X8X8X8X8X",
"8X8X8X8X8X8X8X8X8X8X8X8X8X8X8X8X8X;XM.d j k j g.8X8X8X8X7Xv.y.C.|.|.|.{.s.m.=X6X6X8X8X8X8X8X8X8X8X8X8X8X8X8X8X8X8X8X8X8X8X8X8X8X",
"8X8X8X8X8X8X8X8X8X8X8X8X8X8X8X8X6Xj.l k k k a p L.6X8X8X8X6XY.[. XW.'. Xv.=X8X_.6X8X8X8X8X8X8X8X8X8X8X8X8X8X8X8X8X8X8X8X8X8X8X8X",
"8X8X8X8X8X8X8X8X8X8X8X8X8X8X8X8XXXl k k k k g 9 ^ o.G.^.6X8X8X8X6X=X=X6X8X8X&X$.;X8X8X8X8X8X8X8X8X8X8X8X8X8X8X8X8X8X8X8X8X8X8X8X",
"8X8X8X8X8X8X8X8X8X8X8X8X8X8X8X8XF.j k k k k j h u Q ' | O.X..._ _ _ _ ..X.O...^ :X8X8X8X8X8X8X8X8X8X8X8X8X8X8X8X8X8X8X8X8X8X8X8X",
"8X8X8X8X8X8X8X8X8X8X8X8X8X8X8X8XF.k k k k j r r h R [ } } [ [ ` ' ' ` ] [ } } 6 *X8X8X8X8X8X8X8X8X8X8X8X8X8X8X8X8X8X8X8X8X8X8X8X",
"8X8X8X8X8X8X8X8X8X8X8X8X8X8X8X8Xh.0 r j g 8 ~ ( j u W } } } } } } } } } } } } t -.6X8X8X8X8X8X8X8X8X8X8X8X8X8X8X8X8X8X8X8X8X8X8X",
"8X8X8X8X8X8X8X8X8X8X8X8X8X8X8X8Xj.; 2 e y Q ! @ 0 0 Q } } } } } } } } } } } } i l oX8X8X8X8X8X8X8X8X8X8X8X8X8X8X8X8X8X8X8X8X8X8X",
"8X8X8X8X8X8X8X8X8X8X8X8X8X8X8X8Xj.; 0 l.p.% @ U > : Y } } } } } } } } } } } } i a ^ _.8X8X8X8X8X8X8X8X8X8X8X8X8X8X8X8X8X8X8X8X8X",
"8X8X8X8X8X8X8X8X8X8X8X8X8X8X8X8Xj.q z.x.f : @ 3 - 5 ! } } } } } } } } } } } ] 7 , & Z.,X8X8X8X8X8X8X8X8X8X8X8X8X8X8X8X8X8X8X8X8X",
"8X8X8X8X8X8X8X8X8X8X8X8X8X8X8X8Xb.x.l.q , - - > 3 Y } } } } } } } } } } } } ! 7 0 z.D.m.6X8X8X8X8X8X8X8X8X8X8X8X8X8X8X8X8X8X8X8X",
"8X8X8X8X8X8X8X8X8X8X8X8X8X8X8X8X<Xk.< ; ; > 4 5 W } } } } } } } } } } } } } Y 9 ;.Y.A.A.Q.8X8X8X8X8X8X8X8X8X8X8X8X8X8X8X8X8X8X8X",
"8X8X8X8X8X8X8X8X8X8X8X8X8X8X8X8X[.0 ; 1 1 7 ` } } } } } } } } } } } } } } } U 3.6X6Xf.A.#X8X8X8X8X8X8X8X8X8X8X8X8X8X8X8X8X8X8X8X",
"8X8X8X8X8X8X8X8X8X8X8X8X8X8X8X8X8.= 1 1 1 w [ } } } } } } } } } } } } } } } ) :X8X8X2Xm.#X8X8X8X8X8X8X8X8X8X8X8X8X8X8X8X8X8X8X8X",
"8X8X8X8X8X8X8X8X8X8X8X8X8X8X8X8Xc.q , ; ; w } } } } } } } } } } } } } } } } G.6X8X8X8X+X@X8X8X8X8X8X8X8X8X8X8X8X8X8X8X8X8X8X8X8X",
"8X8X8X8X8X8X8X8X8X8X8X8X8X8X8X8X+X=.-.0 = w } } } } } } } } } } } } } } } } P.8X8X8X8X-XW.8X8X8X8X8X8X8X8X8X8X8X8X8X8X8X8X8X8X8X",
"8X8X8X8X8X8X8X8X8X8X8X8X8X8X8X8X<XC.].,.s t [ } } } } } } } } } } } } } } ` I.8X8X8X8X.X X8X8X8X8X8X8X8X8X8X8X8X8X8X8X8X8X8X8X8X",
"8X8X8X8X8X8X8X8X8X8X8X8X8X8X8X8X7Xi.D.D.B.,.T } } } } } } } } } } } } } } E c.`.n.p.`.}.#X8X8X8X8X8X8X8X8X8X8X8X8X8X8X8X8X8X8X8X",
"8X8X8X8X8X8X8X8X8X8X8X8X8X8X8X8X8X,XOXt.D.V./ z N ` { { { { { { { { { { ` c s.D.A.A.{.Z.Q.8X8X8X8X8X8X8X8X8X8X8X8X8X8X8X8X8X8X8X",
"8X8X8X8X8X8X8X8X8X8X8X8X8X8X8X8X8X8X8X-Xn.<.V A A F G A n n n n n A G H H v 2.t.,.9..X7X6X8X8X8X8X8X8X8X8X8X8X8X8X8X8X8X8X8X8X8X",
"8X8X8X8X8X8X8X8X8X8X8X8X8X8X8X8X8X8X8X8X1X~.m F F F F F S S S S S F F F F S 1.OX2X6X8X8X8X8X8X8X8X8X8X8X8X8X8X8X8X8X8X8X8X8X8X8X",
"8X8X8X8X8X8X8X8X8X8X8X8X8X8X8X8X8X8X8X8X8X4XG.D F F J I I I P P I I I K D F Z :X8X8X8X8X8X8X8X8X8X8X8X8X8X8X8X8X8X8X8X8X8X8X8X8X",
"8X8X8X8X8X8X8X8X8X8X8X8X8X8X8X8X8X8X8X8X8X8X:X .F A K.5X4X3X>X:X>X4X6X~.L F m &X8X8X8X8X8X8X8X8X8X8X8X8X8X8X8X8X8X8X8X8X8X8X8X8X",
"8X8X8X8X8X8X8X8X8X8X8X8X8X8X8X8X8X8X8X8X8X8X8XK.F F G.6X8X8X8X8X8X8X8X8X .S F %X8X8X8X8X8X8X8X8X8X8X8X8X8X8X8X8X8X8X8X8X8X8X8X8X",
"8X8X8X8X8X8X8X8X8X8X8X8X8X8X8X8X8X8X8X8X8X8X8XK.A F C &X8X8X8X8X8X8X8X8X1.m F G.6X8X8X8X8X8X8X8X8X8X8X8X8X8X8X8X8X8X8X8X8X8X8X8X",
"8X8X8X8X8X8X8X8X8X8X8X8X8X8X8X8X8X8X8X8X8X8X8XJ.b F M %X8X8X8X8X8X8X8X8XH.K F Z >X8X8X8X8X8X8X8X8X8X8X8X8X8X8X8X8X8X8X8X8X8X8X8X",
"8X8X8X8X8X8X8X8X8X8X8X8X8X8X8X8X8X8X8X8X8X8X8XJ.b F v $X8X8X8X8X8X8X8X8X).Z M V >X8X8X8X8X8X8X8X8X8X8X8X8X8X8X8X8X8X8X8X8X8X8X8X",
"8X8X8X8X8X8X8X8X8X8X8X8X8X8X8X8X8X8X8X8X8X8X8XJ.b F v $X8X8X8X8X8X8X8X8X8X7.4.@.;X8X8X8X8X8X8X8X8X8X8X8X8X8X8X8X8X8X8X8X8X8X8X8X",
"8X8X8X8X8X8X8X8X8X8X8X8X8X8X8X8X8X8X8X8X8X8X8X~.B x V &X8X8X8X8X8X8X8X8X8X6.N.@.;X8X8X8X8X8X8X8X8X8X8X8X8X8X8X8X8X8X8X8X8X8X8X8X",
"8X8X8X8X8X8X8X8X8X8X8X8X8X8X8X8X8X8X8X8X8X8X8X6XT.u.=.=X8X8X8X8X8X8X8X8X8X#.s.s ;X8X8X8X8X8X8X8X8X8X8X8X8X8X8X8X8X8X8X8X8X8X8X8X",
"8X8X8X8X8X8X8X8X8X8X8X8X8X8X8X8X8X8X8X8X8X8X8X8X[.B.6.=X8X8X8X8X8X8X8X8X8X4.n.*.;X8X8X8X8X8X8X8X8X8X8X8X8X8X8X8X8X8X8X8X8X8X8X8X",
"8X8X8X8X8X8X8X8X8X8X8X8X8X8X8X8X8X8X8X8X8X8X8X8XE.a.<.=X8X8X8X8X8X8X8X8X8Xw.Z.>.1X8X8X8X8X8X8X8X8X8X8X8X8X8X8X8X8X8X8X8X8X8X8X8X",
"8X8X8X8X8X8X8X8X8X8X8X8X8X8X8X8X8X8X8X8X8X8X8X8Xf.r.<..X8X8X8X8X8X8X8X8X8XR.].r.1X8X8X8X8X8X8X8X8X8X8X8X8X8X8X8X8X8X8X8X8X8X8X8X",
"8X8X8X8X8X8X8X8X8X8X8X8X8X8X8X8X8X8X8X8X8X8X8X8Xq.r.<..X8X8X8X8X8X8X8X8X8X/.].y.2X8X8X8X8X8X8X8X8X8X8X8X8X8X8X8X8X8X8X8X8X8X8X8X",
"8X8X8X8X8X8X8X8X8X8X8X8X8X8X8X8X8X8X8X8X8X8X8X8Xq.r.6.=X8X8X8X8X8X8X8X8X8XR.].y.2X8X8X8X8X8X8X8X8X8X8X8X8X8X8X8X8X8X8X8X8X8X8X8X",
"8X8X8X8X8X8X8X8X8X8X8X8X8X8X8X8X8X8X8X8X8X8X8X8Xq.r.u.=X8X8X8X8X8X8X8X8X8Xw.Z.>.1X8X8X8X8X8X8X8X8X8X8X8X8X8X8X8X8X8X8X8X8X8X8X8X",
"8X8X8X8X8X8X8X8X8X8X8X8X8X8X8X8X8X8X8X8X8X8X8X8Xv.y.W.,X8X8X8X8X8X8X8X8X8X4.n.&.;X8X8X8X8X8X8X8X8X8X8X8X8X8X8X8X8X8X8X8X8X8X8X8X",
"8X8X8X8X8X8X8X8X8X8X8X8X8X8X8X8X8X8X8X8X8X8X8X8XQ.x.+X8X8X8X8X8X8X8X8X8X8X=.d.@.;X8X8X8X8X8X8X8X8X8X8X8X8X8X8X8X8X8X8X8X8X8X8X8X",
"8X8X8X8X8X8X8X8X8X8X8X8X8X8X8X8X8X8X8X8X8X8X8X8X@XN.@X8X8X8X8X8X8X8X8X8X8Xp.C.f.6X8X8X8X8X8X8X8X8X8X8X8X8X8X8X8X8X8X8X8X8X8X8X8X",
"8X8X8X8X8X8X8X8X8X8X8X8X8X8X8X8X8X8X8X8X8X8X8X=Xm.>.Q.8X8X8X8X8X8X8X8X;X0.n.A.-X8X8X8X8X8X8X8X8X8X8X8X8X8X8X8X8X8X8X8X8X8X8X8X8X",
"8X8X8X8X8X8X8X8X8X8X8X8X8X8X8X8X8X8X8X8X8X8X6X7.>.t._.8X8X8X8X8X8X8X_.U.=.a.*..X8X8X8X8X8X8X8X8X8X8X8X8X8X8X8X8X8X8X8X8X8X8X8X8X",
"8X8X8X8X8X8X8X8X8X8X8X8X8X8X8X8X8X8X8X8X8X;X0.[.d.6._.8X8X8X8X8X8X8XR.w.0.:.7.4.,X8X8X8X8X8X8X8X8X8X8X8X8X8X8X8X8X8X8X8X8X8X8X8X",
"8X8X8X8X8X8X8X8X8X8X8X8X8X8X8X8X8X8X8X8X8X;X0.(.7.Y.,X8X8X8X8X8X8X8X,Xw.U._._./.6X8X8X8X8X8X8X8X8X8X8X8X8X8X8X8X8X8X8X8X8X8X8X8X",
"8X8X8X8X8X8X8X8X8X8X8X8X8X8X8X8X8X8X8X8X8X6XU.4.w.w.,X8X8X8X8X8X8X8X(.$ O # w.,X8X8X8X8X8X8X8X8X8X8X8X8X8X8X8X8X8X8X8X8X8X8X8X8X",
"8X8X8X8X8X8X8X8X8X8X8X8X8X8X8X8X8X8X8X8X8X8Xw.X # w.8X8X8X8X8X8X8X8Xw.+ .   o %.6X8X8X8X8X8X8X8X8X8X8X8X8X8X8X8X8X8X8X8X8X8X8X8X",
"8X8X8X8X8X8X8X8X8X8X8X8X8X8X8X8X8X8X8X8X8X8X0.    $ w.6X8X8X8X8X8X8X8XU.$ O . O _.8X8X8X8X8X8X8X8X8X8X8X8X8X8X8X8X8X8X8X8X8X8X8X",
"8X8X8X8X8X8X8X8X8X8X8X8X8X8X8X8X8X8X8X8X8X8XR.O     X +.,X8X8X8X8X8X8X8X8Xw.& +.,X8X8X8X8X8X8X8X8X8X8X8X8X8X8X8X8X8X8X8X8X8X8X8X",
"8X8X8X8X8X8X8X8X8X8X8X8X8X8X8X8X8X8X8X8X8X8X8Xw.# X   X R.8X8X8X8X8X8X8X8X8X8X8X8X8X8X8X8X8X8X8X8X8X8X8X8X8X8X8X8X8X8X8X8X8X8X8X",
"8X8X8X8X8X8X8X8X8X8X8X8X8X8X8X8X8X8X8X8X8X8X8X8X=X%.& %.;X8X8X8X8X8X8X8X8X8X8X8X8X8X8X8X8X8X8X8X8X8X8X8X8X8X8X8X8X8X8X8X8X8X8X8X",
"8X8X8X8X8X8X8X8X8X8X8X8X8X8X8X8X8X8X8X8X8X8X8X8X8X8X8X8X8X8X8X8X8X8X8X8X8X8X8X8X8X8X8X8X8X8X8X8X8X8X8X8X8X8X8X8X8X8X8X8X8X8X8X8X",
"8X8X8X8X8X8X8X8X8X8X8X8X8X8X8X8X8X8X8X8X8X8X8X8X8X8X8X8X8X8X8X8X8X8X8X8X8X8X8X8X8X8X8X8X8X8X8X8X8X8X8X8X8X8X8X8X8X8X8X8X8X8X8X8X"
};
