/* XPM */
static char *_93a239f537a4fe7d18f234e0cc25878VHR4N1UFeqjiSNmH[] = {
/* columns rows colors chars-per-pixel */
"43 64 240 2 ",
"   c None",
".  c #010400",
"X  c #070902",
"o  c #0C1101",
"O  c #191900",
"+  c #171812",
"@  c #1C2302",
"#  c #192A08",
"$  c #1A3607",
"%  c #143918",
"&  c #0E2C11",
"*  c #252803",
"=  c #283507",
"-  c #3C3900",
";  c #303414",
":  c #001B29",
">  c #011D35",
",  c #002427",
"<  c #05382B",
"1  c #173A2B",
"2  c #073A37",
"3  c #17383A",
"4  c #10282E",
"5  c #2D2E27",
"6  c #253629",
"7  c #343C32",
"8  c #2C3A33",
"9  c #423C17",
"0  c #43320F",
"q  c #463C29",
"w  c #364908",
"e  c #375419",
"r  c #344B17",
"t  c #31611C",
"y  c #124533",
"u  c #2E4528",
"i  c #374625",
"p  c #264335",
"a  c #225B38",
"s  c #35512F",
"d  c #3A6524",
"f  c #3E732A",
"g  c #3E782D",
"h  c #346B37",
"j  c #48531D",
"k  c #4C5113",
"l  c #65551F",
"z  c #4B4726",
"x  c #554B2C",
"c  c #5A4A27",
"v  c #585828",
"b  c #5A4C37",
"n  c #465439",
"m  c #5C5A36",
"M  c #4C4B35",
"N  c #655828",
"B  c #695A39",
"V  c #634B3B",
"C  c #466928",
"Z  c #48732D",
"A  c #586337",
"S  c #487835",
"D  c #4D7036",
"F  c #696737",
"G  c #716631",
"H  c #77763B",
"J  c #74732F",
"K  c #072D45",
"L  c #14384A",
"P  c #1B3B56",
"I  c #053650",
"U  c #263C58",
"Y  c #2C3845",
"T  c #143B63",
"R  c #243E62",
"E  c #054852",
"W  c #1F5455",
"Q  c #12424C",
"!  c #284958",
"~  c #30485A",
"^  c #2F504C",
"/  c #3C6D4F",
"(  c #09546F",
")  c #2A4566",
"_  c #365863",
"`  c #2A4978",
"'  c #2B5378",
"]  c #32527A",
"[  c #304D6A",
"{  c #306475",
"}  c #555B46",
"|  c #515252",
" . c #685A45",
".. c #675C51",
"X. c #5B6B49",
"o. c #597848",
"O. c #5A6953",
"+. c #567B51",
"@. c #407E4A",
"#. c #6A6745",
"$. c #7A6648",
"%. c #737B45",
"&. c #75794A",
"*. c #677557",
"=. c #6E7151",
"-. c #4D5469",
";. c #635D65",
":. c #527267",
">. c #6D7B63",
",. c #79796B",
"<. c #757473",
"1. c #846A46",
"2. c #837542",
"3. c #856D56",
"4. c #897957",
"5. c #817376",
"6. c #9C7C6B",
"7. c #54843C",
"8. c #4E923F",
"9. c #51A238",
"0. c #4FA136",
"q. c #478349",
"w. c #5D8646",
"e. c #4C9D42",
"r. c #449F43",
"t. c #55964A",
"y. c #5C944C",
"u. c #549D4A",
"i. c #5A9D4C",
"p. c #549946",
"a. c #4A8A54",
"s. c #4E9157",
"d. c #559D52",
"f. c #579655",
"g. c #508A57",
"h. c #688B4C",
"j. c #6B835B",
"k. c #748255",
"l. c #709355",
"z. c #4DA243",
"x. c #49A548",
"c. c #52A244",
"v. c #55A24A",
"b. c #5AA44D",
"n. c #5BA256",
"m. c #738963",
"M. c #7C9568",
"N. c #7B8575",
"B. c #6F896C",
"V. c #8D8266",
"C. c #9A8776",
"Z. c #868E6F",
"A. c #A78B75",
"S. c #B5927B",
"D. c #AE8F7D",
"F. c #89A774",
"G. c #8CAD77",
"H. c #1C4B87",
"J. c #2A538C",
"K. c #2B5697",
"L. c #355998",
"P. c #2F5087",
"I. c #126B8D",
"U. c #3C7C9E",
"Y. c #33708F",
"T. c #0676A2",
"R. c #307BA6",
"E. c #425A8E",
"W. c #42738A",
"Q. c #827F84",
"!. c #1E86B9",
"~. c #0080B0",
"^. c #2A8AB6",
"/. c #4387AD",
"(. c #3291C7",
"). c #1A94CD",
"_. c #989788",
"`. c #8F8E8A",
"'. c #B79985",
"]. c #AB978D",
"[. c #9CBB85",
"{. c #8FA98B",
"}. c #A5A39B",
"|. c #B6A283",
" X c #BFAEA7",
".X c #B4B2AC",
"XX c #C6A99B",
"oX c #CAB597",
"OX c #D1A794",
"+X c #DCBEAE",
"@X c #DABAA5",
"#X c #C8B9B5",
"$X c #CEB3B3",
"%X c #E1BFA9",
"&X c #E3BEB5",
"*X c #9DC394",
"=X c #A5CA8B",
"-X c #A6CB88",
";X c #AAD487",
":X c #ABD48C",
">X c #ADD98C",
",X c #A7D386",
"<X c #ACCE93",
"1X c #A9C696",
"2X c #B3CC99",
"3X c #AED392",
"4X c #AFD892",
"5X c #B1D594",
"6X c #B2DA96",
"7X c #B3D89C",
"8X c #B7D4A2",
"9X c #AFC5A6",
"0X c #DCC2B5",
"qX c #DFCEB1",
"wX c #CECAB4",
"eX c #E3C3B4",
"rX c #E8C8BB",
"tX c #F1CFBF",
"yX c #C4B2C1",
"uX c #D9D8CD",
"iX c #D4D2C6",
"pX c #DCDBD3",
"aX c #CDCFC6",
"sX c #F5CDC3",
"dX c #FBCDC7",
"fX c #ECD1C3",
"gX c #EED7CC",
"hX c #F4D2C3",
"jX c #F4D2CC",
"kX c #F9D6C8",
"lX c #F4D2CB",
"zX c #E7E9DD",
"xX c #F2F1DA",
"cX c #E8DEE3",
"vX c #E9E9E3",
"bX c #F6F4EC",
"nX c #FCFBF5",
"mX c #FFFEFE",
"MX c #F6F5F1",
"NX c #EFF0EA",
/* pixels */
"                                                                                      ",
"                                                                                      ",
"                                                                                      ",
"                                                                                      ",
"                            xX                            wXxX                        ",
"                          wXnXbX                        }.bXnX                        ",
"                          uXnXmXnXbXnXnXnXnXbXnXmXnXMXnXnXmXmXiX                      ",
"                          uXmXmXnXmXmXnXmXmXmXmXmXmXmXmXmXmXmXiX#.                    ",
"                          uXmXmXmXmXmXmXmXmXmXmXmXmXmXmXmXmXmXuX#.                    ",
"                          pXmXmXmXmXmXmXmXmXmXmXmXmXmXmXmXmXmXuX#.                    ",
"                          pXmXmXmXmXmXmXmXmXmXmXmXmXmXmXmXmXmXuX#.                    ",
"                          pXmXmXmXmXmXmXmXmXmXmXmXmXmXmXmXmXmXuX#.                    ",
"                          pXmXmXmXmXmXmXmXmXmXmXmXmXmXmXmXmXmXuX                      ",
"                          zXmXmXmXmXmXmXmXmXmXmXmXmXmXmXmXmXmXuX                      ",
"                        =.vXmXmXmXmXmXmXmXmXmXmXmXmXmXmXmXmXmXuX                      ",
"                        X.zXmXmXmXmXmXmXmXmXmXmXmXmXmXmXmXmXmXuX                      ",
"                      A   aXmXmXmXmXnXNXzXvXvXzXvXNXnXmXnXmXmX.X                      ",
"                    k.{.B.N.vXnXvXwX_.N.>.*.*.>.>.N.}.aXNXmXpX<.j.[.                  ",
"                    X.9X{.s O.N.>.X.X.j.M.Z.M.M.Z.m.*.O.>.>.} n [.1X                  ",
"                    p {.*XD # i m.G.1X8X8X2X2X7X<X8X1XG.m.u O *.2XM.                  ",
"                  _ ! :.*XD s F.<X3X5X3X3X6X4X:X6X3X3X7X<Xm.s h.1XX.^                 ",
"                W /.Y.W +.C M.7X:X:X>X:X,X,X;X>X,X,X4X6X3X=Xl.C +.^ W.Y.              ",
"              W T.!.R.E % h.5X=X>X;X;X>X>X>X;X,X>X;X;X,X:X6X=Xo.% W ^.R.              ",
"              E ~.).R.> s [.5X6X:X>X>X;X;X;X;X;X;X;X;X>X4X:X6XG.p E !.(.I.            ",
"            s { ^.!.( , j.2X<X3X3X5X:X-X5X:X-X-X:X>X3X3X3X3X3X1X/ I T.(.U.            ",
"            7 _ U.Y.E p M.2X8X3X5X5X:X5X6Xl.Z F.5X5X3X<X5X5X5X1XB., ( /.Y.            ",
"            q ;._ Q 1 u o.M.G.=X=X<X3X=X=Xh.e h.=X<X3X3X=X[.F.M.+.& 2 ) -.|           ",
"          N 6.$X}.| u = e d e d S 7.h.w.w.7.Z S w.w.w.7.S d t e r # 6 <.yX$X          ",
"          N S.dX0X .  w S y.7.q.S g f Z f f S f f f Z g g 7.8.y.o.r i   jXeX          ",
"          G OXkXXXB   w 7.t.d.u.i.i.p.i.i.t.y.y.y.t.t.i.i.v.u.i.h.j     tXsX          ",
"          $.@XjX].V   e 7.v.x.x.e.b.c.p.b.i.p.i.b.v.u.c.v.c.c.v.w.e     rXrX          ",
"          4.+XjX].b   e f v.r.x.z.z.c.z.e.c.c.c.c.c.c.z.z.e.z.b.S e   #.+XhX          ",
"        2.1.%XhXC.x   C e y.i.9.c.9.c.v.v.c.0.9.v.u.c.c.c.v.d.f.e A   B +XsX'.        ",
"          1.@XkXD.x   D $ h f.n.c.c.u.u.u.c.0.0.v.n.u.e.u.n.a.h $ =.   .+XhXS.        ",
"          1.%XhXA.x   X.% y ^ a.t.u.n.n.d.v.c.c.d.d.n.d.f.@.a % = &.  B @XtXS.        ",
"          1.@XkX'.b   #.p 3 2 y a h q.g.g.a.s.s.s.a.q./ a < < 1 $ &.B $.eXtXA.        ",
"          1.XXkXXXV   =.6 3 K > : , < 3 3 2 < < y < < , : > K 3 #    .3.rXrX6.        ",
"          N XXfXXXc     4 ! ' ' ` R P P P P L L L L Q P ` P.` U 5   ; V.fXrX3.        ",
"          9 '.fXeXc -   4 U J.J.P.' [ [ ] ] ] ] ] ' ' ' J.K.H.I 6   * C.gX0XB 0       ",
"          v 4.qXoXc G   ^ ) J.J.T ! ! ^ ~ ~ ~ ~ ~ ~ ! T H.K.H.I O.  z V.qXoXc         ",
"            v F B B     ^ ) L.J.L :.j.j.k.k.k.k.%.k.>.^ R L.J.P *.  H N N             ",
"              H 2.      8 ) L.` 8                     n U E.P.L X.    H               ",
"                        6 U ] U 6                     } Y [ ) 3 A                     ",
"                        5 | -.Y ;                     m 5 | -.7 v                     ",
"                      J m }.#X_.z                     G  . X#XV.v                     ",
"                      J $.0XgX'.c                       $.rXkXA.N                     ",
"                      J 4.eXsX'.c                       $.eXsX'.N                     ",
"                        3.eXdXS.N                         &XsX'.                      ",
"                        1.eXkX'.N                         0XkX'.                      ",
"                        4.eXhXXXc                         fXfX|.                      ",
"                        3.0XjXXXz                         gXfX                        ",
"                         . X$X].z                       ..$X$XC.                      ",
"                      v q ..<.,.b v                   m ..5.5.} x                     ",
"                      m ].pXcXuX_.m                 N #.#XvXcXaX#.                    ",
"                      M ,.`.<...M z                 F q } <.Q.`.#.F                   ",
"                      } 5 + . . o m                 %.; . . X + z &.                  ",
"                    j = o . . . o v                 %.= . X . . O 9 v                 ",
"                  - o . . . . . o v                 H = . . . X X X O                 ",
"                  k * @ * @ @ @ w F                   j * * @ * * * =                 ",
"                        &.&.&.&.                        &.&.%.%.H %.                  ",
"                                                                                      ",
"                                                                                      ",
"                                                                                      ",
"                                                                                      "
};
