/* XPM */
static char *ee88bec3f6454195eb21a64a36761e81hxXgNN8Jh5GvEFFu[] = {
/* columns rows colors chars-per-pixel */
"43 64 250 2 ",
"   c None",
".  c #010201",
"X  c #020A02",
"o  c #0E0B00",
"O  c #090A0B",
"+  c #0A150A",
"@  c #171406",
"#  c #0A1012",
"$  c #200F00",
"%  c #1D211A",
"&  c #1A2508",
"*  c #252317",
"=  c #222006",
"-  c #111D28",
";  c #001B3C",
":  c #000620",
">  c #002838",
",  c #00353C",
"<  c #133136",
"1  c #0D2F30",
"2  c #232A24",
"3  c #2B302D",
"4  c #432A1D",
"5  c #37471A",
"6  c #2C4B08",
"7  c #0F4A36",
"8  c #385625",
"9  c #394536",
"0  c #2D5836",
"q  c #3C662F",
"w  c #445519",
"e  c #495939",
"r  c #4C4C32",
"t  c #557232",
"y  c #6F7A3F",
"u  c #00174C",
"i  c #032C44",
"p  c #03384C",
"a  c #012957",
"s  c #00385E",
"d  c #18384F",
"f  c #2D3A4F",
"g  c #001D62",
"h  c #013567",
"j  c #013B73",
"k  c #003A78",
"l  c #002F6C",
"z  c #034445",
"x  c #004A58",
"c  c #125252",
"v  c #254A46",
"b  c #28535A",
"n  c #335053",
"m  c #00685E",
"M  c #024265",
"N  c #004669",
"B  c #055A6D",
"V  c #195167",
"C  c #01427A",
"Z  c #004876",
"A  c #0A5474",
"S  c #1B5676",
"D  c #17476C",
"F  c #284B7B",
"G  c #33587A",
"H  c #2A4E6C",
"J  c #196377",
"K  c #006C67",
"L  c #286A66",
"P  c #346B73",
"I  c #3B6850",
"U  c #454B42",
"Y  c #475349",
"T  c #585741",
"R  c #685052",
"E  c #576446",
"W  c #5B7648",
"Q  c #496655",
"!  c #546B58",
"~  c #457C4F",
"^  c #6A7445",
"/  c #757649",
"(  c #6A675B",
")  c #7A6B5D",
"_  c #67785C",
"`  c #7A6C57",
"'  c #735E62",
"]  c #456C7B",
"[  c #7A6A6A",
"{  c #677C62",
"}  c #767B69",
"|  c #727577",
" . c #906C52",
".. c #A47E5F",
"X. c #9C6460",
"o. c #867869",
"O. c #897573",
"+. c #8D756E",
"@. c #A6726B",
"#. c #BC7C75",
"$. c #8E5458",
"%. c #57894E",
"&. c #738856",
"*. c #5B8667",
"=. c #678664",
"-. c #7A8566",
";. c #6B9674",
":. c #888974",
">. c #91877A",
",. c #809577",
"<. c #908C70",
"1. c #AF8B78",
"2. c #93B778",
"3. c #003E83",
"4. c #025787",
"5. c #155888",
"6. c #015A98",
"7. c #145597",
"8. c #164B88",
"9. c #255998",
"0. c #295187",
"q. c #036486",
"w. c #1C6689",
"e. c #106B97",
"r. c #216D8B",
"t. c #276A98",
"y. c #297796",
"u. c #36799A",
"i. c #2D6D90",
"p. c #1A57A3",
"a. c #2655A6",
"s. c #0E6EA5",
"d. c #2A79A6",
"f. c #3679AA",
"g. c #2E7DB5",
"h. c #51748E",
"j. c #687393",
"k. c #807992",
"l. c #158BB9",
"z. c #158EB7",
"x. c #2A88B8",
"c. c #3787B9",
"v. c #2D89AF",
"b. c #598187",
"n. c #7CB78F",
"m. c #4887B7",
"M. c #688A91",
"N. c #008CC4",
"B. c #018ECC",
"V. c #0E8EC9",
"C. c #138CCC",
"Z. c #1A8DCC",
"A. c #198CC6",
"S. c #0092C4",
"D. c #0191CB",
"F. c #018ED3",
"G. c #008EDA",
"H. c #0A8DD7",
"J. c #158CD4",
"K. c #1A8CD5",
"L. c #1A8BD9",
"P. c #0191D4",
"I. c #0191D9",
"U. c #0893D5",
"Y. c #1C91CF",
"T. c #248CC9",
"R. c #288BC5",
"E. c #338BC5",
"W. c #328BCB",
"Q. c #3887C4",
"!. c #238BD3",
"~. c #288BDC",
"^. c #2D8FD5",
"/. c #148FE0",
"(. c #8B8883",
"). c #978985",
"_. c #999188",
"`. c #928E92",
"'. c #A49386",
"]. c #B8978B",
"[. c #A69997",
"{. c #B29996",
"}. c #A38C8A",
"|. c #98B88B",
" X c #94B991",
".X c #B7A69A",
"XX c #ACB983",
"oX c #B59CA8",
"OX c #8AA9AA",
"+X c #ABA8A3",
"@X c #B8ACA7",
"#X c #B9B4B3",
"$X c #ADB0B1",
"%X c #8D9EA5",
"&X c #C89C90",
"*X c #C9A699",
"=X c #D7A49A",
"-X c #D2B09E",
";X c #D9AFA9",
":X c #C9B3A9",
">X c #D6B7A9",
",X c #C7B9B5",
"<X c #D7BBB7",
"1X c #C8AAAC",
"2X c #E1B9AD",
"3X c #E8B8B1",
"4X c #98CA96",
"5X c #A7CC9B",
"6X c #ABD794",
"7X c #B6D498",
"8X c #ADCB8E",
"9X c #AACEAF",
"0X c #D9C4B8",
"qX c #E8C6B9",
"wX c #F8C7BA",
"eX c #F8CDB5",
"rX c #DDEBBD",
"tX c #A5BCC4",
"yX c #E4B7C0",
"uX c #B7C6C9",
"iX c #BFDBC3",
"pX c #CAC9C7",
"aX c #D9CDC7",
"sX c #D6D6CC",
"dX c #D8DBD7",
"fX c #C9CEDA",
"gX c #E8CAC6",
"hX c #F2CDC2",
"jX c #F2CDCA",
"kX c #F7CAC8",
"lX c #EBD6CA",
"zX c #F4D3CC",
"xX c #FBD3CC",
"cX c #F7D4C6",
"vX c #FAD5D5",
"bX c #E5CEDE",
"nX c #DBEDDA",
"mX c #E8F1D7",
"MX c #D4DCEA",
"NX c #DBF1E9",
"BX c #E4E7E7",
"VX c #EDF3EB",
"CX c #E5F9E8",
"ZX c #F8F7EC",
"AX c #EAFCF7",
"SX c #F6FBF4",
"DX c #F4FDFB",
"FX c #FEFDFD",
"GX c #FAF8F7",
"HX c #F1EBEF",
/* pixels */
"                                                                                      ",
"                                                                                      ",
"                                                                                      ",
"                            @                             rXmX                        ",
"                            ZXZX                        iXCXSXmXt                     ",
"                          U FXFXVXdXBXsX0XaXaXdXCXnXCXNXAXAXDXnX&.                    ",
"                          #XFXGXpX+X[.).+.+.).[.+XsXDXDXDXDXFXVX=.W                   ",
"                          $XHX[.O.}.@X<X<X<X<X.X)._.sXSXFXSXFXVX_ &.                  ",
"                          +X(.' 1XjXvXjXjXzXjXzXgX{.).aXGXFXFXVX} ^                   ",
"                          { ( {.jXvXkXjXxXzXvXjXzXgX}.O.HXFXFXSX:./                   ",
"                          E o..X].hXcXxXxXcXhX].&XzX<X) ,XFXFXVX-.^                   ",
"                          E >..X].2X;X>X>X*X>X*X*XjXqXo.,XFXSXZX-.^                   ",
"                            } gXhX2X@.X.X.@.=XxXxXvX>X+.aXGXFXZX-.5 e                 ",
"                            ( :XgXxX2X&X=X;XhXkXjXgXO.).HXFXFXZX:.W =.0               ",
"                          nX_.O.:XgXzXxXxXxXvXjXgX}.[ pXFXSXdXpX_ -.4Xn.              ",
"                          AXdX`.( >..X<X<X<X<X{.O.(.sXDXCX$X} } { ;.4X9Xn.            ",
"                          OXNXSX#X(.( ( [ [ O.>.@XHXFXAX;._ ,.|. X5X6X6X4X|.t         ",
"                          c M.OXtXuXuXuXfXMXBXBXDXAXMX%XQ |.|.=.I *.2.6X6X7X<.w       ",
"                        m x A A S G P ] h.h.b.b.h.h.h.b *.5X{ v J L ~ 4X7X8XXXy       ",
"                      K B B v.c.f.t.w.r.t.t.r.r.i.f.i.V ;. XQ ] m.v.L ;.5X7X8X&.t     ",
"                    z B A S Q.T.W.W.x.x.T.T.l.l.T.W.g.w.P n.Q b c.W.y.L  X8X2.t w     ",
"                    q.A s 5.R.!.C.Z.A.D.I.I.P.P.F.C.W.t., v v > s.R.x.J b q q 6 6     ",
"                    s.q.a 4.R.Z.^.C.N.B.G.G.G.I.I.N.T.v.N , 7 z M d.E.d.z 7 %.t 5     ",
"                  6.z.x.Z 4.R.A.C.C.U.U.G.G.G.P.B.D.A.E.d.N c c p w.Q.c.J 7 *.%.8 /   ",
"                  q.l.v.M A c.T.Z.K.K.C.F.F.B.D.S.S.V.R.Q.d.J x , p f.m.P 7 ~ %.8     ",
"                  G S A i S x.Z.K.K.Z.Z.Z.C.V.D.S.S.V.Z.T.W.x.u.V , F G n 1 q W 8     ",
"                  oXk.f - H x.K.J.J.Z.C.Z.Z.C.V.B.B.B.B.B.D.Z.W.u.> d | `.( 8 8 8     ",
"                ].vX<XR 3 H x.F.F.F.V.A.Z.Z.Z.C.F.P.I.P.D.B.F.Z.t.> n @XlX'.5 5 t     ",
"                *XzX:XR 9 x N.I.F.B.S.V.Z.K.L.H.G.I.I.P.D.D.P.Y.d.p U .XxX>Xr w       ",
"                0XlX].r 0 x A.I.P.B.D.D.C.K.L.H.F.F.F.P.P.F.D.A.y.p r 1.qX2X` /       ",
"                qXzX'.T e b c.L.F.B.B.B.C.J.J.J.D.D.D.U./.L.C.x.y., 2 o.lXhX+. .      ",
"                wXhX<.E E n f.^.K.F.J.F.B.B.H.J.D.S.B.J.~.!.Z.x.y.d 9 ` qXqX1. .      ",
"                wXhX<.E ! b g.~.K.K.L.K.D.D.U.B.D.D.F.J.W.W.N.z.y.b Y ) qXwX1.        ",
"              #.wXqX:.E ! b c.A.T.!.!.!.D.N.Z.T.Y.B.I.L.Q.Q.Y.l.u.b Y ) qXwX&X        ",
"              @.wXeXo.e ! v u.x.v.x.x.R.R.x.c.c.E.A.V.C.x.f.d.t.S < Y ) qXwX=X        ",
"              X.wXeXo.9   1 s M Z 4.4.6.6.4.5.5.6.6.6.4.Z Z h h i < U ) qXwX          ",
"              $.kXjX_.9   1 M Z C C k k C C C k 3.3.j M Z 4.8.F < 2 r o.wXwX          ",
"            4 R 3XvX[.2   # h t.p.7.9.0.0.5.4.6.6.6.q.q.7.9.8.a - % * +.cXwX          ",
"                1XbX+Xn   > h a.p.l a D S q.4.4.j j s N 6.p.l ;     =   eXeX          ",
"                  |   !     j a.p.j                 s h p.7.a i         ..            ",
"                            h a.7.                    k p.9.u <                       ",
"                            d 0.D                     g 0.F ;                         ",
"                            f n d                     u H f :                         ",
"                            (.[.|                     j.$X`.#                         ",
"                            <XzX.X                    @XlX0X*                         ",
"                            qXcX'.                    >XeX-X$                         ",
"                            gXzX[.                    :XzX;X                          ",
"                            gXzXoX                    >XjX;X                          ",
"                            gXzXoX                    >XzX>X                          ",
"                            0XlX.X                    :XzX:X                          ",
"                            <XgX@X                    :XlX>X                          ",
"                            O.>.[ 9                   o.O.o.                          ",
"                            +X@X#X).                  [.#X,X[.                        ",
"                            $X#X+Xo.                  #X#X+X(.                        ",
"                            % % O @                 3 3 2 @ .                         ",
"                          # X . . o                 * . . . .                         ",
"                          . . X X .               o . O O . .                         ",
"                        & & + X X @             o o @ . O + +                         ",
"                                                        r                             ",
"                                                                                      ",
"                                                                                      ",
"                                                                                      ",
"                                                                                      ",
"                                                                                      "
};
