/* XPM */
static char *_e4d189ed7a7480fa1e541b2fcc19af0A8fG7s8wonpbABei[] = {
/* columns rows colors chars-per-pixel */
"43 64 242 2 ",
"   c None",
".  c #010302",
"X  c #040A01",
"o  c #0B0B07",
"O  c #141707",
"+  c #131412",
"@  c #2B1D0B",
"#  c #132511",
"$  c #272B08",
"%  c #362704",
"&  c #252614",
"*  c #3D340A",
"=  c #001E35",
"-  c #201D20",
";  c #172739",
":  c #013937",
">  c #163638",
",  c #032E31",
"<  c #383639",
"1  c #29312C",
"2  c #563D17",
"3  c #2C4818",
"4  c #2F4D10",
"5  c #0D4B32",
"6  c #3A553B",
"7  c #2D4738",
"8  c #38612E",
"9  c #5C411B",
"0  c #494838",
"q  c #4A5737",
"w  c #505937",
"e  c #504A2A",
"r  c #6B5C3C",
"t  c #467739",
"y  c #4C6D3A",
"u  c #002944",
"i  c #073646",
"p  c #153547",
"a  c #033B58",
"s  c #193A5B",
"d  c #122B54",
"f  c #2A3B4B",
"g  c #043A68",
"h  c #163A6A",
"j  c #063D75",
"k  c #2B3C76",
"l  c #283B69",
"z  c #044547",
"x  c #1C5649",
"c  c #164855",
"v  c #0A5056",
"b  c #284544",
"n  c #3A4C48",
"m  c #38534C",
"M  c #295656",
"N  c #2C4C5A",
"B  c #00436E",
"V  c #134768",
"C  c #08586A",
"Z  c #004672",
"A  c #07597C",
"S  c #185C77",
"D  c #174E6D",
"F  c #255667",
"G  c #274B7B",
"H  c #285877",
"J  c #2E4866",
"K  c #006B7E",
"L  c #1A6574",
"P  c #336571",
"I  c #31694E",
"U  c #475B52",
"Y  c #5B5454",
"T  c #51504F",
"R  c #6C5751",
"E  c #56774C",
"W  c #496458",
"Q  c #506C4D",
"!  c #686A4A",
"~  c #766954",
"^  c #71694D",
"/  c #4F5A72",
"(  c #6C5E67",
")  c #577964",
"_  c #5E697A",
"`  c #6A6467",
"'  c #7A6662",
"]  c #6F7169",
"[  c #876C57",
"{  c #8C654F",
"}  c #88746A",
"|  c #97766C",
" . c #877775",
".. c #967A75",
"X. c #8C6B66",
"o. c #A87C76",
"O. c #518C50",
"+. c #5A856C",
"@. c #718568",
"#. c #77A673",
"$. c #6B905D",
"%. c #85847A",
"&. c #9B8479",
"*. c #A48679",
"=. c #B3957E",
"-. c #8DA675",
";. c #0B5D88",
":. c #1B5789",
">. c #1A528B",
",. c #23528A",
"<. c #28568A",
"1. c #2A5794",
"2. c #385697",
"3. c #325088",
"4. c #026988",
"5. c #086697",
"6. c #186997",
"7. c #196B8E",
"8. c #266989",
"9. c #357091",
"0. c #1D67A2",
"q. c #0065A0",
"w. c #2F76A8",
"e. c #3C55A0",
"r. c #4A6B8A",
"t. c #697584",
"y. c #9A7D84",
"u. c #0B8AB6",
"i. c #3283A7",
"p. c #288ABB",
"a. c #3688B9",
"s. c #2A8AB5",
"d. c #6F8A91",
"f. c #4888B7",
"g. c #5181AA",
"h. c #7993A3",
"j. c #018DC7",
"k. c #008ECD",
"l. c #0D8DCA",
"z. c #0F89CB",
"x. c #1C8CC5",
"c. c #148DCE",
"v. c #1B8ECE",
"b. c #168BC3",
"n. c #0091CD",
"m. c #0B90C5",
"M. c #018ED4",
"N. c #068DD7",
"B. c #158DD4",
"V. c #1B8CD3",
"C. c #198CD9",
"Z. c #0091D4",
"A. c #0C90D3",
"S. c #1791D0",
"D. c #228CC5",
"F. c #238CCC",
"G. c #2D8ACB",
"H. c #2A88C5",
"J. c #3489C7",
"K. c #2C91C4",
"L. c #2591CA",
"P. c #248CD5",
"I. c #268CD8",
"U. c #2790D3",
"Y. c #388CCD",
"T. c #448AC6",
"R. c #978685",
"E. c #9B9A93",
"W. c #928E90",
"Q. c #AB8A85",
"!. c #AC9286",
"~. c #B4968B",
"^. c #A99997",
"/. c #B79996",
"(. c #B1898E",
"). c #97B691",
"_. c #BDA39A",
"`. c #A6B198",
"'. c #8F96A4",
"]. c #98ABB8",
"[. c #90A6B1",
"{. c #ABA8A7",
"}. c #B7A8A5",
"|. c #B9B7B7",
" X c #B1B2B2",
".X c #C59D97",
"XX c #C5998F",
"oX c #C9A49A",
"OX c #D1AB98",
"+X c #C5A8A3",
"@X c #D6ACA8",
"#X c #DAB5AD",
"$X c #D9B1A8",
"%X c #C9BBBC",
"&X c #D9B8B4",
"*X c #CBB1A7",
"=X c #E6BAB8",
"-X c #EABBAF",
";X c #9EC795",
":X c #98D696",
">X c #A6CB97",
",X c #ACD198",
"<X c #ACD1A4",
"1X c #CDC3BB",
"2X c #E4C3B4",
"3X c #EBC8BA",
"4X c #F1C5BC",
"5X c #FAD3BF",
"6X c #C8BBC4",
"7X c #DCBCC1",
"8X c #BDC8D1",
"9X c #D3C7C4",
"0X c #C8D3C7",
"qX c #D4D4CB",
"wX c #D9CAD1",
"eX c #D7D5D5",
"rX c #CAD5D2",
"tX c #EBCDCC",
"yX c #E7CAC6",
"uX c #F3CBC4",
"iX c #F4CDCA",
"pX c #FBCDCB",
"aX c #F4C8C5",
"sX c #F5D2C5",
"dX c #F5D2CC",
"fX c #FCD1CB",
"gX c #FBD2C6",
"hX c #F6C9D5",
"jX c #E7D5D7",
"kX c #F7D3D6",
"lX c #E8D0CC",
"zX c #D9E1DB",
"xX c #D1D9E4",
"cX c #E4D9E1",
"vX c #D5E6F3",
"bX c #D4E4EC",
"nX c #EAECE9",
"mX c #EAF4FB",
"MX c #F5FDFE",
"NX c #FDFEFE",
"BX c #FBFAF7",
"VX c #F3E7E5",
/* pixels */
"                                                                                      ",
"                                                                                      ",
"                            xX                                                        ",
"                            MXmX].                        MXMXrX                      ",
"                          d.NXMXmXbXzXzXzXqX0X0X0XqXqXqXqXMXMX0X                      ",
"                          ].MXNXMXMXNXnXqX}.{.W.%.W.}.1XjXBXNXeX                      ",
"                          xXNXNXNXNXVX+X..!._.+X+X+X~.*.} ^.BXqX                      ",
"                          bXMXNXNXVX}.&.#XuXiXiXfXuXgX4XoX' R.1X                      ",
"                          vXNXBXBX{. .&XiXfXfXpXpXpXuXfXyX/.(  .                      ",
"                          vXBXNXnX` /.tX@X.XaXpXpXpXfXgX&X+XR.Y                       ",
"                          bXNXNXeX .*XdX#Xo.=X=XaX4X-X4X~.!.}.0                       ",
"                          bXNXNXeX .+XdXuX4X$X| o.o.X.OX2XyX^.Y ]                     ",
"                        @.nXNXNXBXE.&.2XuXfXiX@XQ.o.XX3XsXyX . .%.                    ",
"                    3 -.@.0XnXNXNX9X} ~.3X4XkXtXdXiXfXsX3X!. .{.]                     ",
"                $ >X<X$.y @.%.|.mXNX9X&..._.yXtXtXtX&X_...' |.eX!                     ",
"                ,X<X<X;X).).@.] E.nXNXjX^.} &. .} } ' ( R.eXMXrXT !                   ",
"              :X,X<X).) P +.).-.! E.nXMXMXeX9X1X%X X X8XxX8X]._ 1 0                   ",
"            #.:X;X;XW M C v Q >X@.U t.h.[.].].[.'.'.d.r.P F H c < Q                   ",
"          E >X,X,X+.M 9.f.8.6 ).).c H 8.A ;.:.:.:.:.:.;.7.6.w.8.b W x                 ",
"          Q ).,X#.x 8.a.a.S ) ;Xd.C i.J.p.D.H.J.Y.G.G.D.K.K.p.7.N M i                 ",
"        3 3 y E M L i.p.7.z ) ) z C i.K.v.S.v.v.P.V.V.l.x.p.a.6.a c S v               ",
"        4 8 t 5 z i.p.u.z , 7 > i 8.a.x.j.k.k.Z.A.M.Z.k.v.K.J.6.u V w.B               ",
"        4 O.O.x 8.a.s.K 5 I M s :.s.D.l.Z.Z.Z.n.k.n.Z.k.l.x.G.6.a 9.f.H 5             ",
"        4 t O.x 9.f.w.a : z D 8.a.H.v.Z.M.Z.j.n.n.j.n.k.Z.P.G.5.a 9.g.r.b             ",
"          t E 7 J r.H = a 9.w.G.F.c.M.Z.Z.Z.n.n.j.n.Z.Z.M.N.P.q.u F r.J 1             ",
"          4 q %.E._ p = :.T.U.M.N.M.M.Z.M.M.k.l.m.j.n.Z.M.M.V.5.u = / '.W.            ",
"          $ e *XjX}.U z 6.G.c.A.k.k.k.k.M.V.F.G.D.D.l.k.M.c.D.4.i n {.eX%X~           ",
"          * R =XiX_.6 : 4.U.c.j.j.k.n.k.B.V.G.G.H.D.l.k.k.v.p.A b 0 E.lXtX&.          ",
"          2 X.iXuX&.q 5 4.u.D.x.j.n.n.n.M.B.I.P.F.v.k.M.M.S.p.A 7 0 | uXyX&.          ",
"          2 *.iXuX[ 3 5 K u.D.F.c.k.n.n.M.N.C.V.v.k.M.M.M.v.p.S 6 r [ 4XgX=.          ",
"          9 !.sX4X[ w : 4.j.z.C.V.c.k.k.M.N.C.V.l.n.Z.M.N.P.H.S U   { -X5X=.          ",
"          2 ~.dX3X^ ~ m 6.U.I.C.B.c.k.k.N.N.B.c.j.n.n.M.B.P.J.S U   { $X5XOX          ",
"          9 ~.kX3Xr ^ m 9.Y.F.B.n.n.n.M.M.M.M.k.k.j.n.j.C.I.G.A W   | @XgXOX          ",
"            .XkX2Xr ! n H w.H.D.u.b.F.F.I.P.D.x.F.b.D.K.Y.Y.J.S U     #XfXOX          ",
"            /.dX3X^ ^ 7 = g Z A ;.:.6.0.0.0.6.6.0.6.6.7.>.>.D i U   } &XfXoX          ",
"          % ~.dX2X[ ^ 1 > c Z Z g g g j j j B B j Z B g g h s , n    .7XiX.X          ",
"          @ Q.kXkXX.@   # p <.:.1.,.,.,.,.,.,.>.>.>.>.>.1.1.V : # o ( jXiXQ.          ",
"          % ~ yXyX  %   1 > h 2.1.j g V s s N s V h g j 1.1.V i     T 9XdX*.          ",
"            9             b h 2.3.d p m 6 q w w w q n p G 2.G p       } !.            ",
"                            l 2.2.d m                 f k 2.G i                       ",
"                            s 2.2.h                   f k e.,.i                       ",
"                            ; l k d                   1 d k J ;                       ",
"                            ; / t.T                     f _ _ <                       ",
"                            ` 6XwXR.                     .wXlX}                       ",
"                              6XkX+X                    } tXkX..                      ",
"                              &XuX+X                    ..hXhXQ.                      ",
"                              #XsX*X                    ..hXhX/.                      ",
"                              $XsX3X                     .kXhX(.                      ",
"                              #XsX2X                    ..iXhX(.                      ",
"                              &XdXoX                    &.dXkXy.                      ",
"                            R (./.|                     R /./.R                       ",
"                            R.y.R.}                     &.R.R.(                       ",
"                            %XcXcXwXR.                ` wXjXjX6XT                     ",
"                            - < T ` Y                 + 1 T Y Y <                     ",
"                            o . . + <                 - . . . - 1                     ",
"                            . . . . o & $             + . . . . + O                   ",
"                            X X . X . . O             & o . X . . X X                 ",
"                                O $ & & $               O & O O                       ",
"                                                                                      ",
"                                                                                      ",
"                                                                                      ",
"                                                                                      ",
"                                                                                      ",
"                                                                                      "
};
