/* XPM */
static char *a39dc6ce129a4d608c7dc4f01cd1b59flFLxVBlQv4dOMzbM[] = {
/* columns rows colors chars-per-pixel */
"70 64 99 2 ",
"   c #ADE361",
".  c #ABE260",
"X  c #ACE361",
"o  c #AEE462",
"O  c #ADE362",
"+  c #ADE462",
"@  c #ACE260",
"#  c #ADE261",
"$  c #AEE361",
"%  c #AEE362",
"&  c #AFE562",
"*  c #AEE563",
"=  c #ACE362",
"-  c #ACE162",
";  c #94C750",
":  c #95C851",
">  c #ABE15F",
",  c #ABE25E",
"<  c #A9DE60",
"1  c #9BCE56",
"2  c #A8DD5E",
"3  c #ACE261",
"4  c #AAE060",
"5  c #ABE261",
"6  c #A8DC65",
"7  c #629036",
"8  c #64913A",
"9  c #A7DC60",
"0  c #AAE25B",
"q  c #97CA5B",
"w  c #598433",
"e  c #8CBF4B",
"r  c #A4D95D",
"t  c #79AC40",
"y  c #95CA52",
"u  c #AEE463",
"i  c #ABDF68",
"p  c #68963D",
"a  c #578233",
"s  c #A3D85C",
"d  c #ADE55B",
"f  c #8EBF5A",
"g  c #497131",
"h  c #84B647",
"j  c #B1E862",
"k  c #9ACF58",
"l  c #4E7E26",
"z  c #7EB147",
"x  c #ADE264",
"c  c #ACE363",
"v  c #ADE265",
"b  c #72A040",
"n  c #527C30",
"m  c #9FD359",
"M  c #ACE55B",
"N  c #84B552",
"B  c #4B7335",
"V  c #8FC150",
"C  c #AEE55E",
"Z  c #8DC053",
"A  c #4A7827",
"S  c #85B84C",
"D  c #ADE364",
"F  c #ACE263",
"G  c #ADE461",
"H  c #7DAC46",
"J  c #4E7734",
"K  c #96C856",
"L  c #ABE45A",
"P  c #7FAF4C",
"I  c #4D7637",
"U  c #97CA56",
"Y  c #ADE55C",
"T  c #80B24C",
"R  c #4B7928",
"E  c #95CB52",
"W  c #ADE35F",
"Q  c #91C254",
"!  c #517A38",
"~  c #8CBE51",
"^  c #89BA4F",
"/  c #5F8A3E",
"(  c #9ACD57",
")  c #ADE45E",
"_  c #91C553",
"`  c #76A841",
"'  c #A5DB5B",
"]  c #ADE360",
"[  c #A5D95D",
"{  c #8ABB4D",
"}  c #9ED358",
"|  c #A9E15B",
" . c #A4D95B",
".. c #9DD05C",
"X. c #A8DE5F",
"o. c #ABE162",
"O. c #A9DF62",
"+. c #AEE461",
"@. c white",
/* pixels */
"                                                                                                                                            ",
"                                                                                                                                            ",
"                                                                                                                                            ",
"                                                                                                                                            ",
"                                                                                                                                            ",
"                                                                                                                                            ",
"                                                                                                                                            ",
"                                                                                                                                            ",
"                                                                                                                                            ",
"                                                                                                                                            ",
"                                                                                                                                            ",
"                                                                                                                                            ",
"                                                                                                                                            ",
"                                                                                                                                            ",
"                                                                                                                                            ",
"                                                                                                                                            ",
"                                                                                                                                            ",
"                                                                                                                                            ",
"                                                                                                                                            ",
"                                                                                                                                            ",
"                                                                                                                                            ",
"                                                                                                                                            ",
"                                                                                                                                            ",
"                                                                                                                                            ",
"                                                        . X o   O + @ #                                                                     ",
"                                                    O   @   $ % & * @ #                                                                     ",
"                                                  O = O + - ; : > , < 1 2   3 4 5                                                           ",
"                                                  O = O o 6 7 8 9 0 q w e & r t y O                                                         ",
"                                                  O = = u i p a s d f g h j k l z x                                                         ",
"                                                    O c + v b n m M N B V C Z A S D                                                         ",
"                                                      F G   H J K L P I U Y T R E o                                                         ",
"                                                      c + W Q ! ~ Y ^ / ( ) _ ` ' o                                                         ",
"                                                      =   ] [ { } |  ...X.] o.O.                                                            ",
"                                                      O 3 @ 3   o G G o +.G O                                                               ",
"                                                        X 3 3 . X                                                                           ",
"                                                            X . . 3                                                                         ",
"                                                              . . X                                                                         ",
"                                                                                                                                            ",
"                                                                                                                                            ",
"                                                                                                                                            ",
"                                                                                                                                            ",
"                                                                                                                                            ",
"                                                                                                                                            ",
"                                                                                                                                            ",
"                                                                                                                                            ",
"                                                                                                                                            ",
"                                                                                                                                            ",
"                                                                                                                                            ",
"                                                                                                                                            ",
"                                                                                                                                            ",
"                                                                                                                                            ",
"                                                                                                                                            ",
"                                                                                                                                            ",
"                                                                                                                                            ",
"                                                                                                                                            ",
"                                                                                                                                            ",
"                                                                                                                                            ",
"                                                                                                                                            ",
"                                                                                                                                            ",
"                                                                                                                                            ",
"                                                                                                                                            ",
"                                                                                                                                            ",
"                                                                                                                                            ",
"                                                                                                                                            "
};
