/* XPM */
static char *a638a5117dcb4636f8238a29058602f0ojH5K1uziH5XRDDL[] = {
/* columns rows colors chars-per-pixel */
"46 64 194 2 ",
"   c None",
".  c #050806",
"X  c #151913",
"o  c #11130B",
"O  c #18261A",
"+  c #252B19",
"@  c #27361A",
"#  c #393B1D",
"$  c #33331D",
"%  c #0B1D29",
"&  c #091E36",
"*  c #0D2228",
"=  c #132925",
"-  c #192826",
";  c #082D39",
":  c #152937",
">  c #0E393C",
",  c #1A3438",
"<  c #183525",
"1  c #232D29",
"2  c #2B3727",
"3  c #3D3E25",
"4  c #3D3B2A",
"5  c #343627",
"6  c #283934",
"7  c #333E34",
"8  c #443E2F",
"9  c #27441E",
"0  c #3E411F",
"q  c #394628",
"w  c #2B5527",
"e  c #345D2B",
"r  c #35502D",
"t  c #27433C",
"y  c #3B4B37",
"u  c #3A5F31",
"i  c #33632B",
"p  c #3B6031",
"a  c #386C30",
"s  c #3C7733",
"d  c #434424",
"f  c #4D4B2A",
"g  c #474728",
"h  c #4C5229",
"j  c #4D5026",
"k  c #54522C",
"l  c #4C4632",
"z  c #4E4934",
"x  c #484839",
"c  c #514B34",
"v  c #554C3C",
"b  c #51473C",
"n  c #475B3B",
"m  c #595737",
"M  c #504F2B",
"N  c #605D35",
"B  c #52613B",
"V  c #447139",
"C  c #6E712F",
"Z  c #0C2C4D",
"A  c #142C42",
"S  c #1A2F43",
"D  c #0A3748",
"F  c #1C3347",
"G  c #1B334A",
"H  c #1A3D46",
"J  c #033B56",
"K  c #1D385A",
"L  c #133867",
"P  c #153E76",
"I  c #153F79",
"U  c #1A4954",
"Y  c #154956",
"T  c #2B4B54",
"R  c #0D536E",
"E  c #17437C",
"W  c #085778",
"Q  c #0A506A",
"!  c #2C4465",
"~  c #4A4A45",
"^  c #575546",
"/  c #5A5B56",
"(  c #4A554B",
")  c #6A5C4E",
"_  c #645849",
"`  c #6A5B51",
"'  c #635F5C",
"]  c #4D6141",
"[  c #556A49",
"{  c #5D774B",
"}  c #5C6951",
"|  c #62695D",
" . c #606259",
".. c #776559",
"X. c #657C52",
"o. c #61784D",
"O. c #585F63",
"+. c #676865",
"@. c #776B67",
"#. c #6D7269",
"$. c #74746D",
"%. c #7C7C76",
"&. c #7C7D7B",
"*. c #767774",
"=. c #816C62",
"-. c #836F6A",
";. c #877265",
":. c #897467",
">. c #8C7669",
",. c #967D74",
"<. c #997F78",
"1. c #897674",
"2. c #45893A",
"3. c #438438",
"4. c #49933F",
"5. c #7E8035",
"6. c #4E9B42",
"7. c #4C9741",
"8. c #509F44",
"9. c #6B8456",
"0. c #6D8758",
"q. c #738E5E",
"w. c #75915F",
"e. c #51A145",
"r. c #7E9C65",
"t. c #7A9763",
"y. c #7F807C",
"u. c #838637",
"i. c #83827E",
"p. c #9E837B",
"a. c #9B8375",
"s. c #A3887C",
"d. c #84A46A",
"f. c #8AAB6F",
"g. c #8CAE71",
"h. c #8FB173",
"j. c #92B575",
"k. c #99BE7B",
"l. c #95BA78",
"z. c #9DC27E",
"x. c #174584",
"c. c #184888",
"v. c #045D85",
"b. c #194D93",
"n. c #1B529B",
"m. c #026998",
"M. c #01608C",
"N. c #1C55A3",
"B. c #1E59AA",
"V. c #0076AC",
"C. c #0173A6",
"Z. c #007FB9",
"A. c #0082BD",
"S. c #008CCD",
"D. c #0086C3",
"F. c #008FD0",
"G. c #848582",
"H. c #8D8E85",
"J. c #8B8C8A",
"K. c #999995",
"L. c #929389",
"P. c #A88B85",
"I. c #B4948D",
"U. c #BB9992",
"Y. c #B99792",
"T. c #A7A7A6",
"R. c #B9BABA",
"E. c #C29E98",
"W. c #CAA59F",
"Q. c #C4A19A",
"!. c #CAA6A0",
"~. c #D2ACA5",
"^. c #DDB5AE",
"/. c #DFB6B0",
"(. c #E8BDB7",
"). c #EABFB9",
"_. c #E5BBB5",
"`. c #A3CA83",
"'. c #ACD58A",
"]. c #AAD389",
"[. c #EEC2BC",
"{. c #F1C5BF",
"}. c #DCDDDD",
"|. c gray84",
" X c #F4C7C1",
".X c #F6C9C2",
"XX c #FACCC5",
"oX c #FECFC8",
"OX c #FED0C9",
"+X c #E3E4E4",
"@X c #EBEBEC",
"#X c #E7E8E8",
"$X c #F4F4F4",
"%X c #FFFFFF",
/* pixels */
"                                                                                            ",
"                                                                                            ",
"                          ^ $.x                           x %.^                             ",
"                        v T.|.K.                        4 K.}.T.v                           ",
"                         .#X%X|.i.H.L.H.G.y.&.&.i.G.G.%.%.+X%X+X/                           ",
"                        *.$X%X$X+X@X$X$X$X$X$X$X$X$X$X@X+X$X%X@X$.                          ",
"                        i.$X%X%X%X%X%X%X%X%X%X%X%X%X%X%X%X%X%X$XH.                          ",
"                        i.$X%X%X%X%X%X%X%X%X%X%X%X%X%X%X%X%X%X$XH.                          ",
"                        y.$X%X%X%X%X%X%X%X%X%X%X%X%X%X%X%X%X%X$XH.                          ",
"                        %.$X%X%X%X%X%X%X%X%X%X%X%X%X%X%X%X%X%X$XH.                          ",
"                        %.$X%X%X%X%X%X%X%X%X%X%X%X%X%X%X%X%X%X$XH.                          ",
"                        G.$X%X%X%X%X%X%X%X%X%X%X%X%X%X%X%X%X%X$XH.                          ",
"                        K.$X%X%X%X%X%X%X%X%X%X%X%X%X%X%X%X%X%X$XH.                          ",
"                        K.$X%X%X%X%X%X%X%X%X%X%X%X%X%X%X%X%X%X$XH.                          ",
"                      m K.$X%X%X%X%X%X%X%X%X%X%X%X%X%X%X%X%X%X$XH.                          ",
"                    d g K.$X%X%X%X%X%X%X%X%X%X%X%X%X%X%X%X%X%X$Xi.3 d                       ",
"                  h [ ] *.@X%X%X%X$X$X+X}.}.}.}.}.+X$X%X%X%X%X+X+.n B h                     ",
"                  B j.h.} T.+X$X|.T.G.#.| | | | | $.J.R.+X$X}.K.} l.d.g                     ",
"                  q d.].9.y +.&.+.} X.w.r.r.r.r.r.q.X.} #.&.O.7 t.].q.q                     ",
"                7 : [ `.g.6 * n t.k.].'.'.'.'.'.'.'.].k.w.y % y k.z.] -                     ",
"                U v.T f.j.y ] j.'.'.'.'.'.'.'.'.'.'.'.'.].g.n n z.r.U W 6                   ",
"              t m.D.W [ [ ] j.'.'.'.'.'.'.'.'.'.'.'.'.'.'.'.f.n X.[ W Z.R q                 ",
"              Q A.S.m., q g.'.'.'.'.'.'.'.'.'.'.'.'.'.'.'.'.].r.q H V.S.C.U                 ",
"            t m.S.S.M.* o.`.'.'.'.'.'.'.'.'.'.'.'.'.'.'.'.'.'.`.] ; V.S.D.R                 ",
"            Y Z.S.A.J + g.'.'.'.'.'.'.'.'.'.'.'.'.'.'.'.'.'.'.'.t.- v.S.S.m.T               ",
"            W S.F.m.* x z.'.'.'.'.'.'.'.].h.0.f.'.'.'.'.'.'.'.'.j.2 J A.S.Z.U               ",
"          q Y m.V.Q O B g.z.`.].'.'.'.'.].X.2 9.'.'.'.'.'.].`.k.d.y * M.V.v.,               ",
"          v 1.+.T , + @ r n { 9.r.d.d.d.d.0.[ 0.d.d.d.d.t.0.{ n r + O H ( @.@.k             ",
"          ..(.[.p.4   w s s a e e p p p p p u p p p p p e e a s 3.w $ v Q.{.W.v             ",
"          ,. X.Xs.    i 6.e.e.8.6.4.4.4.4.4.4.4.4.4.4.4.6.e.e.e.e.i # z !.oX_.)             ",
"          I.XX[.=.    i 6.e.e.e.e.e.e.e.e.e.e.e.e.e.e.e.e.e.e.e.e.i # 4 I.XX).;.            ",
"          Q.XX).)     e 7.e.e.e.e.e.e.e.e.e.e.e.e.e.e.e.e.e.e.e.6.e j d p..X[.,.            ",
"          ~.oX(.)     9 2.e.e.e.e.e.e.e.e.e.e.e.e.e.e.e.e.e.e.e.2.r C f <..X Xs.m           ",
"        ^ ~.OX(.`     @ i 6.e.e.e.e.e.e.e.e.e.e.e.e.e.e.e.e.e.6.i q 5.k p..X Xs.k           ",
"        x ~.OX(...    + < a 6.e.e.e.e.e.e.e.e.e.e.e.e.e.e.e.7.i O j u.N p..X.Xp.f           ",
"        b ~.oX[...    , Y > w 3.6.6.e.e.e.e.e.e.e.e.e.6.7.V w > D h u.m P.XX Xs.k           ",
"        ^ Q.XX[.>.      D J ; O 9 i s 2.2.2.2.2.2.3.s e @ O ; J D h u.c U.XX{.a.            ",
"          I.XX X<.g     A L Z & % * = = = = = = = = = % % & Z L : h C l !.XX).>.            ",
"          p..XXXI.5     : b.N.n.b.x.E P P P P P P P I x.b.n.n.x.: 0 j v /.oX_...            ",
"          =.{.oXW.5     : c.B.N.n.n.n.n.n.n.n.n.n.n.n.n.n.B.N.L O + + ) (.XX^.b             ",
"          _ /.XXU.8     , b.B.b.A , F F F F F G G G F : L n.N.P 1     _ /.XXU.c             ",
"          g ..,.) d     A n.B.x.1                       G n.B.E 6     g =.,._ M             ",
"            # $         F N.B.E -                       S b.B.x.-       # $                 ",
"                        G b.n.L -                       : c.N.x.-                           ",
"                        6 ! ! S +                       - K ! ! 1                           ",
"                        ..I.P.` 3                       5 -.P.P.v                           ",
"                      l p..X Xp.g                       8 W.XX(...                          ",
"                      c I.XX[.>.f                       l U.XX[.;.                          ",
"                      c I.XX[.;.k                       c I.XX[.>.                          ",
"                      z I.XX[.:.k                       z I.XX[.:.                          ",
"                      c I.XX[.;.f                       z I.XX[.:.                          ",
"                      m U.XX[.;.d                       l U.XX[.:.                          ",
"                      m P.XX{.,.d                       l W.XX)...                          ",
"                      f =.E.I...3                       4 <.U.Y.^                           ",
"                      4 ~ +.*.%.^                     z +.i.$.' x d                         ",
"                    g +.R.}.@X+XJ.3                   ^ T.+X#X|.T.^                         ",
"                      ^ *.*.+./ ~                       ~ / +.&.#.x                         ",
"                        X o . .                             o X                             ",
"                                                                                            ",
"                                                                                            ",
"                                                                                            ",
"                                                                                            ",
"                                                                                            ",
"                                                                                            "
};
