/* XPM */
static char *d7c917fa16784c0abf3af9a660a4413ag1sUysMPRZkHvmRl[] = {
/* columns rows colors chars-per-pixel */
"64 64 166 2 ",
"   c None",
".  c #0E1211",
"X  c #131313",
"o  c #1C1415",
"O  c #171B1B",
"+  c #1C1C1C",
"@  c #2B1307",
"#  c #2D1308",
"$  c #3D140B",
"%  c #231516",
"&  c #261518",
"*  c #2C161A",
"=  c #28191B",
"-  c #3B1513",
";  c #301B16",
":  c #33161B",
">  c #3B161A",
",  c #35191E",
"<  c #3C181F",
"1  c #362717",
"2  c #3F3414",
"3  c #3E1521",
"4  c #3D1A20",
"5  c #242424",
"6  c #2B2B2B",
"7  c #353535",
"8  c #3C3C3C",
"9  c #41161B",
"0  c #49151F",
"q  c #43191C",
"w  c #4C191D",
"e  c #531A1C",
"r  c #44241B",
"t  c #4E221C",
"y  c #54221D",
"u  c #5B271F",
"i  c #4A3A17",
"p  c #423518",
"a  c #443B1A",
"s  c #563817",
"d  c #533E19",
"f  c #5F3D1B",
"g  c #633C1B",
"h  c #4E1727",
"j  c #441921",
"k  c #4D1A23",
"l  c #441521",
"z  c #551521",
"x  c #551B26",
"c  c #5A1C26",
"v  c #5B1B28",
"b  c #631C27",
"n  c #6B1B26",
"m  c #6F172A",
"M  c #651C28",
"N  c #6C1C28",
"B  c #621623",
"V  c #711726",
"C  c #731B25",
"Z  c #731C29",
"A  c #7B1D29",
"S  c #512227",
"D  c #582329",
"F  c #552E31",
"G  c #622021",
"H  c #662924",
"J  c #68262F",
"K  c #682B2F",
"L  c #772F24",
"P  c #7E2E25",
"I  c #7F212B",
"U  c #72262B",
"Y  c #753323",
"T  c #7D3B22",
"R  c #622C32",
"E  c #6A2E32",
"W  c #6A4315",
"Q  c #744915",
"!  c #67531C",
"~  c #6A571A",
"^  c #72551B",
"/  c #7E6818",
"(  c #7C6419",
")  c #776725",
"_  c #71692D",
"`  c #8E1E27",
"'  c #841D2A",
"]  c #8A1E2B",
"[  c #941F2B",
"{  c #9A1F2C",
"}  c #97202C",
"|  c #9E202C",
" . c #833A22",
".. c #813623",
"X. c #A3202D",
"o. c #AB212D",
"O. c #B3222E",
"+. c #BC232F",
"@. c #C1232F",
"#. c #C42430",
"$. c #CB2430",
"%. c #934B1F",
"&. c #8C5A14",
"*. c #9E541F",
"=. c #95531B",
"-. c #A0561D",
";. c #A45B1E",
":. c #896B1D",
">. c #9D6613",
",. c #93771F",
"<. c #B6691A",
"1. c #B5661C",
"2. c #A87112",
"3. c #8E4521",
"4. c #8A7A2D",
"5. c #AE871C",
"6. c #A3831C",
"7. c #A78623",
"8. c #AC8F23",
"9. c #B08E24",
"0. c #B89323",
"q. c #BDAC3F",
"w. c #DF8A17",
"e. c #D0861C",
"r. c #DF951A",
"t. c #E18E17",
"y. c #E99415",
"u. c #E4991A",
"i. c #EB9B15",
"p. c #D3AB1F",
"a. c #E4A51A",
"s. c #FFAB16",
"d. c #F9AD1B",
"f. c #EFB41F",
"g. c #FFB817",
"h. c #F4B21E",
"j. c #FFBD1F",
"k. c #C09921",
"l. c #CAAD2E",
"z. c #DBB021",
"x. c #CDB030",
"c. c #ECBE2A",
"v. c #FCB720",
"b. c #FFBD27",
"n. c #F9B820",
"m. c #FFBD2B",
"M. c #E6BF30",
"N. c #FFC322",
"B. c #FEC925",
"V. c #FFC52C",
"C. c #FFCA2A",
"Z. c #F4C62C",
"A. c #EACD39",
"S. c #E9C333",
"D. c #FFCF32",
"F. c #FFD333",
"G. c #F5D43F",
"H. c #FFDC3E",
"J. c #C9B642",
"K. c #D2C147",
"L. c #FFDF42",
"P. c #FEE243",
"I. c #FFE54C",
"U. c #FFE84B",
"Y. c #FFEA54",
"T. c #FFEC59",
/* pixels */
"                                                                                                                                ",
"                                                                                                                                ",
"                                                                                                                                ",
"                      X X                                       X X X                                                           ",
"                  X X X X                                       X X X X                                                         ",
"                X X 5 X X                                       X X 5 X X                                                       ",
"              X X 6 + X                                           X + 6 X X                                                     ",
"            X X X 7 X X                                           X X 7 O X X                                                   ",
"            X X 7 7 X X                                           X X 7 7 X X                                                   ",
"          X X X 7 7 X                                               X 7 8 X X X                                                 ",
"          X X X 7 7 X                                               X 7 8 X X X                                                 ",
"          X X X 7 7 X                                               X 7 8 X X X X                                               ",
"        X X X X 7 8 X X                                           X X 7 8 X X X X                                               ",
"        X X X X 8 8 5 X                                           X 5 8 8 X X X X                                               ",
"        X X X X 5 8 7 X X                                       X X 7 8 5 X X X X                                               ",
"        X X X X X 8 8 5 X                                       X 5 8 8 X X X X X                                               ",
"        X X X X X + 8 7 X X                                     X 6 8 5 X X X X X                                               ",
"        X X X X X X 8 8 6 X                                   X 5 8 8 O X X X X X                                               ",
"          X X X X X + 8 8 6 X                               X 5 8 8 5 X X X X X X                                               ",
"          X X X X X O 7 8 8 6 X X     o o o o o o o     X X 5 8 8 8 O X X X X X                                                 ",
"          X X X X X X + 8 8 8 6 + X o x x x x x x x * X + 5 8 8 8 5 X X X X X X                                                 ",
"            X X X X X O 7 8 8 8 8 O * M N N b x x x x + 8 8 8 8 7 O X X X X X                                                   ",
"            X X X X X X O 7 8 8 6 , N ] ] ] A N N c x , 6 8 8 7 O X X X X X X                                                   ",
"              X X X X X X O 7 8 O k ' ` o.o.{ ] ] A Z x O 8 7 O X X X X X X                                                     ",
"                X X X X X X O 5 4 Z ] O.#.#.+.{ ' ] ] Z 4 5 O X X X X X X                                                       ",
"                  X X X X X X X k ' O.#.#.@.#.+.{ ] ] ' k X X X X X X X                                                         ",
"                    X X X X X < A O.#.#.#.#.@.#.+.[ ] ] A < X X X X < %                                                         ",
"                      X X X X c o.#.#.#.#.#.#.#.@.[ ' ' A c 9 o o < x k o                                                       ",
"                        o < H Y I O.#.@.+.#.#.+.{ A L Y L ' A x x x x x &                                                       ",
"                        9 m <.s.*.A O.+.[ +.@.| A ..y.s.w.M ] Z x x x x k X                                                     ",
"                        9 m <.C.v.*.A X.A { [ m  .u.b.N.t.M ] A c x x M x *                                                     ",
"                        9 m <.D.H.n.;.N c Z  .-.r.F.Y.C.t.M ] ] N x x ' N x *                                                   ",
"                        > Z T u.V.j.i.D x h ;.g.F.Y.H.h.*.A ] ] N x x N ' Z j X                                                 ",
"                      > ] ' v T %.%.3.A A Z P e.b.m.d.%.Z ] ] ] ' b x x N ' N :                                                 ",
"                      w O.' ' A Z Z A ] ] ] ' P  . . .A ] ' ] ] ] N x x c ' A x :                                               ",
"                    > | A Z ] w n q A C 9 ] ' ' A Z A ] C ; w ] ] N x x x b ' Z <                                               ",
"                  > X.A x N e 5.d 0.1 n r G y ' t 1 & n s y.>.0 ] M x x x * ' A x :                                             ",
"                % X.C q @ > 1.j.~ K.a p 9.! 7.o 7.Z.1 i c.N.2.9 Z x x x x X : [ Z x :                                           ",
"                o { $ - x x =.f.B.P.M.) J.4.U.,.q.T._ S.I.h.&.z Z x x x j X 9 O.Z x x &                                         ",
"                o B A c k k & 5.B.k.G.F.I.L.Y.H.I.T.U.T.G.&.z ' M x x x o   > [ A x c %                                         ",
"                  % A x w - : Q a.2 z.8.L.P.l.x.P.P.8.A.:.z ` Z x x x x o     w X.c x < o                                       ",
"                  % A x c w w 3 W r ^ y 6.p.g g / ( y ^ z ` ' b x x x x o     w O.N x c < X                                     ",
"                  % A x x c c < : x l A u f V m z z ' B ' N b x x x x x < X   w O.N x x c < X                                   ",
"                  % A x c < % < x x c N A C ] ] ` ] N M b x x x x x x x x X   e O.N x x - k X                                   ",
"                  & A c j o : x c x x x c N ] ' ' N x x x c c c c c c x x X > o.o.e @ # q &                                     ",
"                o C b N ' ' ' ' M c x x x c c c c A M c N o.' ' X.+.+.N x o   w ' n x x x o                                     ",
"                o A { +.@.@.@.X.' ' c x x k k x A O.+.{ +.#.o.X.#.#.+.` c k X   X w N c x k X                                   ",
"              > : [ +.+.#.+.O.@.X.] M x < X X < X.#.+.@.#.@.X.X.#.#.{ ' c k X     . c M x x X                                   ",
"            9 X.] +.o.{ #.o.A | @.[ ' k X     c +.#.] +.#.O.Z } #.+.' ' c k &       w N c x X                                   ",
"          . ` #.N O.' ] $.o.N M | ` ' c X     C $.o.x O.#.X.x ] $.X.b N c c j .     . z Z x *                                   ",
"          . C @.Z +.} N O.o.N x N ' ] C X     C $.[ * O.$.o.x J U n Z c N x k *       * M c k X                                 ",
"            : R 4 { O.k S D : k c ' ] C X     9 K k o e E c N S = k Z c ' Z x k *       * x k X                                 ",
"              + X , F o X O . o k X.` C X       O X X   O X 9 N C A b c ' ' A Z k *       * k X   X X X X X X X X X             ",
"                X   O X X X X   & X.[ C X         X       X & ' X.N : k b ' ] ' N k * X   o j X X X X X X X X X X X X X         ",
"                      X       X 6 I A k X                   : X.X.<   o k b ' ] ' N x k % X o X O 5 5 5 5 5 5 5 5 5 + X X       ",
"                              6 + j % X                     5 R m &     o k M ' ' ] N x x % o 5 6 8 8 8 8 8 8 8 7 5 X X         ",
"                              X X X                       + 5 * :         o j k N ' A N b x k X X 6 8 8 8 8 8 8 7 + X           ",
"                                                            X X             X & j 4 k Z A c x & X O 7 7 6 7 5 5 5 X X           ",
"                                                                                X . * < x c x : X O + + + + X + + X             ",
"                                                                                      . * : * X X X X X X X X X X               ",
"                                                                                            X X X X X X X X X                   ",
"                                                                                                X X X X X                       ",
"                                                                                                                                ",
"                                                                                                                                "
};
