/* XPM */
static char *_ecd57e1a91a4b5ede46f1bbc5adca37OAPFfBqZ0OI1yHP8[] = {
/* columns rows colors chars-per-pixel */
"64 59 155 2 ",
"   c None",
".  c #0E0E11",
"X  c #0D1211",
"o  c #131313",
"O  c #1B1415",
"+  c #1B1B1B",
"@  c #221416",
"#  c #2A1517",
"$  c #251518",
"%  c #2C161A",
"&  c #201C1D",
"*  c #33161A",
"=  c #3B171B",
"-  c #331A1E",
";  c #3B181E",
":  c #242113",
">  c #2F2613",
",  c #312815",
"<  c #332216",
"1  c #3F1522",
"2  c #3E1920",
"3  c #252525",
"4  c #2C2C2C",
"5  c #343434",
"6  c #3C3C3C",
"7  c #42171B",
"8  c #4D161F",
"9  c #45191C",
"0  c #4B181D",
"q  c #50161F",
"w  c #531A1E",
"e  c #59191E",
"r  c #452B1A",
"t  c #4E241C",
"y  c #57221D",
"u  c #57291A",
"i  c #582B1C",
"p  c #5B251E",
"a  c #4C301C",
"s  c #5A321C",
"d  c #60331D",
"f  c #431921",
"g  c #4C1A23",
"h  c #521521",
"j  c #5E1623",
"k  c #561B26",
"l  c #5A1B25",
"z  c #5A1C28",
"x  c #631C24",
"c  c #6C1B24",
"v  c #651C28",
"b  c #6C1C28",
"n  c #751C26",
"m  c #7B1C25",
"M  c #731C29",
"N  c #7B1C29",
"B  c #5C2026",
"V  c #6B2227",
"C  c #772427",
"Z  c #732926",
"A  c #7C2C25",
"S  c #712028",
"D  c #782028",
"F  c #7D3923",
"G  c #51431B",
"H  c #6F4A1C",
"J  c #704C1C",
"K  c #4B4723",
"L  c #4E4924",
"P  c #6A5F27",
"I  c #871E25",
"U  c #851D2A",
"Y  c #8A1E2B",
"T  c #921F27",
"R  c #931F2B",
"E  c #9A1F2C",
"W  c #95202B",
"Q  c #9D202C",
"!  c #833F21",
"~  c #823225",
"^  c #A5202D",
"/  c #A4212D",
"(  c #AA212D",
")  c #AA212E",
"_  c #AD212E",
"`  c #AB212E",
"'  c #B2222D",
"]  c #B3222E",
"[  c #B9222F",
"{  c #BB232F",
"}  c #BE232F",
"|  c #BB232F",
" . c #C3232F",
".. c #C0232F",
"X. c #C1232F",
"o. c #C42430",
"O. c #C62430",
"+. c #C52430",
"@. c #C92430",
"#. c #974D1E",
"$. c #994F1F",
"%. c #9B511E",
"&. c #A5571E",
"*. c #AA5F1D",
"=. c #876C1F",
"-. c #85661C",
";. c #996612",
":. c #966313",
">. c #8F791B",
",. c #A56E14",
"<. c #A86D13",
"1. c #B5671D",
"2. c #B66B1B",
"3. c #B86C1B",
"4. c #B67713",
"5. c #8C4520",
"6. c #924621",
"7. c #954821",
"8. c #8C7323",
"9. c #967C24",
"0. c #C97B1B",
"q. c #9C8D36",
"w. c #BC9B27",
"e. c #CE8C16",
"r. c #D68218",
"t. c #C49C1F",
"y. c #DE921C",
"u. c #E48D17",
"i. c #EB9717",
"p. c #ED9917",
"a. c #EDA61D",
"s. c #FEAC16",
"d. c #F8A719",
"f. c #FDB31C",
"g. c #FFBB1C",
"h. c #CDAA2A",
"j. c #D0AE2D",
"k. c #C3A935",
"l. c #FFBD24",
"z. c #FFC423",
"x. c #FFC429",
"c. c #FFC82A",
"v. c #E3C237",
"b. c #F1C731",
"n. c #FFCD31",
"m. c #FFD334",
"M. c #FFD43A",
"N. c #FFD93D",
"B. c #C4B546",
"V. c #FEDC43",
"C. c #FFE248",
"Z. c #FFE94D",
"A. c #FFE751",
"S. c #FFEA56",
"D. c #FFEF58",
/* pixels */
"                                                                                                                                ",
"                                                                                                                                ",
"                                                                                                                                ",
"                            o                                     o o                                                           ",
"                          o o o                                   o o o                                                         ",
"                        o o o                                     o o + o                                                       ",
"                      + 3 + o                                       o 3 + o                                                     ",
"                    o 3 3 o                                         o + 3 o o                                                   ",
"                  o + 5 3 o                                         o + 6 + o                                                   ",
"                o o + 6 3                                             + 6 3 o o                                                 ",
"                o o + 6 3                                             + 6 3 o o                                                 ",
"              o o o + 6 3 o                                           + 6 3 o o o                                               ",
"              o o o + 6 3 o                                         o + 6 3 o o o                                               ",
"              o o o + 6 5 + o                                     o o 5 6 3 o o o o                                             ",
"              o o o o 3 6 3 o                                     o + 6 4 o o o o o                                             ",
"              o o o o + 6 6 + o                                 o o 5 6 3 o o o o o                                             ",
"              o o o o o 3 6 3 o                                 o + 6 5 o o o o o                                               ",
"              o o o o o + 5 6 3 o                             o 3 6 6 3 o o o o o                                               ",
"              o o o o o o 4 6 6 3 o o     o o o o o o     o o + 6 6 5 o o o o o o                                               ",
"                o o o o o + 5 6 6 3 o o @ g g g g g g * o o + 6 6 6 + o o o o o                                                 ",
"                o o o o o o 4 6 6 6 6 + % v v v l k k k $ 5 6 6 6 5 o o o o o o     = 7 %                                       ",
"                  o o o o o o 4 6 6 5 - b Y U E E b x k ; 4 6 6 5 + o o o o o       m +.U =                                     ",
"                    o o o o o o 4 6 & h U R ( }  ./ U x k & 6 5 + o o o o o o       0 ( ( N =                                   ",
"                      o o o o o o + 2 M W { +.+.o. ./ U x f & + o o o o o o         X T } Y N *                                 ",
"                # #     o o o o o o x R { +. .+.o.+. .Q U k O o o o o % ;             = ' ` Y 0                                 ",
"              * T U *   X o o o X - N { +.+.+. . .+. .E Y v g O o o $ g x h 7 7 7 7 7 n  .' U U %                               ",
"              c { Y N 9 * X o = % 1 N ( +.{ { +.+. .Q N b b z f % * k U / @.] ` ` ` ` R Q { R U w                               ",
"              c / U M Y c h j N F 3.~ U ( ( / +. .Q N 7.2.*.x M v k v { / R M v v v v v v  .( U Y h                             ",
"            0 ' Q v z v v v v M $.g.y.A U R R ] E N 6.p.g.p.V Y U l z N M k k k k k k k v } ( U Y U w                           ",
"            w @.E l k k k k l M #.n.m.y.A M M U Z 5.a.N.m.i.V Y Y v k k z k k k k z k k k U ( U Y Y c O                         ",
"            0 ' E l k k g f z N ! a.M.z.r.k k B u.f.V.A.c.0.S Y Y U l k k k k g $ g z k k N ( U Y Y Y j #                       ",
"              c / b f z * o ; l x 5.2.2.&.b b b 1.l.M.x.0.C U Y Y U l k k k k ; o % g z g x ( U Y Y Y Y =                       ",
"              c { U O % $     % U M M b M Y Y Y D $.%.%.A U Y Y Y Y M k k k k O     $ g g 0 ( U Y Y Y Y =                       ",
"              c +.U O         * x j 0 m n h U U Y M M M N 9 0 U Y Y U z k k k O       @ O 0 ( U U n * * #                       ",
"              @ T R #         o O O o # x t p x n r < q i e.4.y U Y U z k k %             9 ` N * @                             ",
"                c { c o         o o o . G 9.8.=., b.9.> h.z.s.:.h Y U z k z $             x T =                                 ",
"                  c Y =               . L B.B.V.q.S.B.k.Z.M.f.;.h Y U z k f @           * ' w                                   ",
"                    x j                 L D.D.S.D.S.D.D.S.A.z.;.h Y v k z %             * T *                                   ",
"                      %                 K S.S.S.S.S.S.S.A.n.e.u N U z z f O               *                                     ",
"                                        P C.V.A.N.S.S.S.m.s.<.8 Y v k k k %                                                     ",
"                                      : w.C.C.j.V.Z.v.v.h.,.w U v k k k z ;                                             o o     ",
"                                      % r t.t.s -.>.J H s 8 U v k k k k k k @                                         o o o     ",
"                            o o * l l z g a d N j h c c N M v k z z k k k k f O                                     o o + o     ",
"                          O g R ^ / Y U M k k v v v v v v v Q N N / ` W k b l O                                 o o o 3 3 o     ",
"                        9 Q { +.+. .R Y U b k g g g U { Q ' +.( / +.+.` b M v f o                           o o o + 3 3 + o     ",
"                    7 l ' {  . .' } / Y v z * o o 0  .{ } +. ./ ( +.} Y M M Y x $                         o + + 3 3 3 + o o     ",
"                  x ` R { R { ] N Y } R N g $   @ W +.W ( +.` b / +./ N M v U U l $                     o + 3 3 3 3 3 o o o     ",
"                O ^ ( U / M ] { M l Y Y U g     # } { l W @./ k W o.U l x k v U U l ; @ o             o + 3 3 3 + 3 3 o o       ",
"                o m / N  .M Y ] M k l U Y l     # ] ' 7 I @.( k N ] M b ; ; k v U U N k g ; O O O O o + 3 + o o + 3 + o o       ",
"                  # c b Q N % U m * k Y Y l       0 Q 9 @ Q ' x l / Y g O O 2 k v U U U U N k k k k f O o o o o o o o o o       ",
"                    % 0 9 N # % 0 o ; ( R l         = =   * x % N R M ;     O 2 z z b N N N N N N M z - o o o o o o o o         ",
"                          7 #       e E Y g                 X * / E ;         O * f z k k k k k k k z g O o o o o o o           ",
"                                  e E b ; $                   w ( M O             @ % % k k k k k % % % O o o o o               ",
"                                  * * @                     = R b %                     @ @ @ @ @                               ",
"                                                              # O                                                               ",
"                                                                                                                                ",
"                                                                                                                                ",
"                                                                                                                                ",
"                                                                                                                                "
};
