/* XPM */
static char *c470a32845c742fcca33683cc372e0c91rlrnr1HkuB3RbCU[] = {
/* columns rows colors chars-per-pixel */
"64 64 170 2 ",
"   c None",
".  c #0D1211",
"X  c #131313",
"o  c #1C1415",
"O  c #171817",
"+  c #151B1A",
"@  c #1C1C1C",
"#  c #2D1308",
"$  c #35140C",
"%  c #221417",
"&  c #2A1516",
"*  c #261619",
"=  c #2C161A",
"-  c #2E1B16",
";  c #3E1614",
":  c #33171B",
">  c #3B171C",
",  c #3B181E",
"<  c #2E2315",
"1  c #392417",
"2  c #251F20",
"3  c #2D1E21",
"4  c #242424",
"5  c #262929",
"6  c #2B2B2B",
"7  c #2A2425",
"8  c #332D2E",
"9  c #333333",
"0  c #3C3C3C",
"q  c #421717",
"w  c #44161D",
"e  c #431A1E",
"r  c #4C191E",
"t  c #551A1E",
"y  c #42201C",
"u  c #4C221C",
"i  c #56271C",
"p  c #4E3712",
"a  c #52351B",
"s  c #5F3F1B",
"d  c #593218",
"f  c #633D1B",
"g  c #401622",
"h  c #4F1727",
"j  c #431921",
"k  c #4C1A23",
"l  c #551B26",
"z  c #5B1C27",
"x  c #5C1B28",
"c  c #591522",
"v  c #6E1726",
"b  c #631B25",
"n  c #6B1B24",
"m  c #641C28",
"M  c #6B1C28",
"N  c #651724",
"B  c #701726",
"V  c #741B26",
"C  c #741C29",
"Z  c #7C1D2A",
"A  c #7A1D27",
"S  c #412427",
"D  c #49262B",
"F  c #5C2123",
"G  c #5A2B2F",
"H  c #4B2E31",
"J  c #692326",
"K  c #62262B",
"L  c #642625",
"P  c #7A222B",
"I  c #762E24",
"U  c #6F3023",
"Y  c #773323",
"T  c #7E3124",
"R  c #652D32",
"E  c #752D33",
"W  c #5C481A",
"Q  c #59441A",
"!  c #694619",
"~  c #63521A",
"^  c #6E5D1F",
"/  c #775D19",
"(  c #7E6718",
")  c #746828",
"_  c #821C1E",
"`  c #831D2A",
"'  c #8A1E2B",
"]  c #891E26",
"[  c #901F27",
"{  c #931F2B",
"}  c #9A1F2C",
"|  c #92202B",
" . c #9D202D",
".. c #833524",
"X. c #823B21",
"o. c #883923",
"O. c #A3202D",
"+. c #AB212D",
"@. c #B4222E",
"#. c #BC232F",
"$. c #C2232F",
"%. c #C42430",
"&. c #CC2431",
"*. c #8E471F",
"=. c #914A1F",
"-. c #A1561D",
";. c #A25A1E",
":. c #946415",
">. c #9F7F1C",
",. c #AD641C",
"<. c #AA7315",
"1. c #924821",
"2. c #994E20",
"3. c #867327",
"4. c #8B7B2C",
"5. c #907320",
"6. c #977922",
"7. c #9D7E20",
"8. c #C27F17",
"9. c #B68719",
"0. c #B68E1F",
"q. c #A88A23",
"w. c #B69425",
"e. c #BB9E29",
"r. c #B09F3B",
"t. c #BBAA3F",
"y. c #D88D1B",
"u. c #DC9619",
"i. c #EF9716",
"p. c #ED9916",
"a. c #E59619",
"s. c #E39316",
"d. c #F09C19",
"f. c #D1A81F",
"g. c #FFAA16",
"h. c #F0A01A",
"j. c #F9A718",
"k. c #FFB717",
"l. c #FBB61F",
"z. c #FEB21B",
"x. c #FFBD1D",
"c. c #CBA92E",
"v. c #D6A720",
"b. c #D6AD20",
"n. c #D4A729",
"m. c #CDB131",
"M. c #D4B831",
"N. c #E7B622",
"B. c #ECBF2B",
"V. c #F6BB20",
"C. c #FFBC26",
"Z. c #FFBE2B",
"A. c #FFC22B",
"S. c #FECE2D",
"D. c #FCC423",
"F. c #E1C436",
"G. c #F5CE37",
"H. c #FFCF30",
"J. c #FFD434",
"K. c #FFD936",
"L. c #F4D73E",
"P. c #FFD73B",
"I. c #FFDA3C",
"U. c #CEBC47",
"Y. c #FFDE42",
"T. c #FFE143",
"R. c #FFE44B",
"E. c #FFE94D",
"W. c #FFEB54",
"Q. c #F9E554",
/* pixels */
"                                                                                                                                ",
"                                                                                                                                ",
"                                                                                                                                ",
"                            X X X                                       X X                                                     ",
"                          X X X X                                       X X X                                                   ",
"                        X @ @ X                                         X O 4 X                                                 ",
"                      X @ 5 @ X                                           O 4 4 X                                               ",
"                    X X 4 5 X                                             X @ 9 X X                                             ",
"                    X @ 0 5 X                                             X @ 0 4 X                                             ",
"                  X X @ 0 5                                                 @ 0 5 X X                                           ",
"                  X X @ 0 5                                                 @ 0 5 X X                                           ",
"                X X X @ 0 5 X                                               @ 0 5 X X X                                         ",
"                X X X @ 0 5 X                                             X @ 0 5 X X X                                         ",
"              X X X X @ 0 9 @ X                                           O 6 0 5 X X X X                                       ",
"              X X X X O 6 0 4 X                                         X @ 0 9 @ X X X X                                       ",
"              X X X X X 4 0 9 @ X                                     X O 9 0 6 X X X X X                                       ",
"              X X X X X O 6 0 4 X                                     X O 0 9 @ X X X X X                                       ",
"                X X X X X 4 0 0 @ X                                 X O 9 0 9 X X X X X                                         ",
"                X X X X X X 6 0 0 @ X                             X O 9 0 9 O X X X X X                                         ",
"                X X X X X X 4 0 0 0 @ X X   o % o o o o % o   X X O 9 0 0 9 X X X X X X                                         ",
"                  X X X X X X 9 0 0 0 @ @ . : l l l l l l j o O @ 9 0 0 0 O X X X X X                                           ",
"                  X X X X X X 4 0 0 0 0 9 X j M M M z l l z , 4 0 0 0 0 6 O X X X X X                                           ",
"                    X X X X X X 4 0 0 0 7 j Z ' ' ' C M M l j 3 9 0 0 6 O X X X X X                                             ",
"                    X X X X X X X 4 0 9 % M ' } +.+.+.' ` C M : 5 0 5 O X X X X X X                                             ",
"                      X X X X X X X @ 2 k Z } #.%.%.%.+.' ' ` x 3 4 O X X X X X X                                               ",
"                        X X X X X X X o m } #.%.$.%.%.%.+.' ' C : X X X X X X X                                                 ",
"                          X X X X X o l { #.%.$.%.%.%.%.#.' ' ` m * X X X o , X                                                 ",
"                            X X X o % ` #.%.$.%.%.%.%.%.@.' ` ` M l * o o k l , .                                               ",
"                                * k U I ' #.%.#.$.%.%.@.' P Y Y L l l l l l z j o                                               ",
"                              X n J i.a.T ' $.O.O.$.@.' A -.g.g.-.B M z l l l l :                                               ",
"                              X n J d.H.a...' { ` O.Z C ;.z.A.x.-.B ' x l l z m j o                                             ",
"                              X n J h.Y.J.u.o.x M C 2.,.l.Y.R.x.;.B ' C z l m ` m j %                                           ",
"                              . n m ;.l.A.k.,.h l l s.x.T.W.S.y...Z ' ` z l z A ` m *                                           ",
"                              n ' C z *.=.=...C C C 1.j.Z.C.y.T Z ' ' ' C z l z A ` l %                                         ",
"                            . ] } ' Z C C C ` ' ' ' A X.X.X.T Z ' ` ' ' ` z l l M ' M j o                                       ",
"                            n } M ` A e n r ' r b ` ' Z C C Z ' t - n ' ` z l l l C ` m %                                       ",
"                          n  .m l C a 0.Q 7.w u z u n A 1 < w l :.p.p B ` z l z , r ' M k %                                     ",
"                        t O.b $ # F p.v.) t.o 6.~ w.W < B.w.X 5.S.z.p v x l l z , X b ' x k %                                   ",
"                        t _ $ r z F 8.D.S.T.q.r.4.U.G.^ Q.U.3.T.P.u.d V x l l l : . ]  .x l j X                                 ",
"                        : A M l r l < V.N.c.K.Y.Y.E.R.I.W.W.E.W.n.d B A z l z , .   b } m l j X                                 ",
"                          r M l ; ; , <.9.~ f.m.T.Y.q.L.T.F.e.M.f v ' x l l z , .   . [ Z z l =                                 ",
"                          r M l l q l y ! a f f b.q.i / ( ! d ! v ' C z l l z , .   . [ { x l l =                               ",
"                          r M l l z l = g k x B s i ` c c N A v A M z l l l l k =   . [ { z l z l =                             ",
"                          r M l l = * j z l x Z B ` ' ' ' ' Z m x l l l l l l z ,   . [ { z l r ; ,                             ",
"                          r M l = o j z l l l z m Z ` ` ` m x l z z z z z z z z , . V #.{ $ # $ , o                             ",
"                        > C x A ` ` ' A z z l l l z x x m Z x z |  .` ' @.#.O.z , X * v Z z l l j X                             ",
"                        > ' +.$.$.$.#.{ ` C l z k j k z { $.+.O.$.$.} @.%.$.+.C l :   o o n x l l :                             ",
"                      : t +.#.#.%.#.#.#.{ A x k * X o m #.$.#.$.%.#.{ #.%.#.' A l :       % A l z ,                             ",
"                    b +.{ #.} @.%.{ Z @.@.' C =     o { %.@.{ %.%.{ C @.$.+.Z A l , o     o b m l >                             ",
"                  & $.O.Z +.C +.%.' x Z O.' Z :     o @.$.' n %.%.Z l @.%.` x M l z *       % C m j *                           ",
"                  * +.O.` #.C ' $.{ x z C ' ' w     o @.$.N r &.&.Z l E n M M x m l j o     o e M z :                           ",
"                    j G c #.' e R j : l m ' ' w       l R : & K K n m D o n m M ` m l j o     o , z :                           ",
"                      + o D S X + X X = C O.' w         @ X X + O * k C v Z l m ' ` A m j o     o , :     X X X X X X X X X     ",
"                        X + O X   X     r @.' w           X     X X j +.' l = l C ' ' ` m j o X   = : X X X X X X X X X X X X X ",
"                            X         @ H ' M =                   . m @.` %   = M ` ` ' ` x k j X X O O 4 4 4 4 4 4 4 4 4 4 O X ",
"                                    @ 6 * , o                     + 8 P l X     : l C ` ' ` m l j o @ 4 9 0 0 0 0 0 0 0 6 @ X X ",
"                                      O X X                       5 @ , o         : j l A ` A m x l : X @ 9 0 0 0 0 0 0 5 O X   ",
"                                                                    X X             X : j j x A M l j o X 4 9 9 5 6 4 5 @ X     ",
"                                                                                        X X > j z z j % X @ @ @ @ @ O @ O X     ",
"                                                                                              o : : % X X X X X X X X X X       ",
"                                                                                                  . X X X X X X X X X           ",
"                                                                                                      X X X X X X               ",
"                                                                                                                                ",
"                                                                                                                                "
};
