/* XPM */
static char *_0d489694a674a5ef5c1e2c17fcfe5943BkHKG8qqWysAGev[] = {
/* columns rows colors chars-per-pixel */
"64 58 156 2 ",
"   c None",
".  c #0A0B10",
"X  c #130F13",
"o  c #0E1212",
"O  c #131313",
"+  c #1A1315",
"@  c #1C1C1C",
"#  c #241416",
"$  c #2B1517",
"%  c #261519",
"&  c #2C1619",
"*  c #231B1D",
"=  c #301517",
"-  c #33171B",
";  c #3B161A",
":  c #34191D",
">  c #3C191D",
",  c #2E2715",
"<  c #362017",
"1  c #242424",
"2  c #2B2627",
"3  c #2D2D2D",
"4  c #2E302F",
"5  c #343434",
"6  c #3C3C3C",
"7  c #44171C",
"8  c #4B151F",
"9  c #45181D",
"0  c #4C191D",
"q  c #53191E",
"w  c #59191E",
"e  c #621A1F",
"r  c #482A16",
"t  c #5A2B1A",
"y  c #5F3B1C",
"u  c #441722",
"i  c #441921",
"p  c #4B1A23",
"a  c #561B26",
"s  c #5A1C27",
"d  c #5B1A28",
"f  c #621B25",
"g  c #6C1B25",
"h  c #651C28",
"j  c #6B1C28",
"k  c #751C25",
"l  c #7B1C25",
"z  c #731C29",
"x  c #7C1D2A",
"c  c #632524",
"v  c #6A2E22",
"b  c #7E3922",
"n  c #544416",
"m  c #64411C",
"M  c #63491B",
"N  c #694E1B",
"B  c #734516",
"V  c #75581D",
"C  c #7C601E",
"Z  c #7D712C",
"A  c #841D26",
"S  c #891E26",
"D  c #831D2A",
"F  c #8A1E2B",
"G  c #941F2B",
"H  c #9A1F2C",
"J  c #9A1F2C",
"K  c #93202C",
"L  c #9D202C",
"P  c #9E202C",
"I  c #9D202C",
"U  c #843C22",
"Y  c #883F21",
"T  c #A0202D",
"R  c #A6212D",
"E  c #A3212D",
"W  c #AB212D",
"Q  c #AF212E",
"!  c #AC212D",
"~  c #B2222E",
"^  c #B7222E",
"/  c #B4222E",
"(  c #B8222F",
")  c #BE232F",
"_  c #BD232F",
"`  c #BB232F",
"'  c #C3232F",
"]  c #C0232F",
"[  c #C2232F",
"{  c #C32430",
"}  c #C42430",
"|  c #C52430",
" . c #C72430",
".. c #C42430",
"X. c #C92430",
"o. c #934A1F",
"O. c #885915",
"+. c #A2541F",
"@. c #AC5E1D",
"#. c #87651D",
"$. c #AD601E",
"%. c #B5681C",
"&. c #BB6D1B",
"*. c #A27E1F",
"=. c #B27513",
"-. c #914720",
";. c #944A20",
":. c #9A4E20",
">. c #8A6B20",
",. c #C6781B",
"<. c #C97A1B",
"1. c #A6861E",
"2. c #AC8C1F",
"3. c #8C8235",
"4. c #958B37",
"5. c #938838",
"6. c #9C8F39",
"7. c #A68422",
"8. c #B89B2C",
"9. c #A4993C",
"0. c #CB8313",
"q. c #D78418",
"w. c #D39919",
"e. c #E69415",
"r. c #E69D15",
"t. c #E2931D",
"y. c #F09B13",
"u. c #FFAD17",
"i. c #F3AC1B",
"p. c #FCAA18",
"a. c #FAA215",
"s. c #FEB31A",
"d. c #FFB91C",
"f. c #D4AE26",
"g. c #DEBC32",
"h. c #E9BC24",
"j. c #F3B221",
"k. c #FCBB23",
"l. c #E1BE32",
"z. c #FFC024",
"x. c #FFC92C",
"c. c #E4C639",
"v. c #ECCA3A",
"b. c #FFCD34",
"n. c #EFD43F",
"m. c #FFD436",
"M. c #FFDA3C",
"N. c #E8D248",
"B. c #F6DC46",
"V. c #FFDE45",
"C. c #FFE044",
"Z. c #FFE34A",
"A. c #FFE84C",
"S. c #FFEA56",
"D. c #FFEC58",
"F. c #FFF159",
/* pixels */
"                                                                                                                                ",
"                                                                                                                                ",
"                                                                                                                                ",
"                                                                                                                                ",
"                        O O                                     O                                                               ",
"                      O O O                                   O O O                                                             ",
"                    O @ O O                                     O 1 O                                                           ",
"                  O @ 1 O                                       O 1 1 O                                                         ",
"                O O 2 1 O                                       O O 5 O O                                                       ",
"                O @ 6 1 O                                         O 6 3 O                                                       ",
"              O O @ 6 1                                           O 6 3 O O                                                     ",
"              O O @ 6 1                                           O 6 3 O O O                                                   ",
"            O O O @ 6 1 O                                         O 6 3 O O O                                                   ",
"            O O O @ 6 1 O                                       O @ 6 3 O O O O                                                 ",
"            O O O @ 5 6 @ O                                     O 5 6 1 O O O O                                                 ",
"            O O O O 1 6 2 O                                   O @ 6 5 O O O O O                                                 ",
"            O O O O @ 5 6 O O                                 O 3 6 1 O O O O O                                                 ",
"            O O O O O 2 6 3 O                               O 1 6 5 O O O O O                                                   ",
"            O O O O O O 5 6 3 O                           O 1 6 6 @ O O O O O                                                   ",
"              O O O O O 2 6 6 3 O O   % & & & & & &   O O 1 6 6 5 @ O O O o O                                                   ",
"              O O O O O O 6 6 6 3 1 O > s s s s s a & @ 3 6 6 6 1 O O O 0 l # O                                                 ",
"                O O O O O 1 6 6 6 5 % h x x D j s s i 1 6 6 6 3 O O O o k X.G g 9 +                                             ",
"                O # O O O O 1 6 6 * f F G J ) R D h a : 4 6 3 O O O O O + S } ~ F k ; #                                         ",
"                w S # O O O O 1 3 : z G ( ' } ' R F h i 2 3 O O O O O O     S ' Q F F z ; #                                     ",
"              w ~ F f # O O O O + j G ^ } { } { ' R F h % O O O O O % O     # W } Q F F F f 9                                   ",
"            w ^ P h d f # O O O > F ( } } } } { } ) F z i + O O O > a : O g S D P } G F F F F a                                 ",
"            g } F a a d j s + + p G ' } ) ' } } ) J D x h i + + : a h x P G F d d T ^ F F F F F a                               ",
"            A T x s a a s h j v b x J ) P ) } ) J x U U c s s a a h W T D h a a a d ^ ~ F F F F x ;                             ",
"          0 } J p a a s a h z &.p.:.x P J W ) J x +.a.u.;.x D h a j F j a a a a a s K ) J F F D 7                               ",
"          0 } G % a i & p h j &.m.j.:.x z F F j +.j.b.d.o.x F z a s x a a a a a a a a l W F D 7                                 ",
"          q Q D # # + O i h z %.x.M.i.;.a d Y q.j.Z.Z.s.-.x F F h a h j a a % - a a p 7 R F 7                                   ",
"          q W ;         # a j c ,.t.e.:.d d Y i.M.C.k.$.x F F F j a a s a p +   + > %   g P $                                   ",
"          7 F ;           O 9 x j j j x F F x :.<.<.@.z F F F F z s a a a %             e T %                                   ",
"            0 ;             9 j k f F f k F F x j j z g 8 x F F F h a a a %             f T %                                   ",
"            0 ;             # # $ + a 0 f w F f > 9 j B =.t D F F h a s >               ; A ;                                   ",
"            #                 O O O X >.M 7.< C f., M h.s.0.0 F F h a s =                 $                                     ",
"                                O   . 4.3.N.8.9.S.Z v.C.k.e.> F F h a a &                                                       ",
"                                      5.F.S.S.S.S.S.S.D.m.r.> F x d a >                                                         ",
"                                      5.F.S.S.S.S.S.S.Z.k.O.f F j a p %                                           O O           ",
"                                      6.C.S.Z.V.D.S.A.z.y.r D z s a a :                                         O O O           ",
"                                    n c.A.B.l.A.A.g.n.w.B g x s a a s i +                                   O O @ @ O           ",
"                                    + V h.*.m 2.1.y #.> g x s a a a a s =                                 O O @ 1 @ O           ",
"                            o o o + i u N c k 8 8 l f D j s a a a a a a i #                             O @ 1 1 1 O O           ",
"                        + a S S a l x j u f h j j j j d F F x F R P d h j %                         O O @ 1 1 1 O O O           ",
"                      p I ( X.X.J G F x d % p p d W R I ) ( J ' } ) x j z p +                       O 1 1 1 1 1 @ O O           ",
"                  ; f ~ ( ..) ^ ) J x d p + O + F } ( ' } ~ J ' } J x j F j %                     O O 1 2 @ @ 1 @ O O           ",
"                g R I ^ J ' W x T ( F j #     0 ^ ( F } ' D F } ^ D x h x F h - %               O @ 1 @ @ @ @ @ O O             ",
"              + Q T F P z ) Q j h J F x &     g X.G s } ' j j } P h h a z F F j p > > : O O + > % O @ O O O O O O O             ",
"              + A P F ) j G Q j a h F F ;     f } x 7 ) { j h W F z p : s h D F x D D z p p p z a % O O O O O O O               ",
"                & j j T j = G w > h F F =       l D + f ( x a F P f +   - a h x D D D x x x x d s > O O O O O O                 ",
"                  ; 7 0 k + ; ; O a Q F ;         0     e = h J x p +     : i s s s a a a a a s p > + O O O                     ",
"                        >         k J x %                 + x Q a +         + - - p s a a a a : %                               ",
"                                k F a &                   $ T F =                 % % % % % %                                   ",
"                                = # +                     l l >                                                                 ",
"                                                          + +                                                                   ",
"                                                                                                                                ",
"                                                                                                                                ",
"                                                                                                                                "
};
