/* XPM */
static char *_7e01581c57345d3b2755382292c691aZcf4cOzTt4VFn2bt[] = {
/* columns rows colors chars-per-pixel */
"64 64 151 2 ",
"   c None",
".  c #120F13",
"X  c #0D1211",
"o  c #131313",
"O  c #1C1415",
"+  c #1C1C1C",
"@  c #3E150E",
"#  c #231416",
"$  c #2A1517",
"%  c #251518",
"&  c #2B1619",
"*  c #251F14",
"=  c #341514",
"-  c #3B1613",
";  c #301B16",
":  c #33171B",
">  c #3C161B",
",  c #321A1E",
"<  c #3C181F",
"1  c #2D2614",
"2  c #342916",
"3  c #3A371F",
"4  c #3D1920",
"5  c #232323",
"6  c #2B2B2B",
"7  c #3A3820",
"8  c #343434",
"9  c #3B3B3B",
"0  c #421717",
"q  c #43171B",
"w  c #49161E",
"e  c #45181B",
"r  c #4B181D",
"t  c #52191D",
"y  c #5D1A1E",
"u  c #611A1E",
"i  c #41211A",
"p  c #4B231C",
"a  c #4B2E19",
"s  c #54231D",
"d  c #423416",
"f  c #4A3A17",
"g  c #413518",
"h  c #563017",
"j  c #563817",
"k  c #6E3F17",
"l  c #603518",
"z  c #4E1522",
"x  c #441921",
"c  c #4C1A23",
"v  c #551B26",
"b  c #5B1C27",
"n  c #571C28",
"m  c #5A1B28",
"M  c #631B25",
"N  c #6B1B25",
"B  c #651C28",
"V  c #6B1C28",
"C  c #741B25",
"Z  c #7A1C24",
"A  c #741C29",
"S  c #7B1C29",
"D  c #622021",
"F  c #6A2C24",
"G  c #753223",
"H  c #7E3124",
"J  c #5A4918",
"K  c #67531C",
"L  c #765E1B",
"P  c #77611C",
"I  c #71682C",
"U  c #726324",
"Y  c #841D25",
"T  c #841D2A",
"R  c #8A1E2B",
"E  c #931F2C",
"W  c #9A1F2C",
"Q  c #8F202B",
"!  c #95202C",
"~  c #9C202C",
"^  c #823C21",
"/  c #8C3F23",
"(  c #833424",
")  c #A3202D",
"_  c #AB212D",
"`  c #B4222E",
"'  c #BC232F",
"]  c #C2232F",
"[  c #C52430",
"{  c #C82430",
"}  c #914A1F",
"|  c #8C5D13",
" . c #A1581D",
".. c #8F6211",
"X. c #916112",
"o. c #A56D13",
"O. c #B46B1B",
"+. c #874321",
"@. c #8C4221",
"#. c #904521",
"$. c #954B20",
"%. c #9C5120",
"&. c #937C26",
"*. c #C7761A",
"=. c #C77919",
"-. c #D17E18",
";. c #B6901E",
":. c #8A8036",
">. c #A78623",
",. c #AB8C25",
"<. c #B08E24",
"1. c #B99929",
"2. c #D88D13",
"3. c #D28218",
"4. c #DF9016",
"5. c #DA901B",
"6. c #DD9C19",
"7. c #E89714",
"8. c #E89F1B",
"9. c #F19714",
"0. c #ECA11A",
"q. c #EFA81C",
"w. c #FFA313",
"e. c #FFA917",
"r. c #FFAB16",
"t. c #F4A71A",
"y. c #F5B01E",
"u. c #FCB21B",
"i. c #FFBA1C",
"p. c #DAB32C",
"a. c #ECBE29",
"s. c #FFBD29",
"d. c #FFC11E",
"f. c #FFC523",
"g. c #FFC62C",
"h. c #FFCC2E",
"j. c #F4C62C",
"k. c #E9C333",
"l. c #FACE31",
"z. c #FFD537",
"x. c #FED334",
"c. c #FFD63A",
"v. c #FFDA3D",
"b. c #BDAF44",
"n. c #C9B946",
"m. c #FFDF45",
"M. c #FFE646",
"N. c #FFE44C",
"B. c #FFE751",
"V. c #FFEB56",
"C. c #FFEB58",
/* pixels */
"                                                                                                                                ",
"                                                                                                                                ",
"                                                                                                                                ",
"                      o o o                                       o o                                                           ",
"                    o o o o                                       o o o o                                                       ",
"                  o o 5 o o                                       o o 5 o o                                                     ",
"                o o 6 + o                                           o + 6 o o                                                   ",
"              o o + 8 o o                                           o o 8 o o o                                                 ",
"              o o 8 8 o o                                           o o 9 8 o o                                                 ",
"            o o o 9 8 o                                               o 9 8 o o o                                               ",
"            o o o 9 8 o                                               o 9 8 o o o                                               ",
"          o o o o 9 8 o                                               o 9 8 o o o                                               ",
"          o o o o 9 8 o o                                           o o 9 8 o o o o                                             ",
"          o o o o 9 9 5 o                                           o 5 9 8 o o o o                                             ",
"          o o o o 5 9 8 o o                                       o o 8 9 5 o o o o                                             ",
"          o o o o o 9 9 5 o                                       o 6 9 9 o o o o o                                             ",
"          o o o o o 5 9 6 o                                     o o 8 9 + o o o o o                                             ",
"          o o o o o + 9 9 5 o                                   o 6 9 9 o o o o o o                                             ",
"          o o o o o o 5 9 9 5 o                               o 6 9 9 + o o o o o                                               ",
"            o o o o o + 9 9 9 5 o o     O O O O O O O     o o 6 9 9 8 + o o o o o                                               ",
"            o o o o o o 5 9 9 9 5 + o O v v v v v v v & o + 6 9 9 9 + o o o o o o                                               ",
"              o o o o o + 8 9 9 9 9 o : V V V B b v n v + 9 9 9 9 8 + o o o o o                                                 ",
"              o o o o o o + 8 9 9 6 < A R T E _ S V b v , 6 9 9 8 + o o o o o o                                                 ",
"                o o o o o o + 8 9 + v T E _ ` { ` E A b c + 9 8 + o o o o o o                                                   ",
"                  o o o o o o + 5 4 A R ` { { ] { ` R A v 4 5 + o o o o o o                                                     ",
"                    o o o o o o o N R ` { ] { { [ [ ` R A x o o o o o o < o                                                     ",
"                      o o o o o x T ` [ [ [ [ { { { ' R T n < o o o o x n x o                                                   ",
"                        o O O O c T ' [ ] ' { [ { ' E T T A v : o O x n b c O                                                   ",
"                          w V F G S E ' ` ~ { { ' E S G G F n b n v v b S M x O                                                 ",
"                          r V *.e.$.A E _ W ' ' W S ^ 9.e.-.B R A b v b A T B < X                                               ",
"                          r V *.h.y.$.A T S ~ R V / 0.s.f.3.B R R B v v b A T v #                                               ",
"                          r V =.z.v.y.%.V M A /  .8.z.B.f.3.B R R A b v v b R A x %                                             ",
"                          r V +.0.g.i.4.n v z O.i.c.V.v.q.$.A R R R B v v b A T V :                                             ",
"                          & b m ^ } } @.A A A ( 5.s.s.t.#.S R R R R M v n v M R A c %                                           ",
"                            v T S A A S R R R S H ^ ^ ^ A R R R R R S b v v b A T V c #                                         ",
"                          o v r N > S A q R T R S A S S A ; r R R R R b v n v A _ V n c O                                       ",
"                          M N < & o $ N i D s T p 2 $ N j 7.o.t T R R b v b x r _ V v n O                                       ",
"                          C ~ M & o o g <.K >.O >.j.2 f a.i.w.| z R T b v b x o M ! v v &                                       ",
"                        t _ V v v O o U n.:.M.&.b.V.I k.N.g.e.X.z R B v n v < X u _ B v v &                                     ",
"                      % C ~ B n v : * 1.V.V.V.V.V.V.V.V.C.N.d...w R B v n c o   y _ B v n v &                                   ",
"                    # Z ~ B e - v < . 3 V.C.V.V.V.V.V.V.V.c.6.k N S b v v :     y _ V n n 0 c o                                 ",
"                  % Z ~ v = - - : O   7 N.m.C.m.N.V.C.V.z.u.o.> E B v n v : X > ~ _ t = - - :                                   ",
"                  $ _ @ - 0 c m #   1 1.B.N.N.v.B.V.v.N.f.2.l C A b v n n c o : Z W y - 0 c o                                   ",
"                  % R u c m b :     O L x.z.>.,.x.l.P p.J h C A b v n n n c o   % : M B n v 4 o                                 ",
"                    > S m 0 0 &     # b L ;.s s d d M a N C A b v n n n n c o       % N M n c o                                 ",
"                    $ A n v - 0 & # c M M p S S C C T S S b b v v v v v n v x o     X M B n c o                                 ",
"                    $ A v b B T T S M b v v b b b b b b b b B b b B B B b b x o       O N B c O                                 ",
"                    % A V ! { ] ) R R T M n v x x v V V M T ` R R ` ] ' V b c #       o x A b x o                               ",
"                    q ! { { { { ] E T A A c & X X M ' ] ) [ { _ ) { ] ` R b n < X       o < b x o                               ",
"                t t _ ] ` { ` _ ' ) T V b < X   % ~ { ` [ { ' W _ { { E T b B c %         o < x o                               ",
"              M ` T ' W ~ { ) A ~ ' R T c &   X M ' ] S ] { ) B ~ { _ A T M T V c %         O x o                               ",
"            o ~ ] V ` A R { ) B B E R T v X   X Y { ~ e ' { ~ c ! { E b B M R T V c %         &     o o o o o o o o o           ",
"            o Z ' V ' ! V ` ) B v M T R N o   X Y { R $ ' { ~ v A ' S A b b V R T V c # o       o o o o o o o o o o o o o       ",
"              & S M W ) x v _ t x b T R N o     = ~ R O r ' _ V n ) E M & v M R R T B c x O o o o + 5 5 5 5 5 5 5 5 5 + o o     ",
"                $ M > R v o M > o c _ R N o       $ N O   t Y : A R T v o % v V T T T B n c O O 5 6 9 9 9 9 9 9 9 8 + o o       ",
"                  O   > v   O     > _ R M o         O       O : ~ ) b #     % c v A T S B b v x o + 8 9 9 9 9 9 9 8 + o         ",
"                        o       > ) T N <                     r _ E &         o & c x v A A b c O o + 8 9 6 8 5 6 5 o o         ",
"                                C M < o o                   = Z ~ v #             o o : x v b v : o + 5 5 5 + o 5 + o           ",
"                                  X o                       e N e #                     o : < : o o o o o o o o o o             ",
"                                                              X X                           X o o o o o o o o o o               ",
"                                                                                                o o o o o o                     ",
"                                                                                                                                ",
"                                                                                                                                ",
"                                                                                                                                "
};
