/* XPM */
static char *_adf6a9db5eb4444dfe8ae3129711ba9Xlr6shtkmdqwIjVL[] = {
/* columns rows colors chars-per-pixel */
"64 64 183 2 ",
"   c None",
".  c #070C12",
"X  c #0D1211",
"o  c #131313",
"O  c #1B1415",
"+  c #1D1718",
"@  c #141818",
"#  c #1B1B1B",
"$  c #231416",
"%  c #2B1517",
"&  c #241C14",
"*  c #251518",
"=  c #2C1619",
"-  c #201F1F",
";  c #34161B",
":  c #3C161C",
">  c #3B181E",
",  c #351A1F",
"<  c #2F2816",
"1  c #3F2F19",
"2  c #372115",
"3  c #3D3115",
"4  c #381A20",
"5  c #1B2020",
"6  c #252525",
"7  c #2C2C2C",
"8  c #292626",
"9  c #333333",
"0  c #3C3C3C",
"q  c #43171B",
"w  c #44181D",
"e  c #4A181D",
"r  c #54191E",
"t  c #5A1B1F",
"y  c #47201A",
"u  c #4A241C",
"i  c #472A19",
"p  c #54241E",
"a  c #50281C",
"s  c #5C2A1E",
"d  c #493A15",
"f  c #483816",
"g  c #5F3F12",
"h  c #563918",
"j  c #5A371B",
"k  c #441921",
"l  c #4A1A23",
"z  c #471622",
"x  c #531721",
"c  c #551B26",
"v  c #5A1C26",
"b  c #621624",
"n  c #621C25",
"m  c #6C1B24",
"M  c #651C28",
"N  c #6C1C28",
"B  c #68162A",
"V  c #751C26",
"C  c #7D1D25",
"Z  c #731C29",
"A  c #7C1C29",
"S  c #5C2127",
"D  c #52222B",
"F  c #5F2E33",
"G  c #652325",
"H  c #6C2D24",
"J  c #6D282E",
"K  c #6C232A",
"L  c #7A2527",
"P  c #762128",
"I  c #7C222C",
"U  c #75282E",
"Y  c #763122",
"T  c #7F3524",
"R  c #6E2A30",
"E  c #652E33",
"W  c #7A2D33",
"Q  c #5F471A",
"!  c #5A491A",
"~  c #654516",
"^  c #675517",
"/  c #655720",
"(  c #8A1E26",
")  c #831D2A",
"_  c #8A1E2B",
"`  c #931F2B",
"'  c #9A1F2C",
"]  c #A81F2E",
"[  c #A11F2D",
"{  c #84272E",
"}  c #95202C",
"|  c #9D202C",
" . c #823C21",
".. c #873824",
"X. c #A1202D",
"o. c #A4202D",
"O. c #A9212E",
"+. c #AE212E",
"@. c #AC212D",
"#. c #B3222E",
"$. c #B1222E",
"%. c #B4222E",
"&. c #B7222F",
"*. c #B3222E",
"=. c #BA232F",
"-. c #BE232F",
";. c #BC232F",
":. c #C1232F",
">. c #C3232F",
",. c #C1232F",
"<. c #C12330",
"1. c #C42430",
"2. c #C52430",
"3. c #C52430",
"4. c #CB2431",
"5. c #D02431",
"6. c #924E1F",
"7. c #8C5B15",
"8. c #815513",
"9. c #A55B1C",
"0. c #84691B",
"q. c #947018",
"w. c #987D1F",
"e. c #B56B1D",
"r. c #B5691C",
"t. c #B87813",
"y. c #BB711D",
"u. c #984F20",
"i. c #954C20",
"p. c #826E23",
"a. c #8D7A29",
"s. c #927923",
"d. c #AA851D",
"f. c #B88719",
"g. c #9E8422",
"h. c #8A8036",
"j. c #B49325",
"k. c #B59A29",
"l. c #B5A23A",
"z. c #D3861A",
"x. c #D89819",
"c. c #DD941A",
"v. c #E58D14",
"b. c #ED9717",
"n. c #EE9C16",
"m. c #E1971A",
"M. c #E0A61D",
"N. c #FFAF17",
"B. c #F8A618",
"V. c #FFB316",
"C. c #FCB31E",
"Z. c #F2B51F",
"A. c #C29F29",
"S. c #C29E27",
"D. c #CEA620",
"F. c #CBAE2E",
"G. c #D5AB20",
"H. c #FEB323",
"J. c #FFBC25",
"K. c #FFC01E",
"L. c #ECC02D",
"P. c #FFC425",
"I. c #FFCB24",
"U. c #FFC52C",
"Y. c #FFCB2C",
"T. c #FFD72E",
"R. c #E2C235",
"E. c #EDCB3A",
"W. c #FFD334",
"Q. c #F5D43C",
"!. c #FFDD3E",
"~. c #F9D73B",
"^. c #FFE13E",
"/. c #CEBD47",
"(. c #D8C548",
"). c #FFDE42",
"_. c #FFE145",
"`. c #FFE94B",
"'. c #FFE54C",
"]. c #FFE750",
"[. c #FFEA53",
"{. c #FFEC59",
"}. c #FFF159",
/* pixels */
"                                                                                                                                ",
"                                                                                                                                ",
"                                                                                                                                ",
"                                                                                                                                ",
"                  o o o                                       o o o                                                             ",
"                o o o o                                       o o o o                                                           ",
"              o @ 8 @ o                                         o 6 # o                                                         ",
"            o o 7 # o                                           o # 7 # o                                                       ",
"          o o @ 9 @ o                                           o o 9 # o o                                                     ",
"          o o 9 0 @ o                                             o 9 0 @ o                                                     ",
"          o o 9 0 @                                               o 9 0 @ o o                                                   ",
"        o o o 9 0 @                                               o 9 0 @ o o                                                   ",
"        o o o 9 0 @                                               o 9 0 @ o o o                                                 ",
"      o o o o 9 0 @ o                                           o o 9 0 @ o o o                                                 ",
"      o o o o 9 0 8 o                                           o 6 0 0 @ o o o o                                               ",
"      o o o o # 0 0 @ o                                         o 7 0 6 @ o o o o                                               ",
"      o o o o o 9 0 7 o                                       o 6 0 0 # o o o o o                                               ",
"      o o o o o # 0 9 @ o                                     o 8 0 6 o o o o o o                                               ",
"        o o o o @ 9 0 9 @ o                                 o 6 0 0 # o o o o o                                                 ",
"        o o o o o # 0 0 7 @ o                             o 6 0 0 6 o o o o o o                                                 ",
"        o o o o o @ 9 0 0 7 @ o     * * * * * * *     o o 6 0 0 9 # o o o o o                                                   ",
"          o o o o o # 0 0 0 7 6 @ o c c c c c c c , @ 6 6 0 0 0 6 o o o o o o                                                   ",
"          o o o o o @ 7 0 0 0 0 # = N N N M c c c c + 0 0 0 0 9 # o o o o o                                                     ",
"          o o o o o o @ 7 0 0 7 , N _ _ _ ) Z Z v c > 8 0 0 9 # o o o o o o         X X                                         ",
"            o o o o o o @ 7 0 # l ) _ +.$.X._ _ A Z v + 0 9 # o o o o o o         t ( m *                                       ",
"              o o o o o o @ # 4 Z _ $.2.2.>.X._ _ _ A l # # o o o o o o           m 4.' m $                                     ",
"          O     o o o o o o o l ) %.2.2.>.2.>.| _ _ _ v O o o o o o o             * ( <.` m $                                   ",
"        m ' :     o o o o o > A $.2.2.2.2.1.2.>.' _ _ ) l O o o o > *               V >.' _ m o                                 ",
"      r >.| _ : *   o o o O x O.>.2.2.2.2.>.2.>.' A A A n l O O : c c O             * ' <._ A %                                 ",
"      r +._ ) _ ) : ; ; > H  .L ] >.>.=.2.2.-.| A T  . .A A v c c c c q q q q q q q m %.>._ _ m X                               ",
"    % C O.A v N A A A A Z 9.V.e.P O.-.` %.-.| A ..v.N.b.G _ Z c c N ) =.4.%.$.$.$.%.' } =.X._ V ;                               ",
"    e 4.O.M c c c c c M Z 9.U.P.e.P ' A ` ` B ..m.U.P.b.G _ ) n c X.%.O.} Z Z Z Z Z Z v +.>._ _ V ;                             ",
"    e 4.O.M c c c c c M Z 9.Y.).P.y.K c N ..r.c.W.[.Y.n.G _ _ Z c Z _ N c c c c c c c c $.>._ _ _ V ;                           ",
"    % C +.M c c c = ; M Z H z.J.C.B.G c c 6.V.W.[.!.C.u.A _ _ Z c c n c c c c c c c c c A =._ _ _ _ e                           ",
"      r +.) > l c o   q _ M H  . . .I A A L y.H.H.B.i.A _ _ _ _ M c c c c c l , c c c c c $._ _ _ _ A :                         ",
"      r 2.| ; O O     ; _ _ A A A A _ _ _ _ L Y Y Y A _ ) _ _ _ N c c c c * k o , c c c c $._ _ _ _ _ A ;                       ",
"      r >.O.;           w _ p n u V A ; _ ) _ A Z Z _ V 2 y ) _ N c c c l o O     , c c = O._ _ _ _ _ _ ;                       ",
"        m +.w           : t d.Q j.1 n i G a V p 3 & v h n.t.> _ M c c c O           : l * O._ _ _ ) V V ;                       ",
"        t %.' %           8.K.0././ < A.! S.& s.W.d d L.P.f.: Z c c c c O             o O O._ _ m e o o                         ",
"          t ' r           ~ M.I.!.Q.p.(.a.`.j.l.}.h.R.].Z.7.x Z c c c k O               o O._ x o                               ",
"            t _ *           q.I.f.E.T.]._.].!.'.{.`.[.Q.7.x _ M c c c O                 t ' r                                   ",
"              > $           g x.d D.w.~.!.F.k.^.!.g.R.0.x _ Z c c c c O               o o._ o                                   ",
"                            . f u Q t 0.G.j s ^ ^ s ~ v _ ) n c c c c k O             o | e                                     ",
"                      o o o o ; c z ) n j V A b b ) m ) M n c c c c c c O               :                                 o     ",
"                  o = V V V V n c c M ) V _ _ _ _ N n N X.) A ` $.$.Z c l o                                             o o o   ",
"                * C $.-.-.>.X._ ) v c c M _ _ _ +.=.` $.2.+.' >.2.>.` v c O                                             @ o o   ",
"            % % ) -.-.2.>.=.>.X._ M c c c c c } 2.-.>.2.>.+.| 2.2.X._ v c l o                                       o o 6 # o   ",
"          ; ` _ %.$.` 2.+.) | >.` _ c c l l N $.2.` %.2.=.A ` 2.-.` _ n n l $                                   o @ @ # 8 # o   ",
"          C 4.Z +._ _ 2.+.N M X.` _ M : o X n 4.=.v +.2.$.c A 4.O.M N v ) M l o                             o o O # 6 6 6 @ o   ",
"          m 3.Z $.| M %.%.Z c M _ _ A o     n 5.[ ; O.4.%.c K { V N c c _ _ v *                           o # # 6 6 6 6 @ o o   ",
"          : R l ' =.v S J > l c A _ A O     q U S $ t W m N D 6 > Z v c N _ _ v * X                     o # 6 6 6 6 6 # o o o   ",
"            5 @ : E * @ # X O l | ` A O       # @ o X 5 o w n m V M , l c N _ _ v : * X o             o # 6 6 6 # # 8 # o @     ",
"              o   # o o o o   $ | ` A O         o       o O A O.Z >   * c c N _ _ A c k k O o o o o o # 6 # # @ @ 6 6 @ o o     ",
"                    o         8 I _ v o                   = | +.e       * c c N _ _ _ ) A x l l l l = @ @ o o o o @ @ o o       ",
"                            8 6 l * O                     - F A =         * c c v Z _ _ _ ) A A ) N c * o o o o o o o o         ",
"                            @ o o                       # 8 * >             * l c c c c c c c c c c c ; o o o o o o o           ",
"                                                          o o                 o = l l c c c c c c l l l $ o o o o o             ",
"                                                                                  o o , k k k k , o o o o o o o o               ",
"                                                                                        o o o o                                 ",
"                                                                                                                                ",
"                                                                                                                                ",
"                                                                                                                                ",
"                                                                                                                                ",
"                                                                                                                                "
};
