/* XPM */
static char *_48b6ba1753e40e6ab1cc593cee9914bw6HcZh5rsOb2JINp[] = {
/* columns rows colors chars-per-pixel */
"64 60 157 2 ",
"   c None",
".  c #100F12",
"X  c #0D1211",
"o  c #131313",
"O  c #1B1415",
"+  c #1B1B1B",
"@  c #221416",
"#  c #291516",
"$  c #251518",
"%  c #2D161A",
"&  c #301517",
"*  c #34171C",
"=  c #3A171B",
"-  c #34191E",
";  c #3A181E",
":  c #322A14",
">  c #392218",
",  c #3D1920",
"<  c #232323",
"1  c #2A2A2A",
"2  c #333333",
"3  c #3C3C3C",
"4  c #43161C",
"5  c #48171D",
"6  c #44191D",
"7  c #4B181D",
"8  c #551A1E",
"9  c #5D1A1F",
"0  c #631A1F",
"q  c #402417",
"w  c #593F1B",
"e  c #643A16",
"r  c #401522",
"t  c #441921",
"y  c #4C1A23",
"u  c #541720",
"i  c #551B26",
"p  c #5A1C26",
"a  c #5F1C28",
"s  c #621C26",
"d  c #6A1B24",
"f  c #641C28",
"g  c #6B1C28",
"h  c #731C26",
"j  c #7A1C25",
"k  c #721D29",
"l  c #741C29",
"z  c #7F1B2A",
"x  c #7F1D2A",
"c  c #7C1D29",
"v  c #602026",
"b  c #6D2626",
"n  c #762427",
"m  c #7A2627",
"M  c #752228",
"N  c #7B3524",
"B  c #64471B",
"V  c #7D4C16",
"C  c #6D531C",
"Z  c #70561C",
"A  c #79571C",
"S  c #795D1E",
"D  c #534E26",
"F  c #645A24",
"G  c #746827",
"H  c #821D25",
"J  c #8A1E27",
"K  c #801D2A",
"L  c #811E2A",
"P  c #871D2A",
"I  c #851E2A",
"U  c #841D2A",
"Y  c #891E2B",
"T  c #881F2B",
"R  c #891D2B",
"E  c #8D1E2B",
"W  c #8A1E2B",
"Q  c #911F2A",
"!  c #971F2C",
"~  c #941F2B",
"^  c #9A1F2B",
"/  c #8C202B",
"(  c #8E202B",
")  c #95202B",
"_  c #9E212C",
"`  c #9B202C",
"'  c #823524",
"]  c #863824",
"[  c #A2202D",
"{  c #A5202D",
"}  c #A7212D",
"|  c #A4202D",
" . c #AA212D",
".. c #AC212E",
"X. c #B3222E",
"o. c #B3222E",
"O. c #BA222F",
"+. c #BC232F",
"@. c #BB232F",
"#. c #C3232F",
"$. c #C2232F",
"%. c #C1232F",
"&. c #C1232F",
"*. c #C42430",
"=. c #C52430",
"-. c #C62430",
";. c #C52430",
":. c #C92430",
">. c #974F1F",
",. c #9D541E",
"<. c #A0551E",
"1. c #A55B1D",
"2. c #85651E",
"3. c #846E1D",
"4. c #966114",
"5. c #AC621D",
"6. c #BC6C1C",
"7. c #AF7612",
"8. c #8F7722",
"9. c #957520",
"0. c #9F7C20",
"q. c #C3731A",
"w. c #C4781C",
"e. c #CD7D1A",
"r. c #D37F18",
"t. c #A28022",
"y. c #A69A3B",
"u. c #B0A33E",
"i. c #CF8712",
"p. c #DE8A16",
"a. c #DD8A19",
"s. c #E99A14",
"d. c #E3951A",
"f. c #E3981B",
"g. c #EC9E1A",
"h. c #F19F17",
"j. c #EEAC1E",
"k. c #FFAD17",
"l. c #FAA414",
"z. c #FFB71A",
"x. c #C9A225",
"c. c #C6A62E",
"v. c #E9BD2A",
"b. c #FBBD22",
"n. c #FEC425",
"m. c #FFC825",
"M. c #F1C42B",
"N. c #FDC82B",
"B. c #EDC936",
"V. c #FECE33",
"C. c #FFD234",
"Z. c #F9D43C",
"A. c #FDDD44",
"S. c #FFE44C",
"D. c #F9E553",
"F. c #FEEA56",
"G. c #FFEC58",
/* pixels */
"                                                                                                                                ",
"                                                                                                                                ",
"                                                                                                                                ",
"                                                                                                                                ",
"                                                                                                                                ",
"                              o o                                     o o                                                       ",
"                            o o o                                     o o o                                                     ",
"                          o + o o                                     o o < o                                                   ",
"                        o + 1 o                                         o < < o                                                 ",
"                      o o 1 < o                                         o + 2 o o                                               ",
"                      o + 3 < o                                         o + 3 < o                                               ",
"                    o o < 3 <                                             + 3 1 o o                                             ",
"                    o o < 3 <                                             + 3 1 o o                                             ",
"                  o o o < 3 < o                                           + 3 1 o o o                                           ",
"                  o o o < 3 < o                                         o + 3 1 o o o o                                         ",
"                o o o o < 3 2 + o                                       o 2 3 1 o o o o                                         ",
"                o o o o o 1 3 + o                                     o + 3 2 o o o o o                                         ",
"                o o o o o < 3 3 o o                                   o 2 3 1 o o o X X                                         ",
"                  o o o o o 2 3 < o                                 o + 3 3 o o o o 8 9 9 9 = % % % % % % % % % % % %           ",
"                  o o o o o + 3 3 < o                             o + 3 3 < o o 7 j R / ( ( g i p p p p p p p p p p i ; ; # X o ",
"                  o o o o o o 2 3 3 < o o     o o o o o o     o o + 2 3 3 o o o * 7 # @ @ , i i i i i i i i i i i i i p p y t t ",
"                $ H Q O o o o + 3 3 3 < o o @ y y y y y y * o o + 3 3 3 < o o o o X o o $ i * @ % i y i i i i i i i i i p i i i ",
"            = d } k i @ o o o o 2 3 3 3 3 o * s s s a i i i $ 2 3 3 3 2 + o o o o o   @ = * t y i t @ ; i i i i i i i i y * O O ",
"          9 _ K i i i t o o o o o 2 3 3 2 - g R P ! ! g s i ; 1 3 3 2 + o o o o o       % t O y p i i ; ; i i i i i i ; o       ",
"      8 d P i i i i p y o o o o o + 2 3 + i P ~ } +.#.[ K s i @ 3 2 + o o o o o o       # p , * i i i i ; = i i i g ;           ",
"      5 8 i i i i i i * t # o o o o + < , k Q O.*.*.*.#.[ K s t < + o o o o o o       @ t i i @ i i i i i ; * i g 7             ",
"          @ % i i i % y p i $ o o o o o d ~ O.*.#.*.#.*.#._ K p O o o o o O ; o       # i i i $ y i g c s i y f K *             ",
"              * i i i p a l = O O o o ; K O.*.*.*.#.*.*.#.[ R f t O o o O y t O     $ ) i i i y $ f P R P c a p =               ",
"                * i f g R j = y y % @ r K X.*.+.+.*.*.#.} z l k p t $ $ y i p = X   8 } i i i i @ f R R R R c s ;               ",
"                  * u R E 5 ; p s l N <.m R X. . .*.#.} z ] ,.>.v g s i i i p t 7 0 Q R i s g i O u R R R E c 7 ; @             ",
"                      u E 5 ; p s k 1.z.w.M E ! ! O.} K ' p.z.h.b R K s i g i k ) P p i s K R l * = R R u 4 =                   ",
"                        u f y i s k 1.V.N.w.M l l Q g N d.V.V.h.b P R K s c p f s i i a K R R P y = R 8                         ",
"                        = k i i s k ,.b.A.n.q.p p s r.g.C.G.C.d.b R R R f s l p p l K K R R R P p p u                           ",
"                        # y i p a l a 5.a.a.6.s s f e.n.A.C.f.' K R R R P s c P P R R R R R E E K t o                           ",
"                          o * t i f c g g g k R R P n 6.q.q.] K E R R R P g f R R R R R R h u p u *                             ",
"                              O i g d h s P j s E R P k g g K u u R R R R K a g k u K R h *     X                               ",
"                                * y $ # O 4 s 6 p h K 6 = s u 4.4.8 R R R K p i ; O 4 h *                                       ",
"                                  O o o o . w 2.2.B > x.3.O 0.b.l.4.u R R K p p %     #                                         ",
"                                      o   o G y.y.B.F D.u.8.A.C.k.7.4 E R c p i %                                               ",
"                                          : c.G.G.G.D.G.G.G.G.F.m.7.4 E P a p ;                                                 ",
"                                            D G.G.G.G.G.G.G.G.A.j.V f R l p p ;                                                 ",
"                                            D S.S.G.A.G.G.G.A.z.i.= E l p i p ;                                                 ",
"                                          : c.S.S.Z.A.G.A.A.V.s.e h l p i p p ;                                                 ",
"                                          o C M.M.Z x.v.t.9.S q h c p i a c l i %                                               ",
"                                          % p A A d 6 = 8 p d c l p i a c R c p %                                               ",
"                                    % = = i s u u c l l l l l a i i i g K R c i ; O                                             ",
"                              o ; d J ^ R l g i i i i i i i i p P k g K [ } c i p $                                             ",
"                            * j  .:.:.O.Q R P g i * $ * k [ P ` #.} ^ #.*.+.c i i t O                                           ",
"                        O 7 [ *.*.#.+.#.^ K f a *     = O.*.+.#.*...} *.#.^ c g g i t O                                         ",
"                      8 ` ` +.^ #.X.P } +.E l i %   O h *.[ ..*.O.K [ *.O.R c g R g a t O           o o o o o o o o o o         ",
"                    # O.` ( _ K #.X.g g } E K 6     # O.#.h ) :.X.i E *.! s g f P R P f t $ O     o o + + + + + + + + + o o     ",
"                    $ ..` ( X.g  .X.k i g P E u     # +.X.4 J :...i c +.P g y t g P R P f i ; o o + < 2 2 2 2 2 2 2 < + o o     ",
"                      u K c O.g u } h t p K E u       h X.5 4 X.O.g a [ R s # @ t f g R K f i t - + < 3 3 3 3 3 3 3 1 o o       ",
"                        7 u h c O 8 9 O y } E u         p 7   7 ^ = g E R y o   @ $ y a s k c a y o o < 3 3 2 2 1 1 + o         ",
"                            @ s O   @   = } E u           @     @ $ E _ p @         O O % i a p i * o + < < < + + < o o         ",
"                              O       = ~ P s *                   =  .! %                 o ; t ; o o o o o o o o o o           ",
"                                      9 s = o                     j ` u O                     o o o o o o o o o o o             ",
"                                                                & 9 = @                           o o o o o o                   ",
"                                                                                                                                ",
"                                                                                                                                "
};
