/* XPM */
static char *_7c5e8cb0ba14d33a2abf396ef8fb7d2t3fjFqdgWaRiyvUc[] = {
/* columns rows colors chars-per-pixel */
"64 55 153 2 ",
"   c None",
".  c #0F1212",
"X  c #131313",
"o  c #1B1415",
"O  c #1F1C12",
"+  c #1B1B1B",
"@  c #221416",
"#  c #2A1517",
"$  c #251518",
"%  c #2C161A",
"&  c #2E1B1F",
"*  c #301517",
"=  c #33171B",
"-  c #3C171C",
";  c #321B1F",
":  c #3C181F",
">  c #2D1E21",
",  c #3F1820",
"<  c #242424",
"1  c #272828",
"2  c #2A2A2A",
"3  c #343434",
"4  c #3C3C3C",
"5  c #43171B",
"6  c #4D171F",
"7  c #431A1D",
"8  c #4A181D",
"9  c #51181F",
"0  c #5D1A1F",
"q  c #432319",
"w  c #49201A",
"e  c #46351A",
"r  c #4F3A1A",
"t  c #51341B",
"y  c #533E19",
"u  c #62311A",
"i  c #663A1E",
"p  c #6A3D1B",
"a  c #441921",
"s  c #4D1A23",
"d  c #561B26",
"f  c #5B1C26",
"g  c #5F1C28",
"h  c #631C25",
"j  c #6C1B24",
"k  c #651C28",
"l  c #6C1C28",
"z  c #741B26",
"x  c #7B1D26",
"c  c #731D29",
"v  c #7A1D29",
"b  c #7E1E2A",
"n  c #7B1C29",
"m  c #423E20",
"M  c #6B2426",
"N  c #732527",
"B  c #7A2527",
"V  c #742A25",
"C  c #7E2B26",
"Z  c #702028",
"A  c #4F4419",
"S  c #65441C",
"D  c #6C4D1D",
"F  c #464222",
"G  c #851E27",
"H  c #801D2A",
"J  c #821E29",
"K  c #851D2A",
"L  c #871D2A",
"P  c #851D2A",
"I  c #891E2B",
"U  c #8B1E2B",
"Y  c #891D2A",
"T  c #8D1F2B",
"R  c #8A1E2B",
"E  c #921F2A",
"W  c #961F2C",
"Q  c #951F2B",
"!  c #991F2C",
"~  c #9A1F2C",
"^  c #802E25",
"/  c #8F202B",
"(  c #97202B",
")  c #9A202B",
"_  c #9D202C",
"`  c #8B3D23",
"'  c #A6202D",
"]  c #A4212D",
"[  c #AA212D",
"{  c #B3222E",
"}  c #B1222E",
"|  c #B5222E",
" . c #BB232F",
".. c #BF232F",
"X. c #BD232F",
"o. c #C3232F",
"O. c #C2232F",
"+. c #C32330",
"@. c #C42430",
"#. c #C52430",
"$. c #C52430",
"%. c #954D1F",
"&. c #915A13",
"*. c #9A541F",
"=. c #A1571E",
"-. c #926015",
";. c #92701F",
":. c #AE621D",
">. c #B2631D",
",. c #AF7513",
"<. c #876B20",
"1. c #8E7021",
"2. c #C1731B",
"3. c #C87E1D",
"4. c #9A8E38",
"5. c #AF8D22",
"6. c #AD9026",
"7. c #B89822",
"8. c #A19339",
"9. c #D38017",
"0. c #D58812",
"q. c #D4841B",
"w. c #D78C1B",
"e. c #D88D1C",
"r. c #E08B18",
"t. c #E39417",
"y. c #EE9B16",
"u. c #EFA31E",
"i. c #E4AB1D",
"p. c #F6AA1F",
"a. c #FFB319",
"s. c #FFBE1E",
"d. c #D5AA24",
"f. c #D8AD25",
"g. c #DCB72B",
"h. c #F3A820",
"j. c #E6B827",
"k. c #FCB724",
"l. c #FFBF24",
"z. c #FEC127",
"x. c #FCC128",
"c. c #EDC937",
"v. c #E1C23A",
"b. c #EECD3C",
"n. c #FFCE30",
"m. c #FFD237",
"M. c #FFDA3E",
"N. c #BFB044",
"B. c #F9DB44",
"V. c #F9DE4A",
"C. c #FFE145",
"Z. c #FFE54C",
"A. c #FFEB55",
/* pixels */
"                                                                                                                                ",
"                                                                                                                                ",
"                                                                                                                                ",
"                                                                                                                                ",
"                                                                                                                                ",
"                            X X X                                 X X X                                                         ",
"                          X o X X                                 X X o X                                                       ",
"                        X + 1 X                                     o 1 + X                                                     ",
"                      X X 2 + X                                     X + 2 X X                                                   ",
"                      X < 3 o X                                     X + 3 < X                                                   ",
"                    X X 1 4 +                                         + 4 1 X X                                                 ",
"                    X X 1 4 +                                         + 4 1 X X                                                 ",
"                  X X X 1 4 o                                         + 4 1 X X X                                               ",
"                  X X X 1 4 + X                                     X + 4 1 X X X                                               ",
"                  X X X < 4 3 X                                     X 3 4 < X X X                                               ",
"                  X X X X 3 4 < X                                 X < 4 2 X X X X                                               ",
"                  X X X X + 4 2 X                                 X 3 4 + X X X o @ $ @ o o o o o o o o o o o                   ",
"                  X X X X o 3 4 1 X                             X 1 4 3 X X * 9 ) ) ) J s s s s s s s s s s s = @ @             ",
"                  . X X X X + 4 4 1 X                         X 1 4 4 + X X 0 j : : 7 d f f d d d d d d d d d d d s % %         ",
"                o h z X X X o 2 4 4 1 X X o : : : : : $ X X o 1 4 4 1 o X X . . X X = s % = d d d d d d d d d d d d d d , = X   ",
"            # 8 E b h o X X X < 4 4 4 3 + $ g g g g d s : + 3 4 4 4 + X X X X X   = = a a s s % : d d d d d d d s a @ @ @ % , @ ",
"          - G T g f d a X X X X 1 4 4 3 > h K K W T k g s > 3 4 4 < X X X X X     o a $ = f d d : : d d d d d s @ X         o   ",
"      # j b k d d d f a X X X X X 1 4 1 7 J W [ ....~ v g : 1 4 < X X X X X X     X s s = s d d d : : d d g f $                 ",
"        8 s d d d d s = a $ X X X X + ; l E  .#.#.#...~ v d & + X X X X X X       = d f = a f d f d : , g j %                   ",
"            o a f d = s d d o X X X X d W  .#.+.#.o.#...E v : X X X X % :       * s d f : : d l K l g d l h                     ",
"              o a f d g l v $ = o . @ l { #.#.#.o.o.#.{ T J h = X X $ d s $     0 J d d d % d Y Y Y J h d o                     ",
"                @ a l b Y 9 a f f a s c ~ ..| { #.#.{ Y Z M h d a : s d f = X - _ b d f d % d Y Y Y Y b f :                     ",
"                  o = x Y = s d v V r.:.v ~ ' ' #.{ Y C 9.t.%.c v g d g d f Y T l g h J l % = K Y x z d @ o                     ",
"                      = z 8 d d c V p.x.:.v J J ] n ^ w.l.s.=.n Y c d v d v l f d h J Y Y f % Y j # X                           ",
"                        6 l d d c V h.M.x.>.k h N :.e.m.Z.l.=.n Y b h l l d f c c J Y Y Y h s j %                               ",
"                        : d d d c k *.u.u.q.g f M y.n.Z.n.3.C K Y Y k f J b b Y Y Y Y Y Y J d #                                 ",
"                          o a s f v l N N N K K J ` q.q.2.B Y Y Y Y c d l Y Y Y Y Y K j j h :                                   ",
"                            . % f v h j z b h Y Y J l l v z 6 b Y Y K g g c l h Y Y d X X X                                     ",
"                              @ a : o $ % h 7 h z z 7 7 j p ,.u b Y K g d d = o f d                                             ",
"                                o X X X . e 1.<.D y g.A y j.a.0.w K K g d d $                                                   ",
"                                          m N.N.b.4.A.8.v.Z.x.y.q K Y g d s @                                     X X X         ",
"                                          F V.Z.A.C.A.A.A.m.k.-.h Y v f f =                                   X X X X X         ",
"                                        O 6.Z.Z.c.C.A.b.B.i.&.h Y Y k d a @                                 X o < + X X         ",
"                                        X t d.f.S 5.7.D ;.q h Y Y l d d d =                               X + 1 1 + X X         ",
"                                        o f i p z 9 8 z h K Y v l d d d d a @                           X + 1 1 + X X X         ",
"                                        o s h z Y T Y K J k k f d d d d d d %                         X + 1 1 1 o X X           ",
"                                = - = % d g f g v J l f f d h h g k l l d d s o                     X + 1 1 1 + X X X           ",
"                            = h ' o.' K Q J k a d f d c b c ' ' T [ O.| k h f %                     o < 1 < + X X X X           ",
"                        X 9 _ #.#.o...~ K l k % $ % f  .o.| #...~ #.o.' v c v s X                 X + 1 + X X X X X X           ",
"                      0 G ] | [ #.~ ) ..W v a o   @ Y #._ o.o.~ E o...T v l Y v : o o           : a o o X X X X X X             ",
"                    # | / ] T W #.T h W ~ K 7     5 o.{ k ..o.c c #._ k l f b Y v h f % $ $ $ : c g a X X X X X X               ",
"                    # [ T ] ) v  .E f h J T f     5 #.Q - ..o.l k { T l s a l K Y Y K c c c c c h d s $ X X X                   ",
"                      9 v J [ s j _ : d b T f       x Q $ j o.K f T W f $ @ a l K K K K K K l h d s % o X                       ",
"                        8 : z d o f o = ( W f         d $   j 5 f T K a X   o a d g g g g g d a % o                             ",
"                            % 5       5 E T s                 o v [ d o       X % : : : : : = X                                 ",
"                                    - T v : $                 # _ K %                                                           ",
"                                      = @                     z x :                                                             ",
"                                                              o o                                                               ",
"                                                                                                                                ",
"                                                                                                                                "
};
