/* XPM */
static char *_f044db5d4554fa6ad0865f47fd6a7e35loQ04kTkYuu7lK1[] = {
/* columns rows colors chars-per-pixel */
"64 64 176 2 ",
"   c None",
".  c #010712",
"X  c #0B0E12",
"o  c #071110",
"O  c #0D1211",
"+  c #131313",
"@  c #1B1315",
"#  c #171B1B",
"$  c #1B1B1B",
"%  c #231416",
"&  c #2B1517",
"*  c #251518",
"=  c #2B161A",
"-  c #231B19",
";  c #301517",
":  c #34161A",
">  c #3B161B",
",  c #3C181F",
"<  c #36191D",
"1  c #2F2117",
"2  c #242012",
"3  c #362F17",
"4  c #3E2A13",
"5  c #3F3819",
"6  c #3F3214",
"7  c #3F1920",
"8  c #252525",
"9  c #282727",
"0  c #2C2C2C",
"q  c #343434",
"w  c #3C3C3C",
"e  c #43161C",
"r  c #44181D",
"t  c #4D181F",
"y  c #53191E",
"u  c #5B1A1F",
"i  c #601A1F",
"p  c #48211E",
"a  c #4D2A1B",
"s  c #412D13",
"d  c #58271B",
"f  c #54291C",
"g  c #592D1C",
"h  c #51251A",
"j  c #4E3F18",
"k  c #4C3E16",
"l  c #543A1A",
"z  c #573618",
"x  c #61281F",
"c  c #441921",
"v  c #4C1A23",
"b  c #501727",
"n  c #551B26",
"m  c #5A1C26",
"M  c #5A1724",
"N  c #631C25",
"B  c #6B1A25",
"V  c #651C28",
"C  c #6B1C28",
"Z  c #661626",
"A  c #731B25",
"S  c #781C27",
"D  c #741C29",
"F  c #7D1C29",
"G  c #572329",
"H  c #552E31",
"J  c #632121",
"K  c #6C2A24",
"L  c #68262F",
"P  c #682B2F",
"I  c #762427",
"U  c #74232A",
"Y  c #7C232A",
"T  c #763123",
"R  c #783723",
"E  c #622C32",
"W  c #6A2E32",
"Q  c #534316",
"!  c #6D4C15",
"~  c #6D4918",
"^  c #754715",
"/  c #65551C",
"(  c #8A1E26",
")  c #831D2A",
"_  c #8A1E2B",
"`  c #831D25",
"'  c #931F2B",
"]  c #9A1F2C",
"[  c #97202C",
"{  c #9E202C",
"}  c #843C23",
"|  c #A3202D",
" . c #A9202E",
".. c #AC212D",
"X. c #B6222E",
"o. c #B5222E",
"O. c #BB232F",
"+. c #B9222F",
"@. c #BE232F",
"#. c #BB232F",
"$. c #BE2330",
"%. c #C3232F",
"&. c #C1232F",
"*. c #C1232F",
"=. c #C32430",
"-. c #C42430",
";. c #C52430",
":. c #C72430",
">. c #C52430",
",. c #CA2430",
"<. c #CC2430",
"1. c #924B1F",
"2. c #A45A1D",
"3. c #866C1C",
"4. c #896F1D",
"5. c #966513",
"6. c #89711F",
"7. c #9A7B1D",
"8. c #A76E12",
"9. c #B66A1B",
"0. c #BB6E1C",
"q. c #A77112",
"w. c #AB7D18",
"e. c #BE731C",
"r. c #8C4221",
"t. c #954820",
"y. c #984A20",
"u. c #914421",
"i. c #C47319",
"p. c #998228",
"a. c #958A38",
"s. c #A7912F",
"d. c #AA9029",
"f. c #B29427",
"g. c #B69A2A",
"h. c #BF9E28",
"j. c #D6871A",
"k. c #C3991E",
"l. c #D69518",
"z. c #E18D17",
"x. c #EC9516",
"c. c #F09B16",
"v. c #DFA91F",
"b. c #ECA61C",
"n. c #E5A71B",
"m. c #FFA917",
"M. c #FCAB1C",
"N. c #F0A21B",
"B. c #FFB516",
"V. c #FFB519",
"C. c #FFB818",
"Z. c #C6A32A",
"A. c #D5A920",
"S. c #F7A820",
"D. c #FFB422",
"F. c #E0BD30",
"G. c #FFC31F",
"H. c #FEC424",
"J. c #FFCE26",
"K. c #FFC92A",
"L. c #E9C736",
"P. c #EECE39",
"I. c #FDCC33",
"U. c #F3CD37",
"Y. c #FED536",
"T. c #FFD830",
"R. c #FFDB3C",
"E. c #F1D33D",
"W. c #CEB942",
"Q. c #D9C648",
"!. c #FFDE43",
"~. c #FFE644",
"^. c #FFE54C",
"/. c #FFEC4E",
"(. c #FFE953",
"). c #FFED59",
/* pixels */
"                                                                                                                                ",
"                                                                                                                                ",
"                                                                                                                                ",
"                                                                                                                                ",
"                      +                                           +                                                             ",
"                    + + +                                       + + +                                                           ",
"                  + + + +                                       + + + +                                                         ",
"                + $ 0 + +                                       + + 0 $ +                                                       ",
"              + + q $ +                                           + $ q + +                                                     ",
"            + + $ q + +                                           + + q $ + +                                                   ",
"            + + q q + +                                           + + q w + +                                                   ",
"          + + + q q +                                               + q w + + +                                                 ",
"          + + + q q +                                               + q w + + +                                                 ",
"          + + + q q +                                               + q w + + + +                                               ",
"        + + + + q w + +                                           + + q w + + + +                                               ",
"        + + + + q w 0 +                                           + 0 w w + + + +                                               ",
"        + + + + $ w q + +                                       + + q w $ + + + +                                               ",
"        + + + + + q w 0 +                                       + 0 w w + + + + +                                               ",
"        + + + + + $ w q + +                                   + + q w $ + + + + +                                               ",
"        + + + + + + q w 0 + +                                 + 0 w q $ + + + + +                                               ",
"          + + + + + $ w w 0 + +                             + 0 w w $ + + + + + +                                               ",
"          + + + + + + q w w 0 + +     = = = = = = =     + + 0 w w q $ + + + + +                                                 ",
"          + + + + + + $ w w w 0 8 + @ n n n n n n n < + 8 0 w w w 8 + + + + O O                                                 ",
"            + + + + + + 0 w w w w $ , D D D V n n n n $ w w w w q $ + + + % A u o O                                             ",
"            + + + + + + + 0 w w 9 7 D _ _ _ ) D S m n 7 8 w w q + + + + + ; <.o.A M : O                                         ",
"              + + + + + + + 0 w $ b ) ' o.o.| _ _ ) S n $ w q + + + + + + + u ;.=.| A B & +                                     ",
"            @ ( { % + + + + + $ c S ' O.;.;.%.{ _ _ _ F c $ + + + + + + +     i %.%.{ _ S B % @                                 ",
"          @ ( ] _ A @ + + + + + v _ O.;.;.=.;.%.{ _ _ ) n @ + + + + + +         B ;.%.] _ _ F B @ @                             ",
"        * ` @._ N F A % + + O c _ O.;.;.;.;.=.;.%.' _ _ F c @ + + @ c =       ; M | @.%.' _ _ ) ) M @                           ",
"        B <.] N n n F A ; = @ M  .%.;.;.;.%.%.;.O.' F D D V v % % c n n @ > u o.{ V _ %.| _ _ _ _ _ M @                         ",
"        B $.' N n n m D ) D R 1.I  .;.@.o.;.;.O.' D r.1.r.F F N n n n D N .. .D C n n _ @.| _ _ _ _ _ M *                       ",
"      > ' | S m n n n n C C 9.B.9.U  .O.' o.O.' D t.c.V.z.V _ D n n C |  .D C n n n n n o.%._ _ _ _ _ B &                       ",
"      u <.| v v n n n n C C 9.I.H.0.D ' D ' _ Z y.b.I.H.z.V _ F N n C ) C n n n n n n n ) @. ._ _ _ B &                         ",
"      y <. .; c n = < n C C 9.K.!.H.0.V n V u.i.b.R.(.K.z.V _ _ C n n F n n n n n n n n n u o._ _ B &                           ",
"      u o._ : @ *   @ n C D K j.D.M.x.G n b 2.C.R.(.Y.N.} F _ _ C n n N D n n c % c n n n * o._ B *                             ",
"      u ..t           = C ) V K T T T ) ) ) I e.M.S.c.} F _ _ _ ) V n n m n n , O @ @ c =   r ..M o                             ",
"      y  .>             e ) ) F F F ) ) ) _ ) I K K K ) ) F ) _ _ C n n n v @ @       @     & o.N O                             ",
"        y r               t ) a J a A A : ) F _ D B A ) B 4 h F _ C n n n c +               ; o.M O                             ",
"        y r               e d k.j Z.1 J z x g B z k - M ! m.8.e ) V n n n @                 & ] B O                             ",
"        e >                 5.G.4.Q./ 5 g./ h.2 d.Y.3 / I.H.q.e D n n n n +                   > B                               ",
"                            ! v.J.R.P.p.Q.s./.f.W.).a.E.^.n.^ Z D n n n ,                                                       ",
"                            . w.H.7.U.T.(.^.^.R.(.).~.(.L.~ Z ) N n n n @                                                       ",
"                              z l.6 A.6.Y.R.f.g.R.Y.4.F.~ Z _ D n n n n @                                                 + +   ",
"                              X s p l m 3.k.d g Q Q m l B _ F m n n n n c +                                             + + +   ",
"                        @ @ @ + , n v ) J f F F B B ) A ) V m n n n n n n @                                         + + $ $ +   ",
"                    @ e ) F F F N n n V ) F _ _ _ _ C N D  .) ) | O.o.C n c +                                     + + $ 8 $ +   ",
"                  ; ' @.%.%.%.| ) ) n n n C ) ) _ o.@.] @.;...| ;.;.@._ n v @                                   + $ 8 8 8 + +   ",
"              > > ' @.O.;.@.o.%.| _ V n n n n n | ;.O.%.;.%. .| ;.;.] ) n n c +                             + + $ 8 8 8 $ + +   ",
"            e  ._ @. .] ;. .S { %.' ) n n 7 , A O.;._ @.;.o.D [ ;.O.) ) m V v *                           + $ $ 8 8 8 8 + + +   ",
"          O ( ;.C o.) _ <. .C V { _ ) V : O o A <...b o.;. .n _ <.| N C m ) C , O                       + + 8 8 8 $ 8 0 $ + +   ",
"          O A %.D O.[ C o...C n C ) _ A +     A <.' & o.,. .n L U B D n m _ ) m = O                     + $ 8 8 8 + 8 8 + + +   ",
"            : E 7 ] o.v G G ; v n ) _ A +     e P v @ y W M C G - v D n n C _ ) m , * + + +         + + $ 8 $ $ $ + $ + + +     ",
"              $ + < H @ + # O @ v | _ A +       # + +   # + r C A F N = n m _ _ ) C v c c 7 + + + = c * + $ + + + + + + +       ",
"                +   # + + + +   *  .' A +         +       + * )  .C =   * n m C _ ) ) ) ) F v v v N C v % + + + + + + + +       ",
"                      +       + 0 Y F v +                   : |  .>       * n n C ) ) ) ) ) ) F ) D n n = + + + + + + +         ",
"                              0 $ c % +                     8 E B *         * v n n n n n n n n n n n n v @ + + + +             ",
"                              + + +                       $ 8 = ;             + = v c n n n n n n n c = + + + + +               ",
"                                                            + +                   + + < c c c c c ; +                           ",
"                                                                                        + + + + +                               ",
"                                                                                                                                ",
"                                                                                                                                ",
"                                                                                                                                ",
"                                                                                                                                ",
"                                                                                                                                "
};
