/* XPM */
static char *_d39e0f209684f52eddf89e7d25cdddasGNtOI24uEFbir4Q[] = {
/* columns rows colors chars-per-pixel */
"64 64 164 2 ",
"   c None",
".  c #0D1211",
"X  c #131313",
"o  c #1C1415",
"O  c #161C1C",
"+  c #1C1C1C",
"@  c #1C1913",
"#  c #231416",
"$  c #2A1517",
"%  c #251518",
"&  c #2C1519",
"*  c #291D1F",
"=  c #271C15",
"-  c #301C17",
";  c #33161B",
":  c #3B161B",
">  c #3C191E",
",  c #3F1820",
"<  c #1D2222",
"1  c #242424",
"2  c #2A2425",
"3  c #262928",
"4  c #2B2C2C",
"5  c #36292B",
"6  c #333333",
"7  c #3D3D3D",
"8  c #43171B",
"9  c #48141E",
"0  c #44191E",
"q  c #4B181D",
"w  c #51191F",
"e  c #5C1A1E",
"r  c #493F17",
"t  c #4B3419",
"y  c #55311B",
"u  c #5C3A1B",
"i  c #4F1727",
"p  c #441921",
"a  c #4B1A23",
"s  c #551621",
"d  c #5A1722",
"f  c #551B26",
"g  c #5B1C26",
"h  c #5F1C28",
"j  c #611724",
"k  c #6F1726",
"l  c #621B25",
"z  c #6C1B25",
"x  c #651C28",
"c  c #6B1B28",
"v  c #701726",
"b  c #741C26",
"n  c #7D1D26",
"m  c #731C29",
"M  c #7B1D2A",
"N  c #422C2E",
"B  c #542023",
"V  c #5E2226",
"C  c #5D262B",
"Z  c #462A30",
"A  c #692326",
"S  c #6C2A25",
"D  c #602228",
"F  c #632625",
"G  c #732327",
"H  c #7B282F",
"J  c #7D2C26",
"K  c #782A31",
"L  c #544A1D",
"P  c #66441C",
"I  c #664719",
"U  c #714714",
"Y  c #724814",
"T  c #69591F",
"R  c #68531C",
"E  c #7C5113",
"W  c #765B1D",
"Q  c gray25",
"!  c #811D26",
"~  c #8A1E27",
"^  c #851D2A",
"/  c #8A1E2B",
"(  c #931F2B",
")  c #9A1F2C",
"_  c #82252D",
"`  c #8D2129",
"'  c #96202C",
"]  c #9D202B",
"[  c #843823",
"{  c #883A23",
"}  c #872A32",
"|  c #A4202C",
" . c #AB212D",
".. c #B4222E",
"X. c #BC232F",
"o. c #B72230",
"O. c #C2232F",
"+. c #C52430",
"@. c #CA2430",
"#. c #974E1F",
"$. c #91491E",
"%. c #985E15",
"&. c #9B541F",
"*. c #A1561D",
"=. c #A0581D",
"-. c #89671D",
";. c #8C6C1D",
":. c #9F7D1D",
">. c #AF611C",
",. c #B2661B",
"<. c #AF7213",
"1. c #BA7418",
"2. c #B37513",
"3. c #8E4620",
"4. c #924422",
"5. c #86792E",
"6. c #C1731B",
"7. c #AE8C1D",
"8. c #B18A1F",
"9. c #BC941E",
"0. c #AB8820",
"q. c #A2973D",
"w. c #D2841B",
"e. c #D78419",
"r. c #C6941B",
"t. c #DE9013",
"y. c #DF961B",
"u. c #E38C17",
"i. c #E39316",
"p. c #F99F14",
"a. c #F09C18",
"s. c #F59B14",
"d. c #E0A81E",
"f. c #F0A01B",
"g. c #F9A918",
"h. c #F6B11E",
"j. c #FFB51C",
"k. c #FEBB1C",
"l. c #C59E24",
"z. c #CEAB29",
"x. c #D3AA23",
"c. c #D8AE21",
"v. c #D6B42F",
"b. c #EABB22",
"n. c #F1B921",
"m. c #FFBC25",
"M. c #F0C027",
"N. c #F1C129",
"B. c #FFC52A",
"V. c #FFCA2C",
"C. c #FCC024",
"Z. c #FFC732",
"A. c #F3CD35",
"S. c #EED23F",
"D. c #FFD335",
"F. c #FFDD3E",
"G. c #CFBE44",
"H. c #DCCB4C",
"J. c #E2C843",
"K. c #EBD74F",
"L. c #F7DE46",
"P. c #FFDD42",
"I. c #FFE54A",
"U. c #FFEA54",
/* pixels */
"                                                                                                                                ",
"                              X X                                         X X                                                   ",
"                            X X X X                                     X X X X                                                 ",
"                          X + + X                                         X X + X                                               ",
"                        X + 4 + X                                         X + 4 + X                                             ",
"                      X X 4 3 X                                             X 1 4 X X                                           ",
"                      X + 6 3 X                                             X 1 7 1 X                                           ",
"                    X X 1 Q 3                                                 1 7 3 X X                                         ",
"                    X X 1 Q 3                                                 1 7 3 X X                                         ",
"                  X X X 1 7 3                                                 1 7 3 X X X                                       ",
"                  X X X 1 7 3 X                                             X 1 7 3 X X X                                       ",
"                X X X X 1 7 4 X                                             X 4 7 3 X X X X                                     ",
"                X X X X + 6 7 + X                                         X + 7 6 + X X X X                                     ",
"                X X X X X 3 7 4 X X                                       X 4 7 4 X X X X X                                     ",
"                X X X X X + 6 7 + X                                     X + 7 6 + X X X X X                                     ",
"                  X X X X X 4 7 6 X X                                 X X 6 7 4 X X X X X                                       ",
"                  X X X X X X 6 7 6 X X                             X X 6 7 6 + X X X X X                                       ",
"                  X X X X X X 4 7 7 6 X X X     X X X X X X X     X X 6 7 7 6 X X X X X X                                       ",
"                    X X X X X X 6 7 7 6 X X X X , f f f f f , X X X 6 7 7 6 X X X X X X                                         ",
"                    X X X X X X 4 7 7 7 7 4 X 0 l l h f f f g ; 3 7 7 7 7 6 X X X X X X                                         ",
"                      X X X X X X 4 7 7 7 2 : m / ^ ^ x x l g 0 2 7 7 7 6 X X X X X X                                           ",
"                      X X X X X X X 4 7 6 $ h ^ | ] / ^ / M f g & 4 7 4 X X X X X X X                                           ",
"                        X X X X X X X 4 2 p ^ X.+.+. .| / ^ c x p 2 4 X X X X X X X                                             ",
"                          X X X X X X . $ / X.+.O.+.+.X./ / / m f $ . X X X X X X           . .                                 ",
"                            X X X X X o b X.+.O.+.+.+.O. ./ / ^ x p o X X X X X           # ! n q                               ",
"                              X X X X $ ) +.+.+.+.+.+.+.X./ / / c f a o X o > X           % X.X.^ q                             ",
"                  o o         X d f B B c | O.O.O.+.+.+.../ ^ m g f f a a f a X             8 X. .^ 0                           ",
"                ; | z o       X z A u.e.F c  .|  .+.X.X./ M S S V g g f f f f > .           $ ..../ ^ :                         ",
"              o | ../ z % #   . z A a.B.w.G ) ] ^  .( ! M #.p.g.&.v c f f f g > .             w +. ./ q                         ",
"              X | / ^ M / j & ; b A f.P.V.w.J x c M M [ #.g.m.k.*.v / h f f f a : 8 8 8 8 8 q ( @. .^ / ;                       ",
"              q  ./ m h M M M ^ / G 6.C.D.k.,.i f f 3.s.j.P.I.k.=.v / c g h M ' @.X......... ./  ...( / w                       ",
"            X ] +.^ f f f f f c ^ / G >.,.,.4.c c h i.k.P.U.D.y.{ M / ^ g c O. .| M c m m m m c m @.| ^ / s                     ",
"            X ] +.^ g f f f g f M / ^ k k k M / / l &.h.Z.B.y.[ M / / ^ g h / M l f f f f f f f M @.| ^ / / d o                 ",
"              q  ./ g f g p $ a M / / / / / / / / M m 3.$.$.[ M / / / ^ h f g l f f f f f f f f l ] | ^ / / ^ o                 ",
"              X | / z ; g ; . # z 0 b 0 / l d / / / / M m M h & j / / c f f f p # , g ; a f f f f ^  .^ / / ^ j o               ",
"              o  ...b X o o   X - 8.t 0.8 g q w l ^ > - : z I t.Y j / h f f f > . o p % o a f f f ^  .^ / / / / j X             ",
"              o ] X.b X       X 2.n.L G.= R -.;.W # l.x.@ I M.k.E s / h f g p o     o     o a g , j  .^ / / / / z X             ",
"                $ ..n %       . <.k.N.J.9.5.q.q.D.T H.K.R A.F.h.U j ^ h f g p X             # a ; e  .^ / / b b j X             ",
"                o ( X.j .       @ 1.d.r b.v.I.I.v.S.I.L.z.S.r.E d / x f g f > X               X . e  ./ b z # X X               ",
"                  % ~ ^ ;       X f %.y -.u c.x.u ;.7.:.y ;.; d / M h f g a X                     e  .z & .                     ",
"                    $ ! d .       ; ; M d k P P v s : 9 M s / ^ m l f f f a X                   ; ! ! &                         ",
"                      % :         X f c M / z z / / / / / ^ c l f f f f f a X                   q o.0                           ",
"                              X X > f f g c M / / / / c c x f f f f f f f f ;                   w ( $                           ",
"                          X q z z M m g f f h x x x x g m f f M ( M M ] | ] p X                 ; :                             ",
"                        : / ..X.X.../ ^ m f f f f f g ^ ..| ( X.O.)  .+.+.X.z X                                                 ",
"                    # : ) +.O.+.O.X.X.( M g f f f f h ..O.X.O.+.O.) ..+.X.( z X                                                 ",
"                  8 | / O.|  .+.) / X.../ m ; X X o n O.X.( +.+.| M ..+...^ M > .                                               ",
"                # .. .M ..M | +.( l ^  ./ M :     X | +.| c +.+./ f  .+./ l m > .                                               ",
"                o  . .M X.m / O.) h g M / / w     X  .O.b 8 @.@./ f } ` M x f p #                                               ",
"                o f K f X.' s H x > f h ^ / w       z } q $ _ _ b h Z + l m x g :                                               ",
"                  X < o D C o < X X ; x ] / w         < X X O O & f c f M l ^ c p %                                             ",
"                    X X O + X X X     q ../ w           X     X . > ] ( c M / ^ c a %                                           ",
"                          X X       O N ( M :                   . d ..( g c / / ^ c a #               X X X X X X X X X         ",
"                                  X 4 * a % o                   X 5 _ z $ g ^ / / ^ x a # X       X X X X X X X X X X X X X     ",
"                                    + X o                       3 1 p %   % l ^ ^ / ^ x a a o X X X + 3 3 3 3 3 3 3 3 3 + X X   ",
"                                                                X X X       % f c ^ ^ ^ x f a o + 1 4 7 7 7 7 7 7 7 6 + X X     ",
"                                                                              $ p f m ^ M x l f , X + 6 7 7 7 7 7 7 4 + X       ",
"                                                                                X & p p f M m g a o X + 6 6 4 6 1 4 + X         ",
"                                                                                    X X ; > f g f $ X + + + + + X + + X         ",
"                                                                                          X ; ; $ X X X X X X X X X X           ",
"                                                                                              . X X X X X X X X X               ",
"                                                                                                  X X X X X X                   ",
"                                                                                                                                ",
"                                                                                                                                "
};
