/* XPM */
static char *d1b2bc14d0cf4e7da37aa66127e24997zM9wmyAbU0MfhWAA[] = {
/* columns rows colors chars-per-pixel */
"64 58 166 2 ",
"   c None",
".  c #0E1212",
"X  c #131313",
"o  c #1C1415",
"O  c #141817",
"+  c #161C1B",
"@  c #1B1B1B",
"#  c #221416",
"$  c #2A1517",
"%  c #291F15",
"&  c #261518",
"*  c #2B161A",
"=  c #261A1C",
"-  c #231D13",
";  c #311517",
":  c #33171C",
">  c #3B161B",
",  c #3C181E",
"<  c #292114",
"1  c #372217",
"2  c #3C2617",
"3  c #3F1820",
"4  c #242424",
"5  c #292526",
"6  c #252828",
"7  c #2C2B2B",
"8  c #343534",
"9  c #3C3C3C",
"0  c #43171C",
"q  c #4B171E",
"w  c #44181F",
"e  c #4C191D",
"r  c #53191E",
"t  c #601A1F",
"y  c #43221C",
"u  c #4B271A",
"i  c #52221D",
"p  c #5A221F",
"a  c #5C2E1B",
"s  c #623B1B",
"d  c #441921",
"f  c #4B1A22",
"g  c #591521",
"h  c #551B26",
"j  c #5A1C26",
"k  c #5C1C28",
"l  c #631B24",
"z  c #6C1B25",
"x  c #641C28",
"c  c #6B1C28",
"v  c #731C26",
"b  c #791C26",
"n  c #741D29",
"m  c #7C1D29",
"M  c #4E2024",
"N  c #442328",
"B  c #4C262B",
"V  c #4A2B2E",
"C  c #54222A",
"Z  c #542227",
"A  c #642323",
"S  c #6E2626",
"D  c #68292E",
"F  c #6B242D",
"G  c #772527",
"H  c #7E2727",
"J  c #7D2926",
"K  c #7F232A",
"L  c #7B3323",
"P  c #672B30",
"I  c #714D13",
"U  c #69531E",
"Y  c #755A1E",
"T  c #8D1E27",
"R  c #811D2A",
"E  c #861D2A",
"W  c #851D2A",
"Q  c #841D2A",
"!  c #891E2B",
"~  c #8A1E2B",
"^  c #891D2A",
"/  c #8D1E2B",
"(  c #8A1E2B",
")  c #911E2A",
"_  c #931F2B",
"`  c #9B1F2C",
"'  c #94202C",
"]  c #9C202C",
"[  c #8C3D22",
"{  c #813823",
"}  c #8A2630",
"|  c #A0212C",
" . c #A3202D",
".. c #AA212D",
"X. c #B3222E",
"o. c #B6222E",
"O. c #B4222E",
"+. c #BB232F",
"@. c #C2232F",
"#. c #C2232F",
"$. c #C42430",
"%. c #C52430",
"&. c #C62430",
"*. c #CC2430",
"=. c #895814",
"-. c #885F1A",
";. c #9C521F",
":. c #A65A1E",
">. c #AA5E1C",
",. c #8D6014",
"<. c #886B1C",
"1. c #946415",
"2. c #9D7B1D",
"3. c #BC6F1B",
"4. c #AC7013",
"5. c #BB7D15",
"6. c #8C4720",
"7. c #924720",
"8. c #964921",
"9. c #9A4E20",
"0. c #8D6F20",
"q. c #9B7C22",
"w. c #C5771B",
"e. c #C87719",
"r. c #CA7C1B",
"t. c #968630",
"y. c #A48725",
"u. c #A58825",
"i. c #AD8E27",
"p. c #B19327",
"a. c #B89627",
"s. c #BD9927",
"d. c #BC9D2B",
"f. c #A08F33",
"g. c #A79130",
"h. c #B49D34",
"j. c #C68514",
"k. c #D98A1A",
"l. c #C69B1F",
"z. c #E99C19",
"x. c #F39F17",
"c. c #D9A81F",
"v. c #E7A01D",
"b. c #E9A71C",
"n. c #F4AC1B",
"m. c #FCAE19",
"M. c #FCAB17",
"N. c #FFB018",
"B. c #D2AD2C",
"V. c #DBB42C",
"C. c #F2B020",
"Z. c #F7BF22",
"A. c #F6BE28",
"S. c #FFCB26",
"D. c #FDCA2E",
"F. c #FFD42E",
"G. c #F5CA30",
"H. c #FFD333",
"J. c #FFD439",
"K. c #FFDA3D",
"L. c #D3BE43",
"P. c #D6C74C",
"I. c #E9D54D",
"U. c #FDDC42",
"Y. c #FFE44B",
"T. c #FFEA53",
/* pixels */
"                                                                                                                                ",
"                                                                                                                                ",
"                                                                                                                                ",
"                                                                                                                                ",
"                                                                                                                                ",
"                          X X                                   X X                                                             ",
"                        X X X                                   X X X                                                           ",
"                      O 4 O X                                   X O 4 O                                                         ",
"                    X 6 4 X                                       X 4 6 X                                                       ",
"                  X O 8 @ X                                       X @ 8 O X                                                     ",
"                  X 4 9 @                                         X @ 9 4 X                                                     ",
"                X X 4 9 @                                           @ 9 4 X X                                                   ",
"              X X X 4 9 @                                           @ 9 4 X X X                                                 ",
"              X X X 4 9 @ X                                       X @ 9 4 X X X                                                 ",
"            X X X X 4 9 4 X                                       X 4 9 4 X X X                                                 ",
"            X X X X @ 8 9 O X                                   X O 9 8 @ X X X X                                               ",
"            X X X X X 7 9 6 X                                   X 6 9 7 X X X X X                                               ",
"              X X X X @ 9 8 O                                   O 8 8 @ X X X # # $ # o o o o o o o o o o o o                   ",
"              X X X X X 7 9 7 O                               O 7 9 7 X X : r ] | | ' h h h h h h h h h h h h * # o             ",
"              . . X X X O 9 9 7 O                           O 7 9 9 O X X t v , , , h j j h h h h h h h h h h h h d * *         ",
"            X l z X X X O 6 9 9 7 O X X : , , , , , : X X O 7 9 9 6 O X X . . X X * f : * f j h h h h h h h h h h h j h , * X   ",
"        o e T m c o X X X @ 9 9 9 8 4 X f k j j j j h * 4 8 9 9 9 @ X X X X X   * : f d d f : : h h h h h h h h h , # & & : d # ",
"      > ) ~ x j h , X X X X 4 9 9 9 7 > m Q Q n k k j > 7 9 9 9 4 X X X X X     o , * * j h h f : h h h h h h f o           o   ",
"  > r E x j h h j f X X X X X 4 9 8 * n ~ ` ` ) E Q c k * 8 9 4 X X X X X X       3 h : f h h h d : h h h x f o                 ",
"  0 z j h h h h h : : o X X X X 4 5 f m | #.$.o.) ~ ~ m f 5 4 X X X X X X       * f j d : j h h h d : h x j $                   ",
"      & : h h h : f j f o X X X X o c | #.$.#.$.o./ ~ ~ c o X X X X X X         : j j d : j j n c j f j m q                     ",
"          : h h f j j n $ o X X X h ] #.$.#.$.$.$.o.~ ~ Q h o X X o , o       e Q h h h : d m ~ E Q x j f #                     ",
"            : h x c E v : h , # & b +.$.$.$.$.$.$.X.E b b c h # # f j ,       z ' h h j : , Q ~ ~ ~ E c f o                     ",
"              : g ~ ~ > f h x k 6.7.E +.#.X.$.$.X.~ J ;.;.H m x h h h f # r l ' n h c x : * m ~ ~ / ~ h , *                     ",
"                  h ~ > f h c c k.n.9.E +.) ..X./ G e.N.M.L E n h j c h c E Q h h c E E j # c / c 0 0                           ",
"                    g l h h c c k.K.C.9.Q c ~ K S r.D.J.m.L Q E x j m j x k h j c E ~ ~ n * v v *                               ",
"                    w c h h c c w.D.J.n.{ h h :.x.D.T.K.z.L Q ~ c h x n k x m Q E ~ ~ ~ n h l $                                 ",
"                    * d h h c n A 3.w.w.{ x x 8.n.J.J.v.[ Q ~ ~ n j k m ~ E ~ ~ ~ ~ ~ / / c #                                   ",
"                      X * , c ~ n c c c Q ~ ~ b 8.>.>.[ m ~ ~ ~ ~ x h c ~ ~ ~ ~ ~ ~ h e e > o                                   ",
"                          # j m Q r c l E q E ~ b v c m E e e E ~ x h k x w w E ~ r                                             ",
"                            : z a 2.U Y g y A p b u 1 q p 5.4.e E x h h :     w h                                               ",
"                              o j.c.t.f.< i.U y.% B.p.< s.S.j.0 c h h j :                                                       ",
"                                ,.Z.H.K.y.L.g.Y.u.I.P.h.Y.A.=.l c h h f *                                         X X           ",
"                                - b.l.d.F.Y.Y.Y.U.T.Y.Y.U.-.l m k h j ,                                       X X X X X         ",
"                                  I 1.<.<.V.H.q.a.G.s.q.0.l ~ n h h j 3                                     X O 4 @ X X         ",
"                                  X , y l s 2.j i 2 i j l Q n j h h h h *                                 O 4 4 4 @ X X         ",
"                          o > > > 0 h h n b g ~ E E Q n n m c x n m n j , o                             O 4 4 4 @ X X X         ",
"                        e b ......~ n x h c m ~ ~ / | m Q +.| _ +.$.o.c h &                           O 4 4 4 4 X X X           ",
"                    X r ..$.$.$.#.../ c h h j x c ..$.+.+.$.o.| $.#.` m h f o                       X 4 4 4 4 @ X X X           ",
"                  r ~ | +.| $. ./ +...Q j * f f n +.o. .$.+.~ ] $.+.~ n j h #                     X O 4 4 4 @ X X X X           ",
"                $ +.' ] _ / $.] x E  .~ c o X X T $.) m $.+.k E *._ x c n c f X                 . X 4 4 @ X X X X X             ",
"                $ X.) ] | c +.| x j m ~ Q #   . T &.l l *.+.j F K v c h n ~ x *               o : o @ @ X X X X X X             ",
"                  M B v o.h Z Z : h c ~ Q #     e P : ; D k c C = g c h x Q ~ l , , o X X X X f c f o X X X X X X               ",
"                    O # V # O O X * m | Q #       + X . + O : c b m f : h m ~ E m m h f f f f n k j * X X X X                   ",
"                        O X   X     k  .m #         X     X # ~ | h o   : j m ~ ~ ~ E E E Q m k j f d X X X                     ",
"                                  4 B z w o                 = } ) *       : j n n n n n m x j h , * X X                         ",
"                                  4 o &                     6 N f o         * , h h h h h h , *                                 ",
"                                                            @ o o             o & & & & & &                                     ",
"                                                                                                                                ",
"                                                                                                                                ",
"                                                                                                                                ",
"                                                                                                                                ",
"                                                                                                                                "
};
