/* XPM */
static char *_be40dc9723441abe040e63a7489dbf91yG8Hpy8RM0y5ut0[] = {
/* columns rows colors chars-per-pixel */
"64 64 164 2 ",
"   c None",
".  c #120D16",
"X  c #071111",
"o  c #0C1211",
"O  c #131313",
"+  c #1B1315",
"@  c #161C1B",
"#  c #1B1B1B",
"$  c #210F16",
"%  c #221416",
"&  c #2D1517",
"*  c #251518",
"=  c #2B1519",
"-  c #311517",
";  c #34161B",
":  c #3C161B",
">  c #391A1D",
",  c #2F2B19",
"<  c #3D2818",
"1  c #312A15",
"2  c #3F1920",
"3  c #1C2221",
"4  c #232323",
"5  c #292122",
"6  c #2C2C2C",
"7  c #352829",
"8  c #343434",
"9  c #3C3C3C",
"0  c #43161D",
"q  c #49161E",
"w  c #44181F",
"e  c #4C191D",
"r  c #51181E",
"t  c #5C1A1E",
"y  c #611A1F",
"u  c #472E17",
"i  c #49231C",
"p  c #502919",
"a  c #493219",
"s  c #52341A",
"d  c #58391A",
"f  c #5A371B",
"g  c #441921",
"h  c #4C1A23",
"j  c #5C1722",
"k  c #551B26",
"l  c #5A1B26",
"z  c #5B1928",
"x  c #541621",
"c  c #621B26",
"v  c #6B1B25",
"b  c #651C28",
"n  c #6B1C28",
"m  c #751C26",
"M  c #7A1C25",
"N  c #741D29",
"B  c #7B1D29",
"V  c #5B2026",
"C  c #492B31",
"Z  c #652227",
"A  c #6C2726",
"S  c #73242C",
"D  c #772D25",
"F  c #7D3424",
"G  c #743223",
"H  c #4D4118",
"J  c #564B1C",
"K  c #684C1B",
"L  c #7C5C1D",
"P  c #745F1A",
"I  c #5C5221",
"U  c #736C2E",
"Y  c #831D25",
"T  c #8A1E26",
"R  c #841D2A",
"E  c #8A1E2B",
"W  c #931F2B",
"Q  c #9A1F2B",
"!  c #8A242D",
"~  c #84252E",
"^  c #94202C",
"/  c #9D202B",
"(  c #853F21",
")  c #892931",
"_  c #832731",
"`  c #952931",
"'  c #A3202C",
"]  c #AC212E",
"[  c #B5222E",
"{  c #BE232F",
"}  c #BA222F",
"|  c #C3232F",
" . c #C0232F",
".. c #C2232F",
"X. c #C42430",
"o. c #C52430",
"O. c #C62430",
"+. c #C52430",
"@. c #C92430",
"#. c #D22532",
"$. c #934B1F",
"%. c #885714",
"&. c #905E13",
"*. c #9B531E",
"=. c #A1561C",
"-. c #A45B1D",
";. c #88671D",
":. c #9D6613",
">. c #8E701C",
",. c #99771F",
"<. c #9F7C1E",
"1. c #A36617",
"2. c #BA6A1C",
"3. c #B4651C",
"4. c #A97113",
"5. c #A37F1E",
"6. c #934720",
"7. c #994C20",
"8. c #A17D20",
"9. c #C3731A",
"0. c #C57819",
"q. c #C27F13",
"w. c #D27F18",
"e. c #A5811F",
"r. c #B1A33F",
"t. c #D78519",
"y. c #DF8918",
"u. c #DF901A",
"i. c #E89016",
"p. c #EA9919",
"a. c #E1911A",
"s. c #F29B16",
"d. c #EDA91D",
"f. c #F3AE1D",
"g. c #FCB51C",
"h. c #FDBD1E",
"j. c #C09A20",
"k. c #C7A021",
"l. c #CFA625",
"z. c #D4AA23",
"x. c #D5AE29",
"c. c #DBAB23",
"v. c #D7B02A",
"b. c #E8B923",
"n. c #FEB320",
"m. c #FABB21",
"M. c #FFC01F",
"N. c #EEC024",
"B. c #FFC322",
"V. c #FFCC2E",
"C. c #E7C537",
"Z. c #ECCA38",
"A. c #FFCD35",
"S. c #FFD134",
"D. c #FFD73D",
"F. c #FFDC3E",
"G. c #BEAF41",
"H. c #CCBB42",
"J. c #E8D047",
"K. c #FFDC41",
"L. c #F5DA44",
"P. c #FEE044",
"I. c #FCE44E",
"U. c #FFEB54",
/* pixels */
"                                O                                                                                               ",
"                            O O O O                                       O                                                     ",
"                          O # O O O                                     O O O O                                                 ",
"                        O # 6 # O                                       O O O # O                                               ",
"                      O O 6 4 O                                           O # 9 4                                               ",
"                      O # 8 4 O                                           O O 6 6 O                                             ",
"                    O O 4 8 O O                                             O 4 6 O O                                           ",
"                    O O 4 6 O                                               O 4 9 4 O                                           ",
"                  O O O 4 6 O                                               O 4 9 4 O                                           ",
"                  O O O 4 9 4 O                                             O 4 9 4 O O                                         ",
"                O O O O 4 9 4 O                                             O 4 6 O O O                                         ",
"                O O O O 4 9 6 O                                           O # 9 6 O O O O                                       ",
"                O O O O # 8 9 # O                                         O 6 9 6 O O O O                                       ",
"                O O O O O 4 9 6 O O                                     O # 9 8 # O O O O                                       ",
"                O O O O O # 8 9 6 O                                   O O 6 8 # O O O O O                                       ",
"                O O O O O O 6 9 9 # O                               O O 6 9 8 O O O O O                                         ",
"                  O O O O O O 8 9 8 O O O     O O O O O           O O 6 9 9 # O O O O O                                         ",
"                  O O O O O O 6 9 9 8 O O O = h h h h g + +     O O 6 9 9 8 O O O O O O                                         ",
"                  O O O O O O O 8 9 9 9 6 O ; l k k k k k g + O O 6 9 9 9 O O O O O O                                           ",
"                    O O O O O O 6 9 9 9 6 ; l c c c l k k l : 4 9 9 9 9 8 O O O O O O                                           ",
"                    O O O O O O O 6 9 8 * k n E R R R b c k g 5 9 9 8 8 O O O O O O                                             ",
"                      O O O O O O O 6 6 ; l N W / / E E R b l ; 6 8 # O O O O O O O                                             ",
"                        O O O O O O O ; l R ' [ O.O.] E E R b ; # # O O O O O O O X                                             ",
"                          O O O O O + l R [ O.O.| O.| E E E B h % O O O O O O o : M : X o                                       ",
"                      O     o q * O g R [ O.| O.O.O.| ] E E N k h % O O O O   X y #./ v j + O                                   ",
"                    ; Q v X e n h h l W X.O.| | O.O.O.{ E B l k l h % O g g O   & Y @.{ W v c O O                               ",
"                  - ' / ; X x n 9.y.A R / O.] ] O.O.{ W Z Z V k k k h h l k O     % T O.} W R m x O                             ",
"                - ' W E j O x n t.B.a.D R ' ' ' | { E F i.s.2.k k k k k k h +       + W O.} W E R B e +                         ",
"              ; ] [ B b R x j n t.K.V.u.D R R R R B F p.n.M.9.k l l k k k k g O   & - m ] O.} E E E R R 0                       ",
"            O Q X.E l k b R E n 2.m.D.h.w.k k k G ( p.S.I.B.9.k N n k k k k g + : M } E c ' { W R E E E R 0                     ",
"            o Q [ R l k k b B R N 3.9.9.-.l n z 0.g.S.U.K.f.*.l B N l k k l m m [ W N l k l ' } W E E E E R q                   ",
"            r ] W N k k k k k B E n n n n B E B 7.d.A.A.f.*.l B E E b k l N ] ^ N c k k k k b O.[ R E E E E x +                 ",
"          o T O.E > k k l k k B E E E E E E E E N 6.=.=.$.z B E E E c k l N R c k k k k k k l ^ | Q R E E x                     ",
"          o T O.E % k h = 2 l 0 m q R M r E E E E B N N b = x E E E c k k l B k k k k k k k k k M ] R E r                       ",
"          o T ' R + % % X ; : >.d <.i v ; v x E e ; ; m p q.%.x E E c k k l n n k l ; % h k k g e ] E r                         ",
"          o T W ;         . %.h.J H., a 8.K >.$ ,.z.1 < z.h.4.0 E E c k k h % % ; k =   + * h +   v ] :                         ",
"          o Y W %           &.h.b.J.l.I G.U F.P r.U.J x.P.h.:.q E n k k k +       +         +     t ] :                         ",
"            + v *           O 1.g.H b.x.I.I.Z.C.I.I.v.L.c.4.q E R b k k k +                       t ] :                         ",
"            O v *             > 1.u 5.s z.N.L L k.j.s e.> q E R n k k k g +                       r / q                         ",
"              r *             O * h ; m f ;.j j ; : M q R E R n k k k k +                           t e                         ",
"                                ; k l N m j E E E E E E R N n k k k k k +                                                       ",
"                            o X = k k l n B E E E E N n n k k k k k k k ;                                                       ",
"                        X : j x N N l k k l n n n n l n k k n E N N ^ / W +                                                     ",
"                      = m ' } [ [ W B N k k k k k k B ] / R [ | Q ' | O.{ c O                                                   ",
"                  + = R X.O.O.| | } W R l k k k k l ] O.| { O.O.' ] O.| Q m O                                                   ",
"                & / R | ] ' O.' E } } E B 2 + + + v { { Q | O.] R ] O.{ E m O                                                   ",
"              + ' [ N [ R ' @.Q c R [ E B w o   o W O.] n | O.^ k ' @.W c v O                                                   ",
"              + ' } N } B R | Q c l B E E x o   O Q O.R : O.@.^ k ! / R b h %                                                   ",
"              O j ) l { / l ~ S h k l R E x o     m ` j & ! ` M l C # x N l g O                                                 ",
"                O 4 + Z S % 3 # O ; l Q E x o       4 O O @ 3 = l b h B l b h =                                                 ",
"                  O O @ # O O O O   0 [ E j o         O     O o ; E W N N R n h =                                               ",
"                        O O       O 7 ^ R h o                 o w ] Q l R E R n h =               O O O O O O O O O             ",
"                                O 6 5 l ; %                     7 _ N l b R E R n h * O       O O O O O O O O O O O O O         ",
"                                  # O +                       4 4 g ; % k R R E R n h g % O O O # 4 4 4 4 4 4 4 4 4 # O O       ",
"                                                                O +     % k b R R R n k h + + 4 6 9 9 9 9 9 9 9 8 4 O O         ",
"                                                                          % h k n R R b l k h + # 6 9 9 9 9 9 9 8 # O           ",
"                                                                            O = h g k N B l h % O # 8 9 6 8 4 4 4 O O           ",
"                                                                                O O ; g k l k ; O # 4 4 4 4 O 4 # O             ",
"                                                                                      O ; > ; O O O O O O O O O O               ",
"                                                                                          o O O O O O O O O O O                 ",
"                                                                                              O O O O O O O                     ",
"                                                                                                                                ",
"                                                                                                                                ",
"                                                                                                                                "
};
